<?xml version="1.0" encoding="UTF-8"?>
<svg width="72px" height="72px" viewBox="0 0 72 72" version="1.1" xmlns="http://www.w3.org/2000/svg" xmlns:xlink="http://www.w3.org/1999/xlink">
    <!-- Generator: Sketch 52.5 (67469) - http://www.bohemiancoding.com/sketch -->
    <title>ic_burn_big</title>
    <desc>Created with Sketch.</desc>
    <g id="Export" stroke="none" stroke-width="1" fill="none" fill-rule="evenodd">
        <g transform="translate(-74.000000, -212.000000)" fill="#FF8737" fill-rule="nonzero" id="ic_burn_big">
            <g transform="translate(74.000000, 212.000000)">
                <path d="M36,70.8 C55.2195093,70.8 70.8,55.2195093 70.8,36 C70.8,16.7804907 55.2195093,1.2 36,1.2 C16.7804907,1.2 1.2,16.7804907 1.2,36 C1.2,55.2195093 16.7804907,70.8 36,70.8 Z M36,72 C16.117749,72 -7.10542736e-15,55.882251 -7.10542736e-15,36 C-7.10542736e-15,16.117749 16.117749,-7.10542736e-15 36,-7.10542736e-15 C55.882251,-7.10542736e-15 72,16.117749 72,36 C72,55.882251 55.882251,72 36,72 Z M43.3591207,32.2284352 C43.5034358,33.4533777 41.9748199,34.1061403 41.2091602,33.1465297 C37.9219777,29.0266644 37.2798923,25.5960571 37.2481164,15.9189849 C33.3891735,18.0033874 31.2413773,21.3485635 30.3236669,25.8379463 C29.8036268,28.3819508 29.7184331,30.6516569 29.8239814,34.4840333 C29.8798578,36.5128635 29.8848418,37.0288501 29.8252695,37.7300102 C29.7403789,38.7291626 28.5732324,39.2105114 27.8229928,38.5557792 C26.6073184,37.4948633 25.681457,35.9487446 24.9783124,34.0477402 C24.5792901,32.9689534 24.2726863,31.8308569 24.0442577,30.687684 C22.3112838,32.5715575 21.2140921,35.7758872 21.2140921,38.9376681 C21.2140921,47.696014 27.8484151,54.7707317 36,54.7707317 C44.1515849,54.7707317 50.7859079,47.696014 50.7859079,38.9376681 C50.7859079,37.2858413 50.4462175,35.9073108 49.6623353,33.9595031 C49.5664767,33.7213115 49.4647716,33.475163 49.3287063,33.1505902 C49.3155634,33.1192391 49.0541482,32.4976173 48.9767634,32.312158 C47.8153238,29.5286693 47.2032223,27.4507517 47.029004,24.9134788 C44.1619603,26.4036277 43.0035032,29.2099653 43.3591207,32.2284352 Z M41.937579,32.0970752 C42.0081384,32.1896681 42.0801275,32.2819851 42.1535753,32.3740381 C42.1399509,32.2583951 42.1283733,32.1401524 42.1190265,32.0195919 C42.1190265,31.351019 42.1273328,30.7739436 42.1439455,30.2883658 C42.4308736,27.5646699 43.9493837,24.4154245 48.1907079,23.1256651 C48.1440011,30.7541354 52,33.337456 52,38.9376681 C52,48.361191 44.8364827,56 36,56 C27.1635173,56 20,48.361191 20,38.9376681 C20,35.0407701 21.6440981,30.2365918 24.9228417,28.4377032 C24.9228417,28.4377032 25.3545028,33.2011292 27.4365635,36.2673517 C27.6717793,36.6213239 27.9188254,36.9325536 28.1777019,37.2010408 C28.3178059,37.3504568 28.4637114,37.4920602 28.6156448,37.6246521 C28.6315872,37.4370119 28.6414896,37.2307973 28.6468373,37.0075623 C28.6468373,36.5140885 28.6460837,36.1320941 28.6445765,35.8615789 C28.538265,30.2525774 27.4666917,18.4203048 38.4614672,14 C38.4614672,20.9967209 38.3404586,26.1210137 40.888368,30.5251437 C41.1899376,31.0820403 41.5396746,31.6060174 41.937579,32.0970752 Z"></path>
            </g>
        </g>
    </g>
</svg>