<?xml version="1.0" encoding="UTF-8"?>
<svg width="32px" height="32px" viewBox="0 0 32 32" version="1.1" xmlns="http://www.w3.org/2000/svg" xmlns:xlink="http://www.w3.org/1999/xlink">
    <!-- Generator: Sketch 52.5 (67469) - http://www.bohemiancoding.com/sketch -->
    <title>ic_contract_signup</title>
    <desc>Created with Sketch.</desc>
    <g id="Export" stroke="none" stroke-width="1" fill="none" fill-rule="evenodd">
        <g transform="translate(-28.000000, -17.000000)" id="ic_contract_signup">
            <g transform="translate(28.000000, 17.000000)">
                <circle id="Oval-2" fill="#FFCE8A" cx="16" cy="16" r="16"></circle>
                <path d="M10.5,9 C9.67228475,9 9,9.67228475 9,10.5 L9,23 L20,23 L20,10.5 C20,9.93685932 20.1855111,9.41763017 20.4988459,9 L10.5,9 Z M22.5,9 C21.67,9 21,9.67 21,10.5 L21,23.5 C21,23.7761424 20.7761424,24 20.5,24 L8.5,24 C8.22385763,24 8,23.7761424 8,23.5 L8,10.5 C8,9.12 9.12,8 10.5,8 L22.5,8 L22.5,9 Z M21,15 L24,15 L24,10.5 C24,9.67157288 23.3284271,9 22.5,9 C21.6715729,9 21,9.67157288 21,10.5 L21,15 Z M22.5,8 C23.8807119,8 25,9.11928813 25,10.5 L25,15.5 C25,15.7761424 24.7761424,16 24.5,16 L20.5,16 C20.2238576,16 20,15.7761424 20,15.5 L20,10.5 C20,9.11928813 21.1192881,8 22.5,8 Z M15,15.5 L17,15.5 C17.2761424,15.5 17.5,15.7238576 17.5,16 C17.5,16.2761424 17.2761424,16.5 17,16.5 L15,16.5 L15,18.5 C15,18.7761424 14.7761424,19 14.5,19 C14.2238576,19 14,18.7761424 14,18.5 L14,16.5 L12,16.5 C11.7238576,16.5 11.5,16.2761424 11.5,16 C11.5,15.7238576 11.7238576,15.5 12,15.5 L14,15.5 L14,13.5 C14,13.2238576 14.2238576,13 14.5,13 C14.7761424,13 15,13.2238576 15,13.5 L15,15.5 Z" id="Shape" fill="#FFFFFF" fill-rule="nonzero"></path>
                <polygon id="Overlay" points="0 0 32 0 32 32 0 32"></polygon>
            </g>
        </g>
    </g>
</svg>