<?xml version="1.0" encoding="UTF-8"?>
<svg width="24px" height="24px" viewBox="0 0 24 24" version="1.1" xmlns="http://www.w3.org/2000/svg" xmlns:xlink="http://www.w3.org/1999/xlink">
    <!-- Generator: Sketch 50.2 (55047) - http://www.bohemiancoding.com/sketch -->
    <title>ic_card_line</title>
    <desc>Created with Sketch.</desc>
    <defs></defs>
    <g id="Page-1" stroke="none" stroke-width="1" fill="none" fill-rule="evenodd">
        <g id="00A_Export" transform="translate(-286.000000, -113.000000)">
            <g id="ic_card_line" transform="translate(286.000000, 113.000000)">
                <rect id="Gudie" fill-opacity="0" fill="#D8D8D8" x="0" y="0" width="24" height="24"></rect>
                <g id="Shape" transform="translate(1.000000, 3.000000)" fill="#696B8A">
                    <path d="M2,0 L20,0 C21.1045695,-2.02906125e-16 22,0.8954305 22,2 L22,16 C22,17.1045695 21.1045695,18 20,18 L2,18 C0.8954305,18 1.3527075e-16,17.1045695 0,16 L0,2 C-1.3527075e-16,0.8954305 0.8954305,2.02906125e-16 2,0 Z M2,1 C1.44771525,1 1,1.44771525 1,2 L1,16 C1,16.5522847 1.44771525,17 2,17 L20,17 C20.5522847,17 21,16.5522847 21,16 L21,2 C21,1.44771525 20.5522847,1 20,1 L2,1 Z" id="Combined-Shape"></path>
                    <rect id="Rectangle-6" x="0" y="4" width="22" height="1"></rect>
                    <rect id="Rectangle-6" x="4" y="13" width="7" height="1" rx="0.5"></rect>
                </g>
                <rect id="Overlay" x="0" y="0" width="24" height="24"></rect>
            </g>
        </g>
    </g>
</svg>