<?xml version="1.0" encoding="UTF-8"?>
<svg width="24px" height="24px" viewBox="0 0 24 24" version="1.1" xmlns="http://www.w3.org/2000/svg" xmlns:xlink="http://www.w3.org/1999/xlink">
    <!-- Generator: Sketch 50.2 (55047) - http://www.bohemiancoding.com/sketch -->
    <title>ic_card_solid</title>
    <desc>Created with Sketch.</desc>
    <defs></defs>
    <g id="Page-1" stroke="none" stroke-width="1" fill="none" fill-rule="evenodd">
        <g id="00A_Export" transform="translate(-286.000000, -63.000000)">
            <g id="ic_card_solid" transform="translate(286.000000, 63.000000)">
                <rect id="Gudie" fill-opacity="0" fill="#D8D8D8" x="0" y="0" width="24" height="24"></rect>
                <g id="Shape" transform="translate(1.000000, 3.000000)" fill="#FF8737">
                    <path d="M22,4 L0,4 L0,2 C-1.3527075e-16,0.8954305 0.8954305,2.02906125e-16 2,0 L20,0 C21.1045695,-2.02906125e-16 22,0.8954305 22,2 L22,4 Z M22,5 L22,16 C22,17.1045695 21.1045695,18 20,18 L2,18 C0.8954305,18 1.3527075e-16,17.1045695 0,16 L0,5 L22,5 Z M4.5,13 C4.22385763,13 4,13.2238576 4,13.5 C4,13.7761424 4.22385763,14 4.5,14 L10.5,14 C10.7761424,14 11,13.7761424 11,13.5 C11,13.2238576 10.7761424,13 10.5,13 L4.5,13 Z" id="Combined-Shape"></path>
                </g>
                <rect id="Overlay" x="0" y="0" width="24" height="24"></rect>
            </g>
        </g>
    </g>
</svg>