<?xml version="1.0" encoding="UTF-8"?>
<svg width="32px" height="32px" viewBox="0 0 32 32" version="1.1" xmlns="http://www.w3.org/2000/svg" xmlns:xlink="http://www.w3.org/1999/xlink">
    <!-- Generator: Sketch 52.5 (67469) - http://www.bohemiancoding.com/sketch -->
    <title>ic_contract_implement</title>
    <desc>Created with Sketch.</desc>
    <g id="Export" stroke="none" stroke-width="1" fill="none" fill-rule="evenodd">
        <g transform="translate(-28.000000, -74.000000)" id="ic_contract_implement">
            <g transform="translate(28.000000, 74.000000)">
                <circle id="Oval-2" fill="#B4E0A8" cx="16" cy="16" r="16"></circle>
                <path d="M10.5,9 C9.67228475,9 9,9.67228475 9,10.5 L9,23 L20,23 L20,10.5 C20,9.93685932 20.1855111,9.41763017 20.4988459,9 L10.5,9 Z M22.5,9 C21.67,9 21,9.67 21,10.5 L21,23.5 C21,23.7761424 20.7761424,24 20.5,24 L8.5,24 C8.22385763,24 8,23.7761424 8,23.5 L8,10.5 C8,9.12 9.12,8 10.5,8 L22.5,8 L22.5,9 Z M21,15 L24,15 L24,10.5 C24,9.67157288 23.3284271,9 22.5,9 C21.6715729,9 21,9.67157288 21,10.5 L21,15 Z M22.5,8 C23.8807119,8 25,9.11928813 25,10.5 L25,15.5 C25,15.7761424 24.7761424,16 24.5,16 L20.5,16 C20.2238576,16 20,15.7761424 20,15.5 L20,10.5 C20,9.11928813 21.1192881,8 22.5,8 Z M17.6679834,13.6261804 C17.8744413,13.4427962 18.1904707,13.4615011 18.3738549,13.667959 C18.5572391,13.8744169 18.5385341,14.1904463 18.3320762,14.3738305 L13.8287894,18.3738305 C13.6099842,18.5681821 13.2717753,18.5338947 13.0964275,18.2995842 L11.5997143,16.2995842 C11.4342615,16.078496 11.4793629,15.7651427 11.700451,15.5996899 C11.9215392,15.4342371 12.2348926,15.4793385 12.4003454,15.7004266 L13.571251,17.2650625 L17.6679834,13.6261804 Z" id="Shape" fill="#FFFFFF" fill-rule="nonzero"></path>
                <polygon id="Overlay" points="0 0 32 0 32 32 0 32"></polygon>
            </g>
        </g>
    </g>
</svg>