<?xml version="1.0" encoding="UTF-8"?>
<svg width="188px" height="152px" viewBox="0 0 188 152" version="1.1" xmlns="http://www.w3.org/2000/svg" xmlns:xlink="http://www.w3.org/1999/xlink">
    <!-- Generator: Sketch 52.2 (67145) - http://www.bohemiancoding.com/sketch -->
    <title>ic_illustration_wallet</title>
    <desc>Created with Sketch.</desc>
    <defs>
        <linearGradient x1="0.013397642%" y1="50.0064998%" x2="100%" y2="50.0064998%" id="linearGradient-1">
            <stop stop-color="#F3F3FA" offset="0%"></stop>
            <stop stop-color="#FFFFFF" offset="19%"></stop>
            <stop stop-color="#F3F3FA" offset="45%"></stop>
            <stop stop-color="#DBDEF8" offset="52%"></stop>
            <stop stop-color="#F5F5FD" offset="79%"></stop>
            <stop stop-color="#DBDEF8" offset="100%"></stop>
        </linearGradient>
        <linearGradient x1="2.13827673%" y1="0%" x2="100%" y2="0%" id="linearGradient-2">
            <stop stop-color="#E9E9F7" offset="0%"></stop>
            <stop stop-color="#FDFDFD" offset="21.5458198%"></stop>
            <stop stop-color="#E7E7F5" offset="43.1220229%"></stop>
            <stop stop-color="#B9BFF1" offset="51.6996128%"></stop>
            <stop stop-color="#EBEBFB" offset="76.272742%"></stop>
            <stop stop-color="#B9BFF1" offset="100%"></stop>
        </linearGradient>
        <linearGradient x1="0.00502509697%" y1="49.988393%" x2="99.9983241%" y2="49.988393%" id="linearGradient-3">
            <stop stop-color="#F3F3FA" offset="0%"></stop>
            <stop stop-color="#DBDEF8" offset="100%"></stop>
        </linearGradient>
        <linearGradient x1="11.7846386%" y1="18.5453216%" x2="99.9983241%" y2="49.988393%" id="linearGradient-4">
            <stop stop-color="#D8DDFA" offset="0%"></stop>
            <stop stop-color="#BEC5F5" offset="100%"></stop>
        </linearGradient>
        <linearGradient x1="100.002277%" y1="49.9940991%" x2="0.00911680889%" y2="49.9940991%" id="linearGradient-5">
            <stop stop-color="#7726DD" offset="0%"></stop>
            <stop stop-color="#17B5E2" offset="100%"></stop>
        </linearGradient>
        <linearGradient x1="0.00911680889%" y1="49.9940991%" x2="102.770996%" y2="89.6132932%" id="linearGradient-6">
            <stop stop-color="#7726DD" offset="0%"></stop>
            <stop stop-color="#17B5E2" offset="100%"></stop>
        </linearGradient>
        <linearGradient x1="100%" y1="44.913642%" x2="28.4783522%" y2="80.3308348%" id="linearGradient-7">
            <stop stop-color="#DBDEF8" offset="0%"></stop>
            <stop stop-color="#F8F8FD" offset="100%"></stop>
        </linearGradient>
        <linearGradient x1="106.675451%" y1="61.5504422%" x2="14.6428289%" y2="1.78864295%" id="linearGradient-8">
            <stop stop-color="#D3D7F5" offset="0%"></stop>
            <stop stop-color="#E8E9F7" offset="19.5802365%"></stop>
            <stop stop-color="#F8F9FF" offset="38.8073519%"></stop>
            <stop stop-color="#E9EBFB" offset="69.8403622%"></stop>
            <stop stop-color="#F6F7FE" offset="100%"></stop>
        </linearGradient>
        <linearGradient x1="-3.51543943%" y1="24.9807613%" x2="103.657957%" y2="75.0192387%" id="linearGradient-9">
            <stop stop-color="#F3F3FA" offset="0%"></stop>
            <stop stop-color="#DBDEF8" offset="100%"></stop>
        </linearGradient>
        <linearGradient x1="0%" y1="16.7091823%" x2="100%" y2="100%" id="linearGradient-10">
            <stop stop-color="#7726DD" offset="0%"></stop>
            <stop stop-color="#17B5E2" offset="100%"></stop>
        </linearGradient>
        <linearGradient x1="0.0271013962%" y1="49.9919498%" x2="99.9880724%" y2="49.9919498%" id="linearGradient-11">
            <stop stop-color="#17B5E2" offset="0%"></stop>
            <stop stop-color="#7726DD" offset="100%"></stop>
        </linearGradient>
        <linearGradient x1="49.970205%" y1="99.9314252%" x2="49.970205%" y2="-0.198276637%" id="linearGradient-12">
            <stop stop-color="#FF76A7" offset="0%"></stop>
            <stop stop-color="#FFD4B3" offset="100%"></stop>
        </linearGradient>
        <linearGradient x1="100.006669%" y1="50.0691052%" x2="-0.0267183193%" y2="50.0691052%" id="linearGradient-13">
            <stop stop-color="#FF76A7" offset="15.1869581%"></stop>
            <stop stop-color="#FFD4B3" offset="77.8743678%"></stop>
        </linearGradient>
        <linearGradient x1="100.006669%" y1="50.0691052%" x2="-0.0267183193%" y2="50.0691052%" id="linearGradient-14">
            <stop stop-color="#FF76A7" offset="0%"></stop>
            <stop stop-color="#FFD4B3" offset="100%"></stop>
        </linearGradient>
    </defs>
    <g id="Export" stroke="none" stroke-width="1" fill="none" fill-rule="evenodd">
        <g transform="translate(-287.000000, -88.000000)" id="ic_illustration_wallet">
            <g transform="translate(287.000000, 88.000000)">
                <path d="M8.1591635,99.0952319 L58.2158717,70.1563973 C63.6687812,67.2536718 69.785268,65.8294427 75.9579944,66.0251292 L113.236387,66.0251292 C119.376946,65.7932753 125.471704,67.1690913 130.918705,70.0166926 L180.875738,98.975485 C190.384719,104.483843 190.364784,113.404987 180.875738,118.933302 L130.759225,147.852179 C125.310923,150.748024 119.202691,152.171931 113.037037,151.983447 L75.7586447,151.983447 C69.6021038,152.168156 63.5029066,150.751631 58.0563919,147.872137 L8.11929356,119.053049 C-1.38968684,113.504776 -1.36975187,104.583632 8.1591635,99.0952319 Z" id="Shadow" fill="#DBDEF8" opacity="0.3"></path>
                <g id="Base" transform="translate(0.000000, 55.000000)">
                    <path d="M150,44.0955754 C150,40.4624822 147.664389,36.849351 142.873392,34.1145501 L92.8274384,5.10969058 C83.3053323,-0.379873339 67.8344051,-0.359911288 58.2923365,5.10969058 L8.16653269,34.1145501 C3.33561093,36.8892751 1,40.5423304 1,44.2153477 L1,53.8969422 C1,57.5499975 3.31564845,61.2230148 8.12660772,64.057626 L58.1525991,92.8828271 C67.6747053,98.372391 83.1456324,98.372391 92.687701,92.8828271 L142.733655,63.9178916 C147.484727,61.1631287 149.880225,57.5899216 149.900188,53.9368663 L150,44.0955754 Z" id="Path" fill="url(#linearGradient-1)"></path>
                    <path d="M8.13133201,63.1521328 L58.1904861,91.7680861 C67.7189045,97.2300523 83.2000875,97.2102626 92.7484816,91.7680861 L142.827611,63.0531841 C147.681711,60.2826216 150.058822,56.6413108 150,53 L149.998895,54.1478045 C149.998895,57.7891153 147.681711,61.4304261 142.827611,64.2009886 L92.7484816,92.8961009 C83.2000875,98.358067 67.7189045,98.3778568 58.1904861,92.8961009 L8.13133201,64.3395168 C3.29720779,61.5293747 1,57.8880639 1,54.2467532 L1,53.1187384 C1,56.7402595 3.29720779,60.3815702 8.13133201,63.1521328 Z" id="Path" fill="url(#linearGradient-2)"></path>
                    <path d="M8.14,53.84 L58.26,82.78 C67.8,88.3 83.3,88.28 92.86,82.78 L143,53.76 C147.86,50.96 150.24,47.28 150.181106,43.6 L150.18,44.76 C150.18,48.42 147.86,52.12 143,54.92 L92.86,84 C83.3,89.52 67.8,89.52 58.26,84 L8.14,55 C3.3,52.22 1,48.54 1,44.86 L1,43.7 C1,47.38 3.3,51.06 8.14,53.84 Z" id="Path" fill="#FFFFFF"></path>
                    <path d="M143,58.38 L92.86,87.38 C83.3,92.9 67.8,92.9 58.26,87.38 L8.14,58.46 C3.3,55.68 1,52 1,48.32 L1,49.16 C1,52.82 3.28,56.5 8.12,59.3 L58.26,88.24 C67.8,93.76 83.3,93.74 92.86,88.24 L143,59.22 C147.86,56.42 150.24,52.74 150.18,49.06 L150.18,48.22 C150.32,52 147.94,55.58 143,58.38 Z" id="Path" fill="url(#linearGradient-2)"></path>
                    <path d="M8.14,59.32 L58.26,88.24 C67.8,93.76 83.3,93.74 92.86,88.24 L143,59.22 C147.86,56.42 150.24,52.74 150.181106,49.06 L150.18,50.22 C150.18,53.9 147.86,57.58 143,60.38 L92.86,89.38 C83.3,94.9 67.8,94.92 58.26,89.38 L8.14,60.48 C3.3,57.68 1,54 1,50.34 L1,49.18 C1,52.84 3.3,56.52 8.14,59.32 Z" id="Path" fill="#FFFFFF"></path>
                    <path d="M8.14,54 C-1.4,48.5 -1.38,39.56 8.14,34 L58.38,5 C67.94,-0.52 83.44,-0.54 92.98,5 L143.12,33.88 C152.68,39.4 152.66,48.34 143.12,53.88 L92.86,82.86 C83.3,88.38 67.8,88.4 58.26,82.86 L8.14,54 Z" id="Path" fill="url(#linearGradient-3)"></path>
                </g>
                <path d="M143.12,88.88 L93,59.94 C91.953557,59.3588535 90.8713957,58.8444928 89.76,58.4 L86.22,58.4 L115.32,115.26 L132.02,115.26 L143,108.86 C152.66,103.34 152.68,94.4 143.12,88.88 Z" id="Shadow" fill="#CBD0F4"></path>
                <g id="Wallet" transform="translate(53.000000, 0.000000)">
                    <path d="M86,41 L86,100.533009 C86,101.637578 85.1045695,102.533009 84,102.533009 C83.648437,102.533009 83.3030853,102.440338 82.9987498,102.264337 L3,56 L3,16.5440037 C3,11.4047266 6.18794483,6.80452069 11,5 L11,5 C16.0629178,3.10140581 21.7109725,3.57802874 26.3841243,6.29822159 L86,41 Z" id="Path-4" fill="url(#linearGradient-4)"></path>
                    <g id="Group" transform="translate(13.000000, 15.000000)">
                        <g id="Group-3" transform="translate(8.000000, 0.000000)">
                            <path d="M10.3222676,1.52132274 L18,6 L54.5062509,27.1120487 C57.5967386,28.8993187 59.5,32.198614 59.5,35.7686908 C59.5,49.8457939 59.5,63.9228969 59.5,78 C59.5,82.1188965 54.9052734,85 52,85 C53.288737,84.2958984 54.6220703,82.2958984 56,79 L56,37.8173648 C56,34.2212376 54.0691001,30.9020373 50.9430222,29.1244636 L5,3 L-5.93303184e-13,6 L2.74350179,2.79924791 C4.62958424,0.598818386 7.81891811,0.061035567 10.3222676,1.52132274 Z" id="Path-5" fill="url(#linearGradient-5)"></path>
                            <path d="M56,37.8032254 L56,81.1072813 C56,83.3164203 54.209139,85.1072813 52,85.1072813 C51.3038922,85.1072813 50.619835,84.92562 50.0154442,84.5802539 L1.3500312e-13,56 L1.36779477e-13,6.89271871 C1.36508935e-13,4.68357971 1.790861,2.89271871 4,2.89271871 C4.69610775,2.89271871 5.38016497,3.07437998 5.98455575,3.41974614 L50.9613894,29.1207939 C54.0771394,30.9012225 56,34.2146569 56,37.8032254 Z" id="Path-4" fill="url(#linearGradient-6)"></path>
                        </g>
                        <g id="Group-3" transform="translate(4.000000, 2.500000)">
                            <path d="M10.3222676,1.52132274 L18,6 L54.5062509,27.1120487 C57.5967386,28.8993187 59.5,32.198614 59.5,35.7686908 C59.5,49.8457939 59.5,63.9228969 59.5,78 C59.5,82.1188965 54.9052734,85 52,85 C53.288737,84.2958984 54.6220703,82.2958984 56,79 L56,37.8173648 C56,34.2212376 54.0691001,30.9020373 50.9430222,29.1244636 L5,3 L-5.93303184e-13,6 L2.74350179,2.79924791 C4.62958424,0.598818386 7.81891811,0.061035567 10.3222676,1.52132274 Z" id="Path-5" fill="url(#linearGradient-5)"></path>
                            <path d="M56,37.8032254 L56,81.1072813 C56,83.3164203 54.209139,85.1072813 52,85.1072813 C51.3038922,85.1072813 50.619835,84.92562 50.0154442,84.5802539 L1.3500312e-13,56 L1.36779477e-13,6.89271871 C1.36508935e-13,4.68357971 1.790861,2.89271871 4,2.89271871 C4.69610775,2.89271871 5.38016497,3.07437998 5.98455575,3.41974614 L50.9613894,29.1207939 C54.0771394,30.9012225 56,34.2146569 56,37.8032254 Z" id="Path-4" fill="url(#linearGradient-6)"></path>
                        </g>
                        <g id="Group-3" transform="translate(0.000000, 5.000000)">
                            <path d="M10.3222676,1.52132274 L18,6 L54.5062509,27.1120487 C57.5967386,28.8993187 59.5,32.198614 59.5,35.7686908 C59.5,49.8457939 59.5,63.9228969 59.5,78 C59.5,82.1188965 54.9052734,85 52,85 C53.288737,84.2958984 54.6220703,82.2958984 56,79 L56,37.8173648 C56,34.2212376 54.0691001,30.9020373 50.9430222,29.1244636 L5,3 L-5.93303184e-13,6 L2.74350179,2.79924791 C4.62958424,0.598818386 7.81891811,0.061035567 10.3222676,1.52132274 Z" id="Path-5" fill="url(#linearGradient-5)"></path>
                            <path d="M56,37.8032254 L56,81.1072813 C56,83.3164203 54.209139,85.1072813 52,85.1072813 C51.3038922,85.1072813 50.619835,84.92562 50.0154442,84.5802539 L1.3500312e-13,56 L1.36779477e-13,6.89271871 C1.36508935e-13,4.68357971 1.790861,2.89271871 4,2.89271871 C4.69610775,2.89271871 5.38016497,3.07437998 5.98455575,3.41974614 L50.9613894,29.1207939 C54.0771394,30.9012225 56,34.2146569 56,37.8032254 Z" id="Path-4" fill="url(#linearGradient-6)"></path>
                        </g>
                    </g>
                    <path d="M64,54 L64,113.486526 C64,114.591095 63.1045695,115.486526 62,115.486526 C61.6406406,115.486526 61.2879194,115.389702 60.9789225,115.206235 L0,79 L-1.77635684e-15,13.2692568 C-2.11246602e-15,10.5247171 1.03601629,7.88132561 2.90087891,5.86767578 L2.6179993,14.4288323 C2.54529122,16.6292924 3.68358608,18.6928309 5.58365141,19.8050642 L64,54 Z" id="Path-4" fill="url(#linearGradient-7)"></path>
                    <path d="M4.5,4 L4.5,4 C12.8410294,-0.942832253 23.1978684,-1.00944556 31.6017879,3.82568621 L88.9947768,36.8463099 C90.2353237,37.5600492 91,38.8822055 91,40.3134219 C91,59.5422813 91,78.7711406 91,98 C91,100 88.7844747,101.499746 84.3534241,102.499237 C85.4511414,102.116547 86,101.450134 86,100.5 C86,81.4333172 86,62.3666344 86,43.2999516 L86,43.2999516 C86,41.8759572 85.2429572,40.5593333 84.0122751,39.8429661 L28.2780783,7.40067245 C22.5058212,4.04070191 15.4103233,3.88930353 9.5,7 L9.5,7 C6.63735817,8.5066536 5.53811251,12.0486674 7.04476611,14.9113092 C7.56836331,15.9061439 8.36719221,16.7292826 9.34588842,17.2824587 L66.968229,49.8516077 C68.2237049,50.5612245 69,51.8917164 69,53.3338591 C69,72.3892394 69,91.4446197 69,110.5 C69,112.43986 66.9367981,114.047496 62.8103943,115.322906 C63.6034648,114.871185 64,114.26355 64,113.5 C64,94.4378073 64,75.3756146 64,56.3134219 L64,56.3134219 C64,54.8822055 63.2353237,53.5600492 61.9947768,52.8463099 L4.60178794,19.8256862 C0.21523214,17.3019144 -1.29485263,11.699987 1.2289192,7.31343119 C2.01581026,5.94573958 3.14254341,4.80441872 4.5,4 Z" id="Path-2" fill="url(#linearGradient-8)"></path>
                    <g id="Group-5" transform="translate(36.000000, 62.000000)">
                        <path d="M9.05941988e-14,10.0899882 C0.100425612,13.3984578 1.05093128,16.6253557 2.76,19.4599882 C4.3693071,22.3774671 6.70469172,24.8299654 9.54,26.5799882 C12.46,28.2699882 15.32,28.4799882 17.54,27.1699882 C19.76,25.8599882 21.05,23.2999882 21.05,19.9299882 C20.9437269,16.6193131 19.9937089,13.3906288 18.29,10.5499882 C16.6749342,7.63938553 14.3406202,5.19145449 11.51,3.43998816 C8.59,1.74998816 5.73,1.53998816 3.51,2.84998816 C1.29,4.15998816 9.05941988e-14,6.72998816 9.05941988e-14,10.0899882 Z" id="Path" fill="url(#linearGradient-9)"></path>
                        <path d="M3,11.0168836 C3.06539283,13.4884072 3.7718027,15.9005385 5.05,18.0168836 C6.23548761,20.1824396 7.95711411,22.0073637 10.05,23.3168836 C12.23,24.5768836 14.36,24.7368836 16.05,23.7568836 C17.74,22.7768836 18.66,20.8768836 18.66,18.3668836 C18.5875002,15.8951015 17.8779257,13.4839261 16.6,11.3668836 C15.4095252,9.20761828 13.6887897,7.3870801 11.6,6.07688364 C9.42,4.81688364 7.29,4.65688364 5.6,5.62688364 C3.91,6.59688364 3,8.47688364 3,11.0168836 Z" id="Path" fill="url(#linearGradient-10)"></path>
                    </g>
                </g>
                <g id="Women" transform="translate(34.000000, 19.000000)">
                    <path d="M18.44,84.92 C17.3990395,84.6707404 16.3027598,84.8131144 15.36,85.32 C10.62,86.3 8.62,87.64 8.76,89.1 C8.7808673,89.2771995 8.82110793,89.4515755 8.88,89.62 C8.88575351,89.8188656 8.92636982,90.0151778 9,90.2 C8.98835067,90.5305193 9.11594167,90.8507571 9.35169273,91.0827057 C9.58744379,91.3146544 9.90971378,91.4370217 10.24,91.42 C11.9680616,91.1159783 13.6073258,90.4329516 15.04,89.42 C17.7,87.9 18.36,87.56 19.04,86.42 C19.72,85.28 18.44,84.92 18.44,84.92 Z" id="Path" fill="#0B0D61"></path>
                    <path d="M15.34,85.34 C13.6930058,85.636572 12.0739409,86.0714448 10.5,86.64 C10.5,81.42 12.06,68.94 12.24,66.94 C12.24,66.94 8.64,65.26 7.22,66.62 C3.96,77.3 8.64,88.28 8.64,88.28 C8.64,88.28 8.64,88.42 8.64,88.48 C8.64,89.3 9.66,89.18 10.34,89.02 C11.6125162,88.8232468 12.8310406,88.3671511 13.92,87.68 C15.1,86.96 15.92,86.58 16.06,85.82 C16.06,85.58 15.76,85.42 15.34,85.34 Z" id="Path" fill="#FEC2BE"></path>
                    <path d="M25,90 C24.0088444,89.3875704 22.8300329,89.1532284 21.68,89.34 L21.58,89.34 C16.34,88.68 13.8,89.34 13.42,90.92 C13.3793174,91.1044501 13.3793174,91.2955499 13.42,91.48 C13.4088236,91.6398048 13.4088236,91.8001952 13.42,91.96 C13.42,92.62 13.42,93.58 14.22,93.82 C15.9885529,94.2416143 17.8314471,94.2416143 19.6,93.82 C21.6083102,93.738457 23.5427255,93.0401121 25.14,91.82 C26.26,90.92 25,90 25,90 Z" id="Path" fill="#0B0D61"></path>
                    <path d="M21.6,89.38 L21.5,89.38 C19.5764795,89.0702348 17.6265053,88.9563188 15.68,89.04 C15.8447866,81.5038258 16.5129415,73.9870833 17.68,66.54 C17.68,66.54 13.24,66.18 11.82,67.54 C9.16,76.72 12.84,87.86 13.64,90.14 C13.632112,90.2198056 13.632112,90.3001944 13.64,90.38 C13.42,91.26 14.46,91.32 15.2,91.52 C16.6020178,91.7676813 18.0407618,91.7131317 19.42,91.36 C21.2,91 21.88,90.98 22.24,90.24 C22.26,90 22,89.6 21.6,89.38 Z" id="Path" fill="#FEDCD8"></path>
                    <path d="M36.8,27.44 L37.44,26.92 C37.1325377,26.5525357 37.0483349,26.0473189 37.22,25.6 C37.3224451,24.972731 37.6494146,24.4040884 38.14,24 C38.5621829,23.708998 39.0381138,23.5050276 39.54,23.4 C39.8,23.4 39.66,24.28 39.08,24.48 C38.5,24.68 38.54,24.94 38.52,25.4 C38.82,25.4 38.86,25.28 39.3,24.84 C39.74,24.4 40.8,23.62 41.16,23.32 C41.5304578,22.9814079 41.9481562,22.6984509 42.4,22.48 C42.68,22.6 42.4,23.08 42.4,23.18 C42.4,23.28 41.7,23.64 41.58,23.88 C41.2434228,24.3468299 40.8229359,24.7469708 40.34,25.06 C41.0847007,24.6735169 41.76046,24.1666974 42.34,23.56 C42.7,23.24 43.16,22.76 43.46,22.74 C43.76,22.72 43.46,23.54 43.28,23.66 C42.6403438,24.1975212 42.0388895,24.7789271 41.48,25.4 C41.7251976,24.8228991 42.1636095,24.3491313 42.72,24.06 C42.96,24.06 43.02,24.24 43.06,24.82 C43.1,25.4 42.5,26.04 41.32,26.92 C41,27.16 40.14,27.98 39.72,28.02 C39.2137749,28.3711754 38.7505952,28.7806531 38.34,29.24 L36.8,27.44 Z" id="Path" fill="#FEDCD8"></path>
                    <path d="M4.68,40.72 C4.12,44.32 1.32,46.9 3.7,54 C5.12195981,58.0428012 6.17296284,62.2066476 6.84,66.44 C7.26,68.44 17,69.94 17.64,67.24 C18.46,63.74 20.28,55.12 19.86,51.24 C19.7864787,48.0675679 18.8458089,44.9758077 17.14,42.3 C15.56,40.42 4.68,40.72 4.68,40.72 Z" id="Path" fill="url(#linearGradient-11)"></path>
                    <path d="M4.24,16.96 C-1.52,18.58 1.66,28.68 4.14,35.12 C9.16,35.42 4.24,16.96 4.24,16.96 Z" id="Path" fill="#EBE6FF"></path>
                    <path d="M16.66,6.34 C17,3.44 15.4,3.6 15.4,3.6 L5.84,8.6 L8.7,12.38 C8.68313325,12.4251426 8.68313325,12.4748574 8.7,12.52 C8.24,14.64 7.9,17.72 7.9,17.72 L13.76,18.5 L13.76,14.5 C15.16,14.5 16.4,14.5 16.8,13.14 C17.436284,10.9105789 17.3875057,8.54134303 16.66,6.34 Z" id="Path" fill="#FEDCD8"></path>
                    <path d="M14.74,18.88 C14.74,18.88 19.34,20.88 20.42,22.58 C19.44,23.88 19.86,30.58 17.74,36.24 C18.0490364,39.158548 18.5907599,42.0477402 19.36,44.88 C19.12,46.88 14.08,47.76 9.72,46.88 C9.34,46.88 8.94,43.82 8.58,43.72 C8.22,43.62 7.46,46.12 7.1,46 C5.22,45.22 3.1,44.36 3.52,42.4 C5.52,34.4 -0.62,22.2 3.18,17.6 C4.38,16.16 8.4,17.6 8.4,17.6 L14.74,18.88 Z" id="Path" fill="url(#linearGradient-12)"></path>
                    <path d="M20.42,22.58 C20.42,22.58 23.4,29.88 26.64,31.08 C30.54,32.52 35.42,27.7 36.88,27.08 C37.94,27.72 38.76,29.28 38.32,29.96 C35.5113861,33.937331 30.8630578,36.2011272 26,35.96 C23.16,35.68 18.44,32.46 17.76,29.96 C17.28,28 17.94,21.36 20.42,22.58 Z" id="Path" fill="#FAFAFF"></path>
                    <path d="M15.76,1.12 C18.32,2.56 17.76,4.5 15.12,6.3 C12.0888968,8.37727312 11.2563615,12.4868094 13.24,15.58 C15.24,18.98 16.5,21.22 15.12,22.4 C13.74,23.58 8.52,23.78 5.82,19.12 C3.12,14.46 -1.2,5.12 4.66,3.36 C6.3,-9.78037096e-15 12.06,-0.96 15.76,1.12 Z" id="Path" fill="#0B0D61"></path>
                </g>
                <g id="Coins" transform="translate(64.000000, 89.000000)">
                    <g id="Group-2" transform="translate(0.589041, 12.000000)">
                        <path d="M38.22,12 C38.0436665,8.25721533 35.833328,4.91100852 32.46,3.28 C28.6693227,1.24738559 24.4205312,0.221340308 20.12,0.3 C15.7976685,0.218956927 11.527269,1.2521181 7.72,3.3 C4.26422392,4.86269146 1.96084636,8.21375915 1.74,12 L1.74,16 C1.96408244,19.7356935 4.21208134,23.0501492 7.6,24.64 C11.3906773,26.6726144 15.6394688,27.6986597 19.94,27.62 C24.2562806,27.7039256 28.5209434,26.6704855 32.32,24.62 C36.12,22.42 38.32,19.34 38.32,15.96 L38.32,12 L38.22,12 Z" id="Path" fill="url(#linearGradient-13)"></path>
                        <path d="M32.46,3.28 C28.6693227,1.24738559 24.4205312,0.221340308 20.12,0.3 C15.7976685,0.218956927 11.527269,1.2521181 7.72,3.3 C4.16904168,4.70222715 1.83577224,8.13220666 1.83577224,11.95 C1.83577224,15.7677933 4.16904168,19.1977728 7.72,20.6 C11.5106773,22.6326144 15.7594688,23.6586597 20.06,23.58 C24.3762806,23.6639256 28.6409434,22.6304855 32.44,20.58 C36.24,18.38 38.44,15.3 38.44,11.92 C38.1931942,8.15734857 35.8945915,4.83629053 32.46,3.28 Z" id="Path" fill="url(#linearGradient-14)"></path>
                        <path d="M22.4357037,12.6054387 C22.4309127,12.1246748 22.8255117,11.6142035 23.6063173,11.2057432 C25.0639241,10.4432301 27.3153333,10.3249623 28.6351517,10.9415757 C29.1892509,11.2004484 29.4905601,11.5477535 29.5462544,11.9199907 C29.5538077,11.968702 29.5569616,12.017751 29.5557436,12.0668628 L29.4451073,12.0866071 L29.0132947,12.1636891 L28.1051025,12.326404 L26.8080345,12.5562229 L24.1892265,13.0221692 C24.2531623,13.0681092 24.327933,13.1110489 24.4124994,13.150558 C25.2043427,13.5205036 26.5552888,13.4495377 27.4298001,12.9920574 C27.5360526,12.9364739 27.63017,12.8776777 27.7124448,12.8167465 L28.8571138,13.1461005 C28.7199389,13.2478208 28.5629694,13.3458864 28.3856708,13.438636 C26.9281168,14.2011215 24.676607,14.3193946 23.3568364,13.7028035 C23.0933604,13.5797087 22.8869355,13.436634 22.7368796,13.2803961 L15.2703626,14.6089836 L11.1878588,15.3356065 L16.5869882,6.35815267 L14.6752412,5.46499291 L15.730957,4.91271973 L23.3779225,8.48534821 L22.3222067,9.0376214 L17.7168273,6.88600853 L13.2991849,14.2311153 L15.7646512,13.7923754 L19.4545496,7.6978856 L20.5791793,8.22330761 L17.381686,13.5044702 L16.1911408,13.716447 L17.3816888,13.5044924 L22.4357037,12.6054387 Z M23.8777813,12.3488668 L27.8348388,11.6446043 C27.7629212,11.5903598 27.6778403,11.5397707 27.5794887,11.4938212 C26.7875976,11.1238532 25.4367521,11.1948139 24.562188,11.6523218 C24.1706825,11.8571288 23.9410061,12.1046873 23.8777813,12.3488668 Z" id="Shape" fill="#FFFFFF" fill-rule="nonzero"></path>
                    </g>
                    <g id="Group-2" transform="translate(1.589041, 6.000000)">
                        <path d="M37.22,12 C37.0436665,8.25721533 34.833328,4.91100852 31.46,3.28 C27.6693227,1.24738559 23.4205312,0.221340308 19.12,0.3 C14.7976685,0.218956927 10.527269,1.2521181 6.72,3.3 C3.26422392,4.86269146 0.960846362,8.21375915 0.74,12 L0.74,16 C0.964082443,19.7356935 3.21208134,23.0501492 6.6,24.64 C10.3906773,26.6726144 14.6394688,27.6986597 18.94,27.62 C23.2562806,27.7039256 27.5209434,26.6704855 31.32,24.62 C35.12,22.42 37.32,19.34 37.32,15.96 L37.32,12 L37.22,12 Z" id="Path" fill="url(#linearGradient-13)"></path>
                        <path d="M31.46,3.28 C27.6693227,1.24738559 23.4205312,0.221340308 19.12,0.3 C14.7976685,0.218956927 10.527269,1.2521181 6.72,3.3 C3.16904168,4.70222715 0.835772241,8.13220666 0.835772241,11.95 C0.835772241,15.7677933 3.16904168,19.1977728 6.72,20.6 C10.5106773,22.6326144 14.7594688,23.6586597 19.06,23.58 C23.3762806,23.6639256 27.6409434,22.6304855 31.44,20.58 C35.24,18.38 37.44,15.3 37.44,11.92 C37.1931942,8.15734857 34.8945915,4.83629053 31.46,3.28 Z" id="Path" fill="url(#linearGradient-14)"></path>
                        <path d="M21.4357037,12.6054387 C21.4309127,12.1246748 21.8255117,11.6142035 22.6063173,11.2057432 C24.0639241,10.4432301 26.3153333,10.3249623 27.6351517,10.9415757 C28.1892509,11.2004484 28.4905601,11.5477535 28.5462544,11.9199907 C28.5538077,11.968702 28.5569616,12.017751 28.5557436,12.0668628 L28.4451073,12.0866071 L28.0132947,12.1636891 L27.1051025,12.326404 L25.8080345,12.5562229 L23.1892265,13.0221692 C23.2531623,13.0681092 23.327933,13.1110489 23.4124994,13.150558 C24.2043427,13.5205036 25.5552888,13.4495377 26.4298001,12.9920574 C26.5360526,12.9364739 26.63017,12.8776777 26.7124448,12.8167465 L27.8571138,13.1461005 C27.7199389,13.2478208 27.5629694,13.3458864 27.3856708,13.438636 C25.9281168,14.2011215 23.676607,14.3193946 22.3568364,13.7028035 C22.0933604,13.5797087 21.8869355,13.436634 21.7368796,13.2803961 L14.2703626,14.6089836 L10.1878588,15.3356065 L15.5869882,6.35815267 L13.6752412,5.46499291 L14.730957,4.91271973 L22.3779225,8.48534821 L21.3222067,9.0376214 L16.7168273,6.88600853 L12.2991849,14.2311153 L14.7646512,13.7923754 L18.4545496,7.6978856 L19.5791793,8.22330761 L16.381686,13.5044702 L15.1911408,13.716447 L16.3816888,13.5044924 L21.4357037,12.6054387 Z M22.8777813,12.3488668 L26.8348388,11.6446043 C26.7629212,11.5903598 26.6778403,11.5397707 26.5794887,11.4938212 C25.7875976,11.1238532 24.4367521,11.1948139 23.562188,11.6523218 C23.1706825,11.8571288 22.9410061,12.1046873 22.8777813,12.3488668 Z" id="Shape" fill="#FFFFFF" fill-rule="nonzero"></path>
                    </g>
                    <g id="Group-2" transform="translate(1.589041, 0.000000)">
                        <path d="M37.22,12 C37.0436665,8.25721533 34.833328,4.91100852 31.46,3.28 C27.6693227,1.24738559 23.4205312,0.221340308 19.12,0.3 C14.7976685,0.218956927 10.527269,1.2521181 6.72,3.3 C3.26422392,4.86269146 0.960846362,8.21375915 0.74,12 L0.74,16 C0.964082443,19.7356935 3.21208134,23.0501492 6.6,24.64 C10.3906773,26.6726144 14.6394688,27.6986597 18.94,27.62 C23.2562806,27.7039256 27.5209434,26.6704855 31.32,24.62 C35.12,22.42 37.32,19.34 37.32,15.96 L37.32,12 L37.22,12 Z" id="Path" fill="url(#linearGradient-13)"></path>
                        <path d="M31.46,3.28 C27.6693227,1.24738559 23.4205312,0.221340308 19.12,0.3 C14.7976685,0.218956927 10.527269,1.2521181 6.72,3.3 C3.16904168,4.70222715 0.835772241,8.13220666 0.835772241,11.95 C0.835772241,15.7677933 3.16904168,19.1977728 6.72,20.6 C10.5106773,22.6326144 14.7594688,23.6586597 19.06,23.58 C23.3762806,23.6639256 27.6409434,22.6304855 31.44,20.58 C35.24,18.38 37.44,15.3 37.44,11.92 C37.1931942,8.15734857 34.8945915,4.83629053 31.46,3.28 Z" id="Path" fill="url(#linearGradient-14)"></path>
                        <path d="M20.8016452,6.16055049 L17.0463666,12.8865182 C17.001521,12.9672887 16.8693018,13.0329979 16.7057327,13.0557982 L11.2566995,13.8139786 C11.1829174,13.8242144 11.1074177,13.8154723 11.0568742,13.7908409 C11.0063308,13.7662095 10.9878624,13.7291564 11.0079949,13.6927721 L16.3871754,4.08887183 C16.4088289,4.05053597 16.469931,4.01881365 16.5468153,4.00599054 C16.6236982,3.99316743 16.704287,4.00125738 16.7573717,4.02712725 L20.7060086,5.96428588 C20.8064148,6.01359857 20.8425512,6.08776059 20.8016452,6.16055049 Z M28.9528029,10.6343644 C28.9972938,10.6676571 29.011625,10.7183599 28.9902469,10.7668362 C28.96887,10.8153125 28.9151397,10.8539492 28.8498632,10.8677827 L22.6702919,12.176445 C22.6082263,12.1895299 22.5447442,12.1783545 22.502274,12.146867 C22.4598037,12.1153794 22.4443269,12.0680126 22.4613123,12.0215008 L24.1658146,7.38633651 C24.1838912,7.33732988 24.2351995,7.2967777 24.2998665,7.28038528 C24.3645323,7.26399285 24.4323994,7.27433464 24.4771848,7.30740537 L28.9528029,10.6343644 Z" id="Shape" fill="#FFFFFF" fill-rule="nonzero"></path>
                    </g>
                </g>
            </g>
        </g>
    </g>
</svg>