<?xml version="1.0" encoding="UTF-8"?>
<svg width="32px" height="32px" viewBox="0 0 32 32" version="1.1" xmlns="http://www.w3.org/2000/svg" xmlns:xlink="http://www.w3.org/1999/xlink">
    <!-- Generator: Sketch 50.2 (55047) - http://www.bohemiancoding.com/sketch -->
    <title>ic_leasing_reverse</title>
    <desc>Created with Sketch.</desc>
    <defs></defs>
    <g id="Page-1" stroke="none" stroke-width="1" fill="none" fill-rule="evenodd">
        <g id="00A_Export" transform="translate(-108.000000, -309.000000)">
            <g id="ic_leasing_reverse" transform="translate(108.000000, 309.000000)">
                <circle id="Oval-2" fill="#B7D7F7" cx="16" cy="16" r="16"></circle>
                <g id="shape" transform="translate(9.000000, 3.000000)" fill="#FFFFFF">
                    <path d="M1,16 L1,14 C1,10.691 3.691,8 7,8 C10.309,8 13,10.691 13,14 L13,16 L1,16 Z M7,7 C3.14,7 0,10.14 0,14 L0,16.5 C0,16.776 0.224,17 0.5,17 L13.5,17 C13.776,17 14,16.776 14,16.5 L14,14 C14,10.14 10.86,7 7,7 Z" id="Fill-1"></path>
                    <path d="M3,17 L4,17 L4,20.5 C4,20.7761424 3.77614237,21 3.5,21 L3.5,21 C3.22385763,21 3,20.7761424 3,20.5 L3,17 Z" id="Rectangle-8"></path>
                    <path d="M10,17 L11,17 L11,20.5 C11,20.7761424 10.7761424,21 10.5,21 L10.5,21 C10.2238576,21 10,20.7761424 10,20.5 L10,17 Z" id="Rectangle-8"></path>
                    <path d="M7,0 L7,0 C7.27614237,-5.07265313e-17 7.5,0.223857625 7.5,0.5 L7.5,7 L6.5,7 L6.5,0.5 C6.5,0.223857625 6.72385763,5.07265313e-17 7,0 Z" id="Rectangle-8"></path>
                </g>
                <rect id="Overlay" x="0" y="0" width="32" height="32"></rect>
            </g>
        </g>
    </g>
</svg>