<?xml version="1.0" encoding="UTF-8"?>
<svg width="32px" height="32px" viewBox="0 0 32 32" version="1.1" xmlns="http://www.w3.org/2000/svg" xmlns:xlink="http://www.w3.org/1999/xlink">
    <!-- Generator: Sketch 50.2 (55047) - http://www.bohemiancoding.com/sketch -->
    <title>ic_leasing_cancel</title>
    <desc>Created with Sketch.</desc>
    <defs></defs>
    <g id="Page-1" stroke="none" stroke-width="1" fill="none" fill-rule="evenodd">
        <g id="00A_Export" transform="translate(-108.000000, -401.000000)">
            <g id="ic_leasing_cancel" transform="translate(108.000000, 401.000000)">
                <circle id="Oval-2" fill="#FF94A0" cx="16" cy="16" r="16"></circle>
                <path d="M22.5434135,17 L27,17 C27.2761424,17 27.5,17.2238576 27.5,17.5 C27.5,17.7761424 27.2761424,18 27,18 L23.533855,18 M11.6283158,18 L5,18 C4.72385763,18 4.5,17.7761424 4.5,17.5 C4.5,17.2238576 4.72385763,17 5,17 L11.4033743,17" id="Rectangle-7" fill="#FFFFFF" transform="translate(16.000000, 17.500000) rotate(-45.000000) translate(-16.000000, -17.500000) "></path>
                <g id="shape" transform="translate(9.000000, 8.000000)" fill="#FFFFFF">
                    <path d="M1,5 L1,7 C1,10.309 3.691,13 7,13 C10.309,13 13,10.309 13,7 L13,5 L1,5 Z M7,14 C3.14,14 0,10.86 0,7 L0,4.5 C0,4.224 0.224,4 0.5,4 L13.5,4 C13.776,4 14,4.224 14,4.5 L14,7 C14,10.86 10.86,14 7,14 Z" id="Fill-1"></path>
                    <path d="M3.5,0 L3.5,0 C3.77614237,-5.07265313e-17 4,0.223857625 4,0.5 L4,4 L3,4 L3,0.5 C3,0.223857625 3.22385763,5.07265313e-17 3.5,0 Z" id="Rectangle-8"></path>
                    <path d="M10.5,0 L10.5,0 C10.7761424,-5.07265313e-17 11,0.223857625 11,0.5 L11,4 L10,4 L10,0.5 C10,0.223857625 10.2238576,5.07265313e-17 10.5,0 Z" id="Rectangle-8"></path>
                    <path d="M6.5,14 L7.5,14 L7.5,19.5 C7.5,19.7761424 7.27614237,20 7,20 L7,20 C6.72385763,20 6.5,19.7761424 6.5,19.5 L6.5,14 Z" id="Rectangle-8"></path>
                </g>
                <rect id="Overlay" x="0" y="0" width="32" height="32"></rect>
            </g>
        </g>
    </g>
</svg>