<?xml version="1.0" encoding="UTF-8"?>
<svg width="64px" height="64px" viewBox="0 0 64 64" version="1.1" xmlns="http://www.w3.org/2000/svg" xmlns:xlink="http://www.w3.org/1999/xlink">
    <!-- Generator: Sketch 50.2 (55047) - http://www.bohemiancoding.com/sketch -->
    <title>ic_leasing_cancel_in_big</title>
    <desc>Created with Sketch.</desc>
    <defs></defs>
    <g id="Page-1" stroke="none" stroke-width="1" fill="none" fill-rule="evenodd">
        <g id="00A_Export" transform="translate(-187.000000, -488.000000)">
            <g id="ic_leasing_cancel_in_big" transform="translate(187.000000, 488.000000)">
                <circle id="Oval-2" fill="#FFD18C" cx="32" cy="32" r="32"></circle>
                <g id="shape" transform="translate(16.000000, 8.000000)" fill="#FFFFFF">
                    <path d="M8.0095,30.9609 L1.7075,37.2639 C1.3165,37.6539 0.6835,37.6539 0.2925,37.2639 C-0.0975,36.8729 -0.0975,36.2399 0.2925,35.8489 L5.1945,30.9469 M22.0315,14.1099 L31.4055,4.7359 C31.7965,4.3459 32.4295,4.3459 32.8205,4.7359 C33.2105,5.1269 33.2105,5.7599 32.8205,6.1509 L23.7635,15.2069" id="Fill-1"></path>
                    <path d="M4,30 L28,30 L28,26 C28,19.382 22.618,14 16,14 C9.382,14 4,19.382 4,26 L4,30 Z M16,12 C23.72,12 30,18.28 30,26 L30,31 C30,31.552 29.552,32 29,32 L24,32 L24,39 C24,39.552 23.552,40 23,40 C22.448,40 22,39.552 22,39 L22,32 L10,32 L10,39 C10,39.552 9.552,40 9,40 C8.448,40 8,39.552 8,39 L8,32 L3,32 C2.448,32 2,31.552 2,31 L2,26 C2,18.28 8.28,12 16,12 Z M15,1 C15,0.448 15.448,0 16,0 C16.552,0 17,0.448 17,1 L17,12 L16,12 L15,12 L15,1 Z" id="Combined-Shape"></path>
                </g>
                <rect id="Overlay" x="0" y="0" width="64" height="64"></rect>
            </g>
        </g>
    </g>
</svg>