<?xml version="1.0" encoding="UTF-8"?>
<svg width="32px" height="32px" viewBox="0 0 32 32" version="1.1" xmlns="http://www.w3.org/2000/svg" xmlns:xlink="http://www.w3.org/1999/xlink">
    <!-- Generator: Sketch 50.2 (55047) - http://www.bohemiancoding.com/sketch -->
    <title>ic_leasing_cancel_in</title>
    <desc>Created with Sketch.</desc>
    <defs></defs>
    <g id="Page-1" stroke="none" stroke-width="1" fill="none" fill-rule="evenodd">
        <g id="00A_Export" transform="translate(-108.000000, -504.000000)">
            <g id="ic_leasing_cancel_in" transform="translate(108.000000, 504.000000)">
                <circle id="Oval-2" fill="#FFD18C" cx="16" cy="16" r="16"></circle>
                <g id="shape" transform="translate(8.000000, 4.000000)" fill="#FFFFFF">
                    <path d="M4.00475,15.48045 L0.85375,18.63195 C0.65825,18.82695 0.34175,18.82695 0.14625,18.63195 C-0.04875,18.43645 -0.04875,18.11995 0.14625,17.92445 L2.59725,15.47345 M11.01575,7.05495 L15.70275,2.36795 C15.89825,2.17295 16.21475,2.17295 16.41025,2.36795 C16.60525,2.56345 16.60525,2.87995 16.41025,3.07545 L11.88175,7.60345" id="Fill-1"></path>
                    <path d="M2,15 L14,15 L14,13 C14,9.691 11.309,7 8,7 C4.691,7 2,9.691 2,13 L2,15 Z M8,6 C11.86,6 15,9.14 15,13 L15,15.5 C15,15.776 14.776,16 14.5,16 L12,16 L12,19.5 C12,19.776 11.776,20 11.5,20 C11.224,20 11,19.776 11,19.5 L11,16 L5,16 L5,19.5 C5,19.776 4.776,20 4.5,20 C4.224,20 4,19.776 4,19.5 L4,16 L1.5,16 C1.224,16 1,15.776 1,15.5 L1,13 C1,9.14 4.14,6 8,6 Z M7.5,0.5 C7.5,0.224 7.724,0 8,0 C8.276,0 8.5,0.224 8.5,0.5 L8.5,6 L8,6 L7.5,6 L7.5,0.5 Z" id="Combined-Shape"></path>
                </g>
                <rect id="Overlay" x="0" y="0" width="32" height="32"></rect>
            </g>
        </g>
    </g>
</svg>