<?xml version="1.0" encoding="UTF-8"?>
<svg width="24px" height="24px" viewBox="0 0 24 24" version="1.1" xmlns="http://www.w3.org/2000/svg" xmlns:xlink="http://www.w3.org/1999/xlink">
    <!-- Generator: Sketch 52.5 (67469) - http://www.bohemiancoding.com/sketch -->
    <title>ic_minting_Solid</title>
    <desc>Created with Sketch.</desc>
    <g id="Export" stroke="none" stroke-width="1" fill="none" fill-rule="evenodd">
        <g id="ic_minting_Solid" transform="translate(1.000000, 1.000000)" fill="#FF8737" fill-rule="nonzero">
            <path d="M13,18.4309041 L13,19.5 C13,21.0295201 10.0885603,22 6.5,22 C2.91143973,22 -5.32907052e-15,21.0295201 -5.32907052e-15,19.5 L-5.32907052e-15,18.4309041 C1.27749478,19.4677406 3.66581775,20 6.5,20 C9.33418225,20 11.7225052,19.4677406 13,18.4309041 Z M-5.32907052e-15,16.5 C-5.32907052e-15,14.9704799 2.91143973,14 6.5,14 C10.0885603,14 13,14.9704799 13,16.5 C13,18.0295201 10.0885603,19 6.5,19 C2.91143973,19 -5.32907052e-15,18.0295201 -5.32907052e-15,16.5 Z M12.6938847,6.19042024 L21.5528058,14.3325837 C21.8465125,14.627212 21.9999997,14.9992915 21.9999997,15.3954436 C22.0002598,15.7915958 21.8467727,16.1641986 21.5678943,16.444174 L20.4526411,17.5661689 C20.1740229,17.8458827 19.8038328,18 19.4102293,18 C19.0163657,18 18.6461755,17.845621 18.3680776,17.5659073 L10.2581218,8.64033598 L7.38218895,11.5329792 C7.0421759,11.8765378 6.44331589,11.8786311 6.09992092,11.5332409 L3.26509141,8.68167814 C2.91233112,8.32634485 2.91155068,7.74807787 3.26327038,7.39248292 L8.38583879,2.24041191 L12.7006486,0.133008157 C13.0942521,-0.082337422 13.543267,-0.0315755238 13.8242265,0.251801465 L15.5695574,2.00779682 C15.7412549,2.18023028 15.8356885,2.40996712 15.8354284,2.65409522 C15.8351682,2.89796165 15.7402143,3.12717517 15.5679966,3.29908531 L12.6938847,6.19042024 Z" id="Shape"></path>
        </g>
    </g>
</svg>