<?xml version="1.0" encoding="UTF-8"?>
<svg width="24px" height="24px" viewBox="0 0 24 24" version="1.1" xmlns="http://www.w3.org/2000/svg" xmlns:xlink="http://www.w3.org/1999/xlink">
    <!-- Generator: Sketch 52.5 (67469) - http://www.bohemiancoding.com/sketch -->
    <title>ic_polygon_solid</title>
    <desc>Created with Sketch.</desc>
    <g id="Export" stroke="none" stroke-width="1" fill="none" fill-rule="evenodd">
        <g transform="translate(-123.000000, -110.000000)" fill="#FF8737" fill-rule="nonzero" id="ic_polygon_solid">
            <g transform="translate(124.000000, 110.000000)">
                <path d="M11.752919,0.203586472 L20.747081,5.44379141 C21.2129889,5.71524004 21.5,6.2168978 21.5,6.75979506 L21.5,17.2402049 C21.5,17.7831022 21.2129889,18.28476 20.747081,18.5562086 L11.752919,23.7964135 C11.2870111,24.0678622 10.7129889,24.0678622 10.247081,23.7964135 L1.25291902,18.5562086 C0.787011109,18.28476 0.5,17.7831022 0.5,17.2402049 L0.5,6.75979506 C0.5,6.2168978 0.787011109,5.71524004 1.25291902,5.44379141 L10.247081,0.203586472 C10.7129889,-0.0678621575 11.2870111,-0.0678621575 11.752919,0.203586472 Z M10.4592921,12.6156601 L10.4592921,19.3452995 C10.4592921,20.0119661 11.4592921,20.0119661 11.4592921,19.3452995 L11.4592921,12.6156601 L17.7282492,8.51369146 C17.9593208,8.36249436 18.0240718,8.05260442 17.8728747,7.8215329 C17.7216776,7.59046137 17.4117876,7.52571036 17.1807161,7.67690746 L10.9592921,11.7477737 L4.73786818,7.67690746 C4.50679666,7.52571036 4.19690671,7.59046137 4.04570961,7.8215329 C3.89451251,8.05260442 3.95926353,8.36249436 4.19033505,8.51369146 L10.4592921,12.6156601 Z"></path>
            </g>
        </g>
    </g>
</svg>