<?xml version="1.0" encoding="UTF-8"?>
<svg width="16px" height="16px" viewBox="0 0 16 16" version="1.1" xmlns="http://www.w3.org/2000/svg" xmlns:xlink="http://www.w3.org/1999/xlink">
    <!-- Generator: Sketch 50.2 (55047) - http://www.bohemiancoding.com/sketch -->
    <title>ic_send</title>
    <desc>Created with Sketch.</desc>
    <defs></defs>
    <g id="Page-1" stroke="none" stroke-width="1" fill="none" fill-rule="evenodd">
        <g id="00A_Export" transform="translate(-337.000000, -92.000000)" fill="#FFFFFF">
            <g id="ic_send" transform="translate(337.000000, 92.000000)">
                <rect id="Guide" fill-opacity="0" x="0" y="0" width="16" height="16"></rect>
                <path d="M6.50044518,13.50025 L9.50044518,13.50025 L9.50044518,7.00025 C9.50044518,6.72425 9.72444518,6.50025 10.0004452,6.50025 L11.7934452,6.50025 L8.00044518,2.70725 L4.20744518,6.50025 L6.00044518,6.50025 C6.27644518,6.50025 6.50044518,6.72425 6.50044518,7.00025 L6.50044518,13.50025 Z M10.0004452,14.50025 L6.00044518,14.50025 C5.72444518,14.50025 5.50044518,14.27625 5.50044518,14.00025 L5.50044518,7.50025 L3.00044518,7.50025 C2.79844518,7.50025 2.61544518,7.37825 2.53844518,7.19125 C2.46044518,7.00425 2.50344518,6.79025 2.64644518,6.64625 L7.64644518,1.64625 C7.84244518,1.45125 8.15844518,1.45125 8.35444518,1.64625 L13.3544452,6.64625 C13.4974452,6.79025 13.5404452,7.00425 13.4624452,7.19125 C13.3854452,7.37825 13.2024452,7.50025 13.0004452,7.50025 L10.5004452,7.50025 L10.5004452,14.00025 C10.5004452,14.27625 10.2764452,14.50025 10.0004452,14.50025 Z" id="Fill-1"></path>
                <rect id="Overlay" opacity="0" x="0" y="0" width="16" height="16"></rect>
            </g>
        </g>
    </g>
</svg>