<?xml version="1.0" encoding="UTF-8"?>
<svg width="18px" height="18px" viewBox="0 0 18 18" version="1.1" xmlns="http://www.w3.org/2000/svg" xmlns:xlink="http://www.w3.org/1999/xlink">
    <!-- Generator: Sketch 63 (92445) - https://sketch.com -->
    <title>交换 (3)</title>
    <desc>Created with Sketch.</desc>
    <g id="Page-1" stroke="none" stroke-width="1" fill="none" fill-rule="evenodd">
        <g id="32A_New_Token" transform="translate(-1037.000000, -173.000000)" fill="#FFFFFF" fill-rule="nonzero" stroke="#FFFFFF" stroke-width="0.1">
            <g id="Buttons" transform="translate(1016.000000, 161.000000)">
                <g id="交换-(3)" transform="translate(22.000000, 13.000000)">
                    <path d="M1.37247312,7.54059355 L6.15772903,7.54059355 C6.90537634,7.54059355 7.51492473,6.92806882 7.51492473,6.17663656 L7.51492473,1.36395699 C7.51492473,0.612541935 6.90537634,1.72043011e-05 6.15772903,1.72043011e-05 L1.37247312,1.72043011e-05 C0.624825806,1.72043011e-05 0.015297904,0.612524731 0.015297904,1.36395699 L0.015297904,6.17312688 C0.0119397849,6.92793118 0.621470968,7.54059355 1.37249032,7.54059355 L1.37247312,7.54059355 Z M0.836937634,1.36393978 C0.836937634,1.06952258 1.07609462,0.829195699 1.36910108,0.829195699 L6.15435699,0.829195699 C6.44734624,0.829195699 6.6863828,1.06952258 6.6863828,1.36393978 L6.6863828,6.17312688 C6.6863828,6.46768172 6.44734624,6.7080086 6.15447742,6.7080086 L1.37235269,6.7080086 C1.07936344,6.7080086 0.840189247,6.46768172 0.840189247,6.17326452 L0.840189247,1.36393978 L0.836937634,1.36393978 Z M15.8731183,3.47593978 C16.0347699,3.63822796 16.0347699,3.89883871 15.8765075,4.0647914 L13.2127312,6.74167742 C13.1354687,6.82002978 13.0299006,6.86395497 12.9198624,6.86353894 C12.8097824,6.86398741 12.7041649,6.8200597 12.6268731,6.74167742 C12.4652511,6.57998617 12.4652511,6.3179063 12.6268731,6.15621505 L14.5866667,4.1863914 L8.83490753,4.1863914 C8.7247666,4.18621839 8.61921543,4.14225301 8.54151972,4.06418618 C8.46382402,3.98611934 8.42036213,3.88035985 8.42071102,3.77021935 C8.42029802,3.6600372 8.46373159,3.55421575 8.54143424,3.47609675 C8.61913689,3.39797775 8.72472472,3.35397931 8.83490753,3.35380645 L14.5868215,3.35380645 L12.6268559,1.38425806 C12.4652225,1.22256484 12.4652225,0.960471716 12.6268559,0.798778495 C12.7037388,0.720809663 12.8086683,0.676914781 12.9181677,0.676914781 C13.0276672,0.676914781 13.1325967,0.720809663 13.2094796,0.798778495 L15.8731183,3.47578495 L15.8731183,3.47593978 Z M15.9944602,15.1251441 C15.9944602,15.8764215 15.3849118,16.4890839 14.6338925,16.4890839 L9.84863656,16.4890839 C9.10098925,16.4890839 8.49145806,15.8765591 8.49145806,15.1251269 L8.49145806,10.3158194 C8.49145806,9.5644043 9.10098925,8.95186237 9.84863656,8.95186237 L14.6372817,8.95186237 C15.384929,8.95186237 15.9944602,9.5644043 15.9944602,10.3158194 L15.9944602,15.1249892 L15.9944602,15.1251441 Z M15.1693075,15.1251441 L15.1659183,15.1251441 L15.1659183,10.3158022 C15.1659183,10.0213677 14.9268989,9.78104086 14.6340301,9.78104086 L9.84849892,9.78104086 C9.55550968,9.78104086 9.31635269,10.0213849 9.31635269,10.3158022 L9.31635269,15.1249892 C9.31635269,15.4195441 9.55549247,15.659871 9.84849892,15.659871 L14.6371441,15.659871 C14.9301333,15.659871 15.1691699,15.4195441 15.1691699,15.1251097 L15.1693075,15.1251441 Z M3.08652043,15.8121806 C2.97683394,15.8121871 2.87202185,15.7668603 2.79690323,15.6869333 L0.133126882,13.0098925 C0.0554693831,12.9322382 0.011841583,12.8269145 0.011841583,12.7170925 C0.011841583,12.6072705 0.0554693831,12.5019467 0.133126882,12.4242925 L2.79690323,9.74725161 C2.87378549,9.66928811 2.97871129,9.62539662 3.08820645,9.62539662 C3.19770162,9.62539662 3.30262741,9.66928811 3.37950968,9.74725161 C3.54113167,9.90894286 3.54113167,10.1710227 3.37950968,10.332714 L1.41956129,12.3025892 L7.1712,12.3025892 C7.28136185,12.3027576 7.38693316,12.3467352 7.46463556,12.4248249 C7.54233796,12.5029145 7.58579007,12.6087032 7.58541328,12.7188645 C7.58579465,12.8290288 7.54234456,12.9348219 7.46464167,13.0129153 C7.38693877,13.0910087 7.28136485,13.1349886 7.1712,13.135157 L1.41956129,13.135157 L3.37938925,15.1049978 C3.54101124,15.2666891 3.54101124,15.528769 3.37938925,15.6904602 C3.30176372,15.7682726 3.19643152,15.8120997 3.08652043,15.8123183 L3.08652043,15.8121806 Z" id="Shape"></path>
                </g>
            </g>
        </g>
    </g>
</svg>