<?xml version="1.0" encoding="UTF-8"?>
<svg width="197px" height="159px" viewBox="0 0 197 159" version="1.1" xmlns="http://www.w3.org/2000/svg" xmlns:xlink="http://www.w3.org/1999/xlink">
    <!-- Generator: Sketch 52.2 (67145) - http://www.bohemiancoding.com/sketch -->
    <title>V SYSTEMS_Logo_Shape_White</title>
    <desc>Created with Sketch.</desc>
    <g id="Page-1" stroke="none" stroke-width="1" fill="none" fill-rule="evenodd">
        <g id="V-SYSTEMS_Logo_White" fill="#FFFFFF">
            <g id="V-SYSTEMS_Logo_Shape_White">
                <path d="M59.57,1.88 L127.09,109.88 C127.900679,111.177083 127.900679,112.822917 127.09,114.12 L100.09,157.29 C99.7243287,157.873853 99.0839119,158.228409 98.395,158.228409 C97.7060881,158.228409 97.0656713,157.873853 96.7,157.29 L0.31,3.06 C-0.0747728607,2.44437238 -0.0957274424,1.66858091 0.25525171,1.03308019 C0.606230862,0.397579479 1.27402287,0.00217419412 2,0 L56.18,0 C57.5584504,0.000686080936 58.8394214,0.71107705 59.57,1.88 Z M194.79,2.22044605e-16 C195.515977,0.00217419412 196.183769,0.397579479 196.534748,1.03308019 C196.885727,1.66858091 196.864773,2.44437238 196.48,3.06 L160.09,61.29 C159.724329,61.8738528 159.083912,62.2284092 158.395,62.2284092 C157.706088,62.2284092 157.065671,61.8738528 156.7,61.29 L120.31,3.06 C119.925227,2.44437238 119.904273,1.66858091 120.255252,1.03308019 C120.606231,0.397579479 121.274023,0.00217419412 122,2.22044605e-16 L194.79,2.22044605e-16 Z" id="Shape"></path>
            </g>
        </g>
    </g>
</svg>