<?xml version="1.0" encoding="UTF-8"?>
<svg width="320px" height="240px" viewBox="0 0 320 240" version="1.1" xmlns="http://www.w3.org/2000/svg" xmlns:xlink="http://www.w3.org/1999/xlink">
    <!-- Generator: Sketch 50.2 (55047) - http://www.bohemiancoding.com/sketch -->
    <title>Symbol_green</title>
    <desc>Created with Sketch.</desc>
    <defs></defs>
    <g id="Page-1" stroke="none" stroke-width="1" fill="none" fill-rule="evenodd">
        <g id="Symbol" transform="translate(-240.000000, -280.000000)" fill="#23A28C">
            <path d="M476.63456,367.241003 C466.424125,358.086533 460.0003,344.794106 460.0003,330.0014 C460.0003,302.3864 482.3853,280.0014 510.0003,280.0014 C521.593902,280.0014 532.261921,283.952532 540.742037,290.575864 C541.854682,291.440231 542.925837,292.350377 543.95,293.3008 L543.144344,294.667356 L540.0003,300.0014 L533.4003,311.2314 L533.3983,311.2344 C533.392109,311.226691 533.385914,311.218985 533.379715,311.211282 L523.92,327.2208 L504.82,359.5408 L504.811961,359.554395 C506.497264,359.848219 508.230889,360.0014 510.0003,360.0014 C526.5683,360.0014 540.0003,346.5694 540.0003,330.0014 C540.0003,327.9884 539.7983,326.0224 539.4203,324.1214 L559.0303,320.1914 L559.0313,320.1904 C559.6633,323.3634 560.0003,326.6424 560.0003,330.0014 C560.0003,357.6154 537.6143,380.0014 510.0003,380.0014 C504.487504,380.0014 499.183136,379.109266 494.223676,377.461502 L439.77,469.6118 L410,520.0008 L280.000118,300.001 L240,300.001 L240,280 L400,280 L400,300.001 L303.640118,300.001 L410,480.0008 L427.98,449.5718 L339.9995,300.0014 L363.5305,300.0014 L439.7695,429.6114 L431.089583,444.3074 L439.77,429.6118 L476.63456,367.241003 Z M487.152348,349.443747 L487.16,349.4308 L516.008276,300.603718 C514.067338,300.208769 512.058145,300.0014 510.0003,300.0014 C493.4313,300.0014 480.0003,313.4324 480.0003,330.0014 C480.0003,337.418644 482.692165,344.207366 487.152348,349.443747 Z" id="Symbol_green"></path>
        </g>
    </g>
</svg>