<?xml version="1.0" encoding="UTF-8"?>
<svg width="148px" height="24px" viewBox="0 0 148 24" version="1.1" xmlns="http://www.w3.org/2000/svg" xmlns:xlink="http://www.w3.org/1999/xlink">
    <!-- Generator: Sketch 50.2 (55047) - http://www.bohemiancoding.com/sketch -->
    <title>vsys_logo_small</title>
    <desc>Created with Sketch.</desc>
    <defs></defs>
    <g id="Page-1" stroke="none" stroke-width="1" fill="none" fill-rule="evenodd">
        <g id="00A_Export" transform="translate(-30.000000, -20.000000)">
            <g id="vsys_logo_small" transform="translate(30.000000, 20.000000)">
                <path d="M3.35352601,19.2 L0.239537572,19.2 C0.107312832,19.2 0,19.09248 0,18.96 L0,0.24 C0,0.10752 0.107312832,0 0.239537572,0 L3.35352601,0 C3.48575075,0 3.59306358,0.10752 3.59306358,0.24 L3.59306358,18.96 C3.59306358,19.09248 3.48575075,19.2 3.35352601,19.2 Z M21.3188439,19.2 L18.2048555,19.2 C18.0726308,19.2 17.9653179,19.09248 17.9653179,18.96 L17.9653179,0.24 C17.9653179,0.10752 18.0726308,0 18.2048555,0 L21.3188439,0 C21.4510687,0 21.5583815,0.10752 21.5583815,0.24 L21.5583815,18.96 C21.5583815,19.09248 21.4510687,19.2 21.3188439,19.2 Z M9.34196532,14.4 L6.22797688,14.4 C6.09575214,14.4 5.98843931,14.29248 5.98843931,14.16 L5.98843931,3.84 C5.98843931,3.70752 6.09575214,3.6 6.22797688,3.6 L9.34196532,3.6 C9.47419006,3.6 9.58150289,3.70752 9.58150289,3.84 L9.58150289,14.16 C9.58150289,14.29248 9.47419006,14.4 9.34196532,14.4 Z M15.2106358,9.6 L12.336185,9.6 C12.1377281,9.6 11.9768786,9.43884 11.9768786,9.24 L11.9768786,6.36 C11.9768786,6.16116 12.1377281,6 12.336185,6 L15.2106358,6 C15.4090927,6 15.5699422,6.16116 15.5699422,6.36 L15.5699422,9.24 C15.5699422,9.43884 15.4090927,9.6 15.2106358,9.6 Z M9.34196532,22.8 L6.22797688,22.8 C6.09575214,22.8 5.98843931,22.69248 5.98843931,22.56 L5.98843931,17.04 C5.98843931,16.90752 6.09575214,16.8 6.22797688,16.8 L9.34196532,16.8 C9.47419006,16.8 9.58150289,16.90752 9.58150289,17.04 L9.58150289,22.56 C9.58150289,22.69248 9.47419006,22.8 9.34196532,22.8 Z M15.3304046,24 L12.2164162,24 C12.0841914,24 11.9768786,23.89248 11.9768786,23.76 L11.9768786,12.24 C11.9768786,12.10752 12.0841914,12 12.2164162,12 L15.3304046,12 C15.4626294,12 15.5699422,12.10752 15.5699422,12.24 L15.5699422,23.76 C15.5699422,23.89248 15.4626294,24 15.3304046,24 Z" id="vsys_logo" fill="#FF8737"></path>
                <path d="M45.1645697,5.14285714 L40.8220957,17.3653714 C40.2973031,18.4339543 39.6634867,18.9239657 38.5045697,18.9239657 C37.3456527,18.9239657 36.6677956,18.4339543 36.1648694,17.3653714 L31.8227034,5.14285714 L29.9421965,5.14285714 L34.4814677,17.8550743 C35.3123894,19.6139314 36.4057073,20.5714286 38.5045697,20.5714286 C40.5600074,20.5714286 41.6967501,19.5694971 42.5058053,17.8550743 L47.0229022,5.14285714 L45.1645697,5.14285714 Z M64.1319417,6.79032 L64.1319417,5.14285714 L55.4254354,5.14285714 C50.3749225,5.14285714 48.3850839,7.68116571 48.3850839,12.7571657 C48.3850839,17.8550743 50.3964809,20.3711657 55.4254354,20.3711657 L64.1319417,20.3711657 L64.1319417,18.7237029 L55.4254354,18.7237029 C51.7084624,18.7237029 50.2437244,17.00928 50.1122183,13.536 L62.2428116,13.536 L62.2428116,11.9777143 L50.1122183,11.9777143 C50.221858,8.50474286 51.7084624,6.79032 55.4254354,6.79032 L64.1319417,6.79032 Z M82.2982659,6.79032 L82.2982659,5.14285714 L73.5920675,5.14285714 C68.5409387,5.14285714 66.5514081,7.68116571 66.5514081,12.7571657 C66.5514081,17.8550743 68.5631131,20.3711657 73.5920675,20.3711657 L82.2982659,20.3711657 L82.2982659,18.7237029 L73.5920675,18.7237029 C69.8747866,18.7237029 68.4100486,17.00928 68.2788504,13.536 L80.4088277,13.536 L80.4088277,11.9777143 L68.2788504,11.9777143 C68.3878742,8.50474286 69.8747866,6.79032 73.5920675,6.79032 L82.2982659,6.79032 Z" id="VSYS" fill="#181B3A"></path>
                <path d="M94.7095504,20.2901222 L92.0104798,20.2901222 L87.2601156,5.14285714 L89.9807788,5.14285714 L93.3276263,15.8108595 L96.415363,5.14285714 L99.1360262,5.14285714 L102.482874,15.8108595 L105.57061,5.14285714 L108.269681,5.14285714 L103.864798,20.2901222 L101.165727,20.2901222 L97.8188797,9.62211982 L94.7095504,20.2901222 Z M120.318332,9.44900821 L120.318332,20.2901222 L117.727224,20.2901222 L117.727224,14.8803847 C117.727224,14.0148224 117.424931,13.2791054 116.820337,12.6732118 C116.215742,12.0673181 115.481602,11.7643759 114.617895,11.7643759 C114.200437,11.7643759 113.800978,11.8437179 113.419508,12.0024043 C113.038037,12.1610908 112.703356,12.384691 112.415453,12.6732118 C111.810859,13.2791054 111.508566,14.0148224 111.508566,14.8803847 C111.508566,15.731521 111.810859,16.460025 112.415453,17.0659187 C112.703356,17.3688655 113.038037,17.5960722 113.419508,17.7475456 C113.800978,17.899019 114.200437,17.9747546 114.617895,17.9747546 C115.049748,17.9747546 115.438411,17.9026254 115.783894,17.7583651 L116.712374,20.0737327 C116.050199,20.4055316 115.280071,20.5714286 114.401969,20.5714286 C113.610238,20.5714286 112.879697,20.4235639 112.210324,20.1278301 C111.540951,19.8320963 110.961557,19.4245668 110.472123,18.9052294 C109.982689,18.385892 109.601224,17.7800075 109.327717,17.0875576 C109.05421,16.3951077 108.917458,15.6593908 108.917458,14.8803847 C108.917458,14.0869526 109.05421,13.3440227 109.327717,12.6515728 C109.601224,11.959123 109.982689,11.3532384 110.472123,10.833901 C110.961557,10.3145636 111.540951,9.90703414 112.210324,9.61130034 C112.879697,9.31556654 113.610238,9.16770186 114.401969,9.16770186 C115.10733,9.16770186 115.733508,9.27589553 116.280523,9.49228612 C116.827537,9.7086767 117.309766,9.98276733 117.727224,10.3145662 L117.727224,9.44900821 L120.318332,9.44900821 Z M124.420919,20.2901222 L121.829812,20.2901222 L121.829812,5.14285714 L124.420919,5.14285714 L124.420919,20.2901222 Z M128.523507,20.2901222 L125.932399,20.2901222 L125.932399,5.14285714 L128.523507,5.14285714 L128.523507,20.2901222 Z M140.960824,16.1787217 L132.582909,16.1787217 C132.72686,16.5105206 132.935586,16.80625 133.209093,17.0659187 C133.511391,17.3688655 133.849671,17.5960722 134.223944,17.7475456 C134.598217,17.899019 134.994076,17.9747546 135.411535,17.9747546 C136.001735,17.9747546 136.527148,17.8377092 136.987792,17.5636145 L139.686863,18.645562 C139.168638,19.2514556 138.54246,19.7239013 137.808309,20.0629132 C137.074159,20.4019252 136.275242,20.5714286 135.411535,20.5714286 C134.619803,20.5714286 133.878466,20.4235639 133.187501,20.1278301 C132.496535,19.8320963 131.891949,19.4245668 131.373725,18.9052294 C130.855501,18.385892 130.448845,17.7800075 130.153745,17.0875576 C129.858645,16.3951077 129.711098,15.6593908 129.711098,14.8803847 C129.711098,14.0869526 129.858645,13.3440227 130.153745,12.6515728 C130.448845,11.959123 130.855501,11.3532384 131.373725,10.833901 C131.891949,10.3145636 132.496535,9.90703414 133.187501,9.61130034 C133.878466,9.31556654 134.619803,9.16770186 135.411535,9.16770186 C136.203266,9.16770186 136.944603,9.31556654 137.635569,9.61130034 C138.326534,9.90703414 138.93112,10.3145636 139.449344,10.833901 C139.967569,11.3532384 140.374224,11.959123 140.669324,12.6515728 C140.964424,13.3440227 141.111972,14.0869526 141.111972,14.8803847 C141.111972,15.3420179 141.06159,15.7747926 140.960824,16.1787217 Z M135.411535,11.7643759 C134.576618,11.7643759 133.842478,12.0673181 133.209093,12.6732118 C132.935586,12.9473065 132.72686,13.2502488 132.582909,13.5820477 L138.240161,13.5820477 C138.09621,13.2502488 137.887484,12.9473065 137.613976,12.6732118 C137.009382,12.0673181 136.275242,11.7643759 135.411535,11.7643759 Z M148,20.2901222 L145.624818,20.2901222 C145.135384,20.2901222 144.674747,20.1963544 144.242894,20.0088159 C143.81104,19.8212774 143.436773,19.565219 143.12008,19.2406331 C142.803388,18.9160473 142.551477,18.5373694 142.364341,18.1045883 C142.177204,17.6718071 142.083637,17.2101808 142.083637,16.7196955 L142.083637,7.2851132 L144.674745,6.6359447 L144.674745,10.7689842 L146.186225,10.7689842 L146.834002,13.3656582 L144.674745,13.3656582 L144.674745,16.7196955 C144.674745,16.9937902 144.768312,17.2246034 144.955448,17.4121419 C145.142585,17.5996804 145.365706,17.6934482 145.624818,17.6934482 L147.352223,17.6934482 L148,20.2901222 Z" id="Wallet" fill="#181B3A"></path>
            </g>
        </g>
    </g>
</svg>
