<?xml version="1.0" encoding="UTF-8"?>
<svg width="182px" height="32px" viewBox="0 0 182 32" version="1.1" xmlns="http://www.w3.org/2000/svg" xmlns:xlink="http://www.w3.org/1999/xlink">
    <!-- Generator: Sketch 52.2 (67145) - http://www.bohemiancoding.com/sketch -->
    <title>VSYS_Wallet_Logo</title>
    <desc>Created with Sketch.</desc>
    <g id="Page-1" stroke="none" stroke-width="1" fill="none" fill-rule="evenodd">
        <g id="31A_Sign_up_Logo" transform="translate(-634.000000, -50.000000)">
            <g id="VSYS_Wallet_Logo" transform="translate(634.000000, 50.000000)">
                <path d="M12.0029104,0.37836478 L25.6076866,22.1142138 C25.7710323,22.375262 25.7710323,22.706499 25.6076866,22.9675472 L20.1673881,31.6558491 C20.093708,31.7733541 19.9646688,31.8447112 19.8258582,31.8447112 C19.6870476,31.8447112 19.5580084,31.7733541 19.4843284,31.6558491 L0.0624626866,0.615849057 C-0.0150661734,0.491949158 -0.0192883653,0.335815026 0.0514313147,0.20791551 C0.122150995,0.0800159958 0.256706101,0.000437573659 0.402985075,0 L11.3198507,0 C11.5975982,0.000138079182 11.8557043,0.143109847 12.0029104,0.37836478 Z M39.2487313,0 C39.3950103,0.000437573659 39.5295654,0.0800159958 39.600285,0.20791551 C39.6710047,0.335815026 39.6667826,0.491949158 39.5892537,0.615849057 L32.2569403,12.3350943 C32.1832603,12.4525993 32.0542211,12.5239566 31.9154104,12.5239566 C31.7765998,12.5239566 31.6475606,12.4525993 31.5738806,12.3350943 L24.2415672,0.615849057 C24.1640383,0.491949158 24.1598162,0.335815026 24.2305359,0.20791551 C24.3012555,0.0800159958 24.4358106,0.000437573659 24.5820896,0 L39.2487313,0 Z" id="Shape" fill="#FF8837" fill-rule="nonzero"></path>
                <path d="M54.9006716,25.7891824 L48.033806,8.45283019 L51.5176119,8.45283019 L56.4904478,22.0618868 L61.4370896,8.45283019 L64.8181343,8.45283019 L57.9311194,25.791195 L54.9006716,25.7891824 Z M71.5298507,23.436478 C72.6662687,23.436478 73.4930596,23.2446122 74.0102239,22.8608805 C74.5248384,22.4825461 74.8159738,21.8722516 74.7859701,21.234717 C74.796619,20.8595087 74.7061527,20.4883335 74.5240299,20.16 C74.3306252,19.8436243 74.0749411,19.5697515 73.7724627,19.3549686 C73.400905,19.0876267 73.0016754,18.8609178 72.5816418,18.6787421 C72.1141791,18.4774843 71.5741791,18.2762264 70.9797761,18.0749686 C70.3853731,17.8737107 69.7970149,17.6221384 69.2388806,17.3625157 C68.7003178,17.1178632 68.201736,16.7935518 67.7599254,16.4005031 C67.3317662,16.0125471 66.9834072,15.5449633 66.7343284,15.0238994 C66.4567444,14.4149952 66.3230025,13.7505071 66.3434328,13.081761 C66.3434328,11.5146331 66.8861193,10.2842767 67.9714925,9.39069182 C69.0568657,8.49710692 70.5344776,8.05098532 72.4043284,8.05232704 C73.3809663,8.03833008 74.3547975,8.16025588 75.2977612,8.41459119 C75.9909225,8.59594657 76.6594169,8.8608702 77.2885075,9.20352201 L76.3112687,11.7534591 C75.7250821,11.4281193 75.097419,11.1837106 74.4454478,11.0269182 C73.7608376,10.8601921 73.0586202,10.7764025 72.3539552,10.7773585 C71.5036567,10.7773585 70.8400747,10.9524528 70.363209,11.3026415 C69.8924702,11.6435036 69.6245252,12.19767 69.6499254,12.7778616 C69.6396666,13.1225244 69.7217484,13.4636704 69.8876866,13.7660377 C70.0582405,14.0568724 70.2882372,14.3085453 70.5626866,14.5046541 C70.8843372,14.739442 71.2285686,14.9416952 71.5902985,15.1084277 C71.9838805,15.2909015 72.4137314,15.4659958 72.8798507,15.6337107 C73.6979104,15.9329141 74.4286568,16.2368134 75.0720896,16.5454088 C75.6695548,16.824226 76.2190465,17.1957877 76.7001493,17.6462893 C77.1379434,18.0704125 77.4812383,18.5820121 77.7076119,19.147673 C77.9581905,19.8149944 78.077903,20.5242343 78.0602239,21.2367296 C78.0602239,22.8038575 77.5047761,24.0174424 76.3938806,24.8774843 C75.2829851,25.7375261 73.6616418,26.1662054 71.5298507,26.163522 C70.8718124,26.1674602 70.2144174,26.1217115 69.5632836,26.0266667 C69.030824,25.9470416 68.5038926,25.8341152 67.985597,25.6885535 C67.5817697,25.5777799 67.1848155,25.4433759 66.796791,25.2860377 C66.5205422,25.1729055 66.2513943,25.0431928 65.9908209,24.8976101 L66.9176866,22.3215094 C67.5028088,22.626589 68.1145097,22.8778556 68.7452239,23.0722013 C69.6487906,23.337665 70.5883168,23.4605712 71.5298507,23.436478 Z M87.1334328,16.1308176 L91.2902239,8.45283019 L94.798209,8.45283019 L88.6365672,18.9826415 L88.6365672,25.7891824 L85.4791791,25.7891824 L85.4791791,19.032956 L79.2933582,8.45283019 L83.0008209,8.45283019 L87.1334328,16.1308176 Z M101.350746,23.436478 C102.484478,23.436478 103.311269,23.2446122 103.831119,22.8608805 C104.345734,22.4825461 104.636869,21.8722516 104.606866,21.234717 C104.6169,20.8593238 104.525735,20.4881369 104.34291,20.16 C104.150274,19.8436823 103.895258,19.5697903 103.593358,19.3549686 C103.221801,19.0876267 102.822571,18.8609178 102.402537,18.6787421 C101.935075,18.4774843 101.395075,18.2762264 100.790597,18.0749686 C100.186119,17.8737107 99.6098507,17.6221384 99.0517164,17.3625157 C98.5128105,17.1184878 98.0141387,16.7941178 97.5727612,16.4005031 C97.1446,16.012076 96.7956601,15.5446309 96.5451493,15.0238994 C96.2692842,14.4145014 96.136281,13.7502606 96.1562687,13.081761 C96.1562687,11.5146331 96.6989552,10.2842767 97.7843284,9.39069182 C98.8697016,8.49710692 100.347313,8.05098532 102.217164,8.05232704 C103.193802,8.03833008 104.167633,8.16025588 105.110597,8.41459119 C105.803758,8.59594657 106.472253,8.8608702 107.101343,9.20352201 L106.124104,11.7534591 C105.537707,11.4285669 104.910107,11.1841824 104.258284,11.0269182 C103.573673,10.8601921 102.871456,10.7764025 102.166791,10.7773585 C101.313806,10.7773585 100.650224,10.9524528 100.176045,11.3026415 C99.705306,11.6435036 99.437361,12.19767 99.4627612,12.7778616 C99.4525024,13.1225244 99.5345842,13.4636704 99.7005224,13.7660377 C99.8710764,14.0568724 100.101073,14.3085453 100.375522,14.5046541 C100.697173,14.739442 101.041404,14.9416952 101.403134,15.1084277 C101.795373,15.2909015 102.225224,15.4659958 102.692687,15.6337107 C103.510746,15.9329141 104.241493,16.2368134 104.884925,16.5454088 C105.482391,16.824226 106.031882,17.1957877 106.512985,17.6462893 C106.950779,18.0704125 107.294074,18.5820121 107.520448,19.147673 C107.770291,19.8151422 107.889317,20.5243683 107.871045,21.2367296 C107.871045,22.8038575 107.316269,24.0174424 106.206716,24.8774843 C105.097164,25.7375261 103.478507,26.1662054 101.350746,26.163522 C100.692708,26.1674602 100.035313,26.1217115 99.3841791,26.0266667 C98.8517196,25.9470416 98.3247882,25.8341152 97.8064925,25.6885535 C97.4026652,25.5777799 97.005711,25.4433759 96.6176866,25.2860377 C96.3414377,25.1729055 96.0722898,25.0431928 95.8117164,24.8976101 L96.7385821,22.3215094 C97.323524,22.6269756 97.9352612,22.8782569 98.5661194,23.0722013 C99.4696861,23.337665 100.409212,23.4605712 101.350746,23.436478 Z" id="Text" fill="#323233" fill-rule="nonzero"></path>
                <path d="M127.94109,11.0039764 L123.434462,25.1247423 L122.182622,25.1247423 L117,9.02606775 L118.326951,9.02606775 C119.804124,13.8081001 121.306333,18.5901325 122.808542,23.3721649 C124.310751,18.5901325 125.81296,13.8081001 127.340206,9.02606775 L128.56701,9.02606775 L133.073638,23.3721649 L137.555228,9.02606775 L138.88218,9.02606775 L133.699558,25.1247423 L132.472754,25.1247423 C130.970545,20.4178203 129.443299,15.7359352 127.94109,11.0039764 Z M144.630842,12.7815906 C148.236144,12.7815906 149.813463,14.5592047 149.813463,17.8640648 L149.813463,21.569514 C149.813463,24.8743741 146.433493,25.3 144.906247,25.3 C143.328927,25.3 139.84881,24.7992636 139.84881,21.5194404 C139.84881,17.7388807 144.530695,17.5886598 145.657351,17.5886598 C147.284745,17.5886598 148.161033,17.7639175 148.561622,17.839028 C148.561622,15.2852725 147.309782,14.0083947 144.555731,14.0083947 C142.978412,14.0083947 141.676497,14.383947 141.10065,14.5592047 L141.10065,13.3574374 C142.001976,13.0569956 143.253817,12.7815906 144.630842,12.7815906 Z M148.586659,21.569514 L148.586659,18.9656848 C148.261181,18.9156112 147.159561,18.7403535 145.507131,18.7403535 C143.979885,18.7403535 141.075614,19.0908689 141.075614,21.5194404 C141.075614,23.7477172 143.404038,24.1733432 144.906247,24.1733432 C146.383419,24.1733432 148.586659,23.7727541 148.586659,21.569514 Z M154.465513,25.1247423 L153.213672,25.1247423 L153.213672,8.3 L154.465513,8.3 L154.465513,25.1247423 Z M159.719698,25.1247423 L158.467857,25.1247423 L158.467857,8.3 L159.719698,8.3 L159.719698,25.1247423 Z M168.399024,12.7815906 C173.581646,12.7815906 173.631719,18.3147275 173.631719,19.1159057 C173.631719,19.6667158 173.606683,19.7418262 173.606683,19.766863 L164.267949,19.766863 C164.292986,20.192489 164.368096,20.5430044 164.493281,20.8434462 C164.843796,23.1969072 166.496226,24.0982327 168.849687,24.0982327 C170.326859,24.0982327 171.804032,23.7977909 172.805504,23.2469809 L172.805504,24.5238586 C171.678848,25.0496318 170.126565,25.3 168.74954,25.3 C165.99549,25.3 162.991071,24.1232695 162.991071,19.2911635 C162.991071,17.3633284 163.591955,12.7815906 168.399024,12.7815906 Z M168.323914,13.9583211 C165.695048,13.9583211 164.393133,15.7108984 164.267949,18.665243 L172.354842,18.665243 C172.354842,18.0643594 172.204621,13.9583211 168.323914,13.9583211 Z M180.285254,24.1483063 C180.861101,24.1483063 181.3368,24.0481591 181.762426,23.8979381 L181.762426,25.0746686 C181.286727,25.1998527 180.735917,25.3 180.135033,25.3 C179.208671,25.3 176.955357,25.1998527 176.955357,22.1703976 L176.955357,14.0835052 L176.955357,12.9818851 L176.955357,9.55184094 L178.207198,9.55184094 L178.207198,12.9818851 L181.712353,12.9818851 L181.712353,14.0835052 L178.207198,14.0835052 L178.207198,22.120324 C178.207198,23.7727541 179.158597,24.1483063 180.285254,24.1483063 Z" id="Wallet" fill="#323233"></path>
            </g>
        </g>
    </g>
</svg>