<svg id="svg" version="1.1" xmlns="http://www.w3.org/2000/svg" xmlns:xlink="http://www.w3.org/1999/xlink" width="400" height="400" viewBox="0, 0, 400,400"><g id="svgg"><path id="path0" d="M26.080 151.280 C 25.571 151.789,25.339 228.456,25.843 229.767 C 26.096 230.428,64.170 230.661,71.600 230.048 L 74.600 229.800 74.724 228.081 C 74.861 226.173,75.659 225.600,78.177 225.600 C 78.906 225.600,80.149 225.330,80.938 225.000 C 81.728 224.670,83.244 224.400,84.307 224.400 C 86.668 224.400,87.200 223.921,87.200 221.795 C 87.200 219.499,88.291 218.400,90.573 218.400 C 92.513 218.400,92.794 218.056,92.809 215.667 C 92.814 214.860,93.174 213.415,93.609 212.456 C 94.044 211.497,94.400 209.957,94.400 209.033 C 94.400 206.835,95.041 206.068,97.000 205.920 L 98.600 205.800 98.860 202.400 C 99.186 198.140,99.178 182.803,98.848 178.800 L 98.600 175.800 96.898 175.677 C 94.900 175.532,94.000 174.288,94.000 171.669 C 94.000 170.805,93.730 169.451,93.400 168.662 C 93.070 167.872,92.800 166.515,92.800 165.646 C 92.800 163.093,92.551 162.800,90.380 162.800 C 88.049 162.800,87.200 161.890,87.200 159.391 C 87.200 157.279,86.665 156.800,84.307 156.800 C 83.244 156.800,81.728 156.530,80.938 156.200 C 80.149 155.870,78.736 155.600,77.800 155.600 C 75.784 155.600,75.304 155.131,75.130 152.995 L 75.000 151.400 72.400 151.147 C 67.252 150.645,26.598 150.762,26.080 151.280 M113.387 151.294 C 113.281 151.572,113.240 169.440,113.297 191.000 L 113.400 230.200 143.800 230.200 L 174.200 230.200 174.308 222.051 C 174.384 216.378,174.278 213.735,173.959 213.351 C 173.584 212.898,170.377 212.800,155.980 212.800 C 140.583 212.800,138.381 212.724,137.829 212.171 C 137.483 211.826,137.167 211.511,137.126 211.471 C 137.085 211.432,136.950 197.810,136.826 181.200 L 136.600 151.000 125.090 150.894 C 116.097 150.811,113.537 150.898,113.387 151.294 M188.587 151.294 C 188.481 151.572,188.440 169.440,188.497 191.000 L 188.600 230.200 218.200 230.310 C 234.480 230.371,248.205 230.322,248.700 230.203 C 249.974 229.894,250.128 214.601,248.869 213.462 C 248.211 212.867,246.362 212.800,230.678 212.800 L 213.218 212.800 212.509 211.718 C 211.851 210.714,211.786 208.491,211.600 180.818 L 211.400 151.000 200.090 150.894 C 191.257 150.811,188.737 150.898,188.587 151.294 M65.552 168.345 C 69.106 168.701,70.000 169.484,70.000 172.244 L 70.000 174.000 71.724 174.000 C 75.398 174.000,75.537 174.687,75.575 192.920 C 75.601 205.192,75.376 207.101,73.890 207.249 C 73.620 207.276,72.680 207.321,71.800 207.349 C 70.270 207.398,70.195 207.461,70.092 208.800 C 69.762 213.082,69.462 213.202,59.120 213.194 C 54.654 213.191,50.802 213.056,50.560 212.894 C 49.274 212.035,49.200 210.807,49.200 190.408 L 49.200 169.964 50.182 168.982 C 51.250 167.913,58.315 167.621,65.552 168.345 M293.000 170.035 C 292.340 170.243,291.170 170.365,290.400 170.306 L 289.000 170.200 289.000 175.000 L 289.000 179.800 291.400 180.124 C 296.511 180.814,304.618 180.902,305.140 180.273 C 305.477 179.866,305.591 178.181,305.513 174.744 L 305.400 169.800 299.800 169.729 C 296.720 169.690,293.660 169.828,293.000 170.035 M336.200 187.648 C 333.560 187.834,330.140 188.124,328.600 188.293 L 325.800 188.600 325.600 190.493 C 325.326 193.089,324.456 194.000,322.253 194.000 C 320.046 194.000,319.779 194.354,319.379 197.800 C 318.938 201.606,318.971 216.654,319.429 220.600 L 319.800 223.800 321.883 224.010 C 324.886 224.312,326.168 225.389,326.322 227.740 C 326.389 228.763,326.582 229.600,326.751 229.600 C 326.921 229.600,328.746 229.890,330.808 230.244 C 333.810 230.760,336.233 230.841,342.978 230.654 C 347.610 230.525,352.092 230.423,352.937 230.428 C 354.995 230.440,355.600 229.845,355.600 227.813 C 355.600 225.576,356.472 224.800,358.987 224.800 C 361.376 224.800,361.969 224.128,361.990 221.400 C 361.998 220.300,362.274 218.884,362.602 218.254 C 362.931 217.624,363.200 216.331,363.200 215.380 C 363.200 212.429,363.724 211.600,365.590 211.600 L 367.200 211.600 367.200 208.957 C 367.200 206.111,367.154 206.075,364.693 207.020 C 364.085 207.253,363.614 205.507,363.604 202.985 C 363.602 202.316,363.240 201.063,362.800 200.200 C 362.344 199.305,362.000 197.841,362.000 196.792 C 362.000 194.451,361.421 193.745,359.284 193.483 C 356.962 193.197,356.400 192.636,356.400 190.600 C 356.400 188.364,355.737 188.114,349.000 187.803 C 346.140 187.671,343.170 187.507,342.400 187.437 C 341.630 187.367,338.840 187.463,336.200 187.648 M294.314 188.219 C 294.194 188.339,292.953 188.564,291.556 188.719 L 289.018 189.000 288.896 209.307 C 288.785 227.711,288.834 229.638,289.420 229.863 C 289.776 230.000,293.517 230.131,297.733 230.156 L 305.400 230.200 305.504 209.645 C 305.579 194.799,305.482 188.939,305.155 188.545 C 304.702 188.000,294.831 187.703,294.314 188.219 M343.708 194.700 C 344.056 195.085,344.399 196.120,344.470 197.000 L 344.600 198.600 346.800 198.804 C 350.784 199.174,351.012 199.843,350.667 210.149 C 350.378 218.809,350.239 219.197,347.438 219.204 C 346.537 219.207,344.916 219.477,343.836 219.804 C 341.182 220.610,339.469 220.554,337.600 219.600 C 336.738 219.160,335.305 218.800,334.416 218.800 C 331.759 218.800,331.350 218.064,331.013 212.676 C 330.388 202.663,331.165 199.600,334.330 199.600 C 336.708 199.600,337.600 198.786,337.600 196.618 C 337.600 195.706,337.816 194.744,338.080 194.480 C 338.852 193.708,342.957 193.869,343.708 194.700 M264.000 215.515 C 264.000 216.349,263.640 217.737,263.200 218.600 C 262.529 219.917,262.400 220.959,262.400 225.077 C 262.400 230.918,261.839 230.486,269.200 230.316 L 274.200 230.200 274.172 224.400 C 274.122 214.108,274.059 214.000,268.124 214.000 L 264.000 214.000 264.000 215.515 " stroke="none" fill="#f6f6f7" fill-rule="evenodd"></path><path id="path1" d="M0.000 200.000 L 0.000 400.000 200.000 400.000 L 400.000 400.000 400.000 200.000 L 400.000 0.000 200.000 0.000 L 0.000 0.000 0.000 200.000 M82.007 149.942 C 82.962 150.648,83.586 150.823,84.498 150.640 C 86.155 150.309,86.800 150.970,86.800 153.000 C 86.800 154.950,88.155 155.870,90.704 155.650 C 93.567 155.404,94.482 157.334,95.087 164.900 L 95.271 167.200 96.991 167.200 C 101.020 167.200,101.117 167.758,101.125 191.000 C 101.133 213.507,101.046 213.979,96.856 214.016 L 95.000 214.033 96.739 215.605 L 98.478 217.178 96.905 217.430 C 95.109 217.717,94.400 218.978,94.400 221.884 C 94.400 225.056,93.285 225.590,85.272 226.260 L 82.744 226.471 82.841 227.935 C 82.970 229.889,82.531 231.095,81.473 231.700 C 79.980 232.555,26.273 232.671,24.978 231.822 L 24.000 231.182 24.000 190.613 L 24.000 150.045 24.900 149.399 C 25.712 148.815,28.485 148.764,53.267 148.876 L 80.734 149.000 82.007 149.942 M137.656 149.565 L 138.600 150.329 138.800 178.265 L 139.000 206.200 156.373 206.304 C 175.828 206.421,174.912 206.275,175.416 209.336 C 175.788 211.594,176.213 212.000,178.203 212.000 C 181.022 212.000,181.200 212.576,181.200 221.697 C 181.200 230.711,181.053 231.191,178.277 231.214 C 177.355 231.222,176.150 231.486,175.600 231.800 C 173.815 232.820,113.614 232.664,112.344 231.635 L 111.400 230.871 111.400 190.600 L 111.400 150.329 112.344 149.565 C 113.798 148.387,136.201 148.387,137.656 149.565 M213.033 149.776 C 213.509 150.428,213.601 154.885,213.605 177.576 C 213.608 192.439,213.719 205.005,213.852 205.500 L 214.093 206.400 231.547 206.413 C 251.094 206.427,250.400 206.325,250.400 209.173 C 250.400 212.145,250.382 212.141,260.923 211.834 C 275.457 211.410,274.721 211.386,275.718 212.320 C 276.272 212.840,277.268 213.194,278.400 213.273 L 280.200 213.400 280.670 216.800 C 282.021 226.578,281.287 231.200,278.384 231.200 C 277.563 231.200,276.376 231.469,275.746 231.798 C 273.907 232.757,263.523 232.550,254.166 231.368 C 252.674 231.179,251.801 231.283,250.886 231.755 C 248.730 232.871,188.323 232.723,187.200 231.600 C 186.201 230.601,185.909 151.172,186.900 149.922 C 187.730 148.875,188.172 148.843,200.533 148.923 C 211.835 148.996,212.495 149.041,213.033 149.776 M306.344 168.300 C 307.481 169.256,307.842 181.123,306.766 182.203 C 306.254 182.717,306.201 183.199,306.490 184.719 C 307.361 189.311,307.521 194.055,307.395 211.639 C 307.247 232.345,307.291 231.872,305.477 232.211 C 302.329 232.800,288.057 232.230,287.313 231.486 C 286.125 230.297,286.012 189.455,287.190 187.021 C 288.185 184.966,288.217 183.503,287.300 182.104 C 286.078 180.240,286.271 169.397,287.544 168.365 C 288.924 167.248,305.026 167.192,306.344 168.300 M51.200 190.632 L 51.200 211.265 58.300 211.132 C 66.629 210.977,66.984 210.851,67.374 207.914 C 67.522 206.799,67.966 205.634,68.416 205.184 C 68.854 204.746,69.200 203.858,69.200 203.174 C 69.200 200.927,69.838 200.285,71.781 200.576 L 73.490 200.833 73.741 199.316 C 74.063 197.366,74.077 183.066,73.757 182.233 C 73.589 181.794,72.997 181.600,71.827 181.600 C 69.605 181.600,68.400 180.392,68.400 178.163 C 68.400 175.796,67.523 174.800,65.439 174.800 C 63.255 174.800,62.400 173.919,62.400 171.669 L 62.400 170.000 56.800 170.000 L 51.200 170.000 51.200 190.632 M349.966 181.182 C 351.063 181.769,351.600 182.866,351.600 184.520 L 351.600 185.893 354.300 186.145 C 363.151 186.974,363.193 186.993,363.213 190.162 C 363.229 192.787,363.849 193.598,365.844 193.606 C 369.030 193.619,369.351 195.041,369.380 209.258 C 369.398 218.363,369.342 219.180,368.648 219.947 C 368.092 220.561,367.962 221.110,368.149 222.046 C 368.489 223.746,367.852 224.399,365.851 224.403 C 363.897 224.406,362.800 225.827,362.800 228.356 C 362.800 231.290,362.544 231.395,353.000 232.370 C 351.020 232.572,349.355 232.751,349.300 232.769 C 349.245 232.786,349.200 233.498,349.200 234.351 C 349.200 236.342,348.792 236.627,345.400 237.003 C 340.769 237.517,336.255 237.008,334.477 235.772 C 334.409 235.725,334.614 235.061,334.934 234.297 L 335.514 232.908 332.857 232.657 C 331.396 232.519,329.293 232.404,328.185 232.403 C 326.964 232.401,325.550 232.085,324.600 231.600 C 323.737 231.160,322.449 230.800,321.738 230.800 C 320.213 230.800,319.200 229.624,319.200 227.855 C 319.200 227.205,318.890 226.462,318.500 226.177 C 317.982 225.799,317.748 224.902,317.600 222.733 L 317.400 219.800 315.551 219.680 C 312.112 219.457,311.982 219.088,311.884 209.348 C 311.806 201.553,311.855 200.903,312.600 199.838 C 313.040 199.209,313.592 198.367,313.827 197.966 C 314.238 197.267,314.282 197.269,314.923 198.019 C 316.236 199.552,317.250 199.045,317.162 196.900 C 317.119 195.855,317.380 194.303,317.742 193.451 C 318.104 192.599,318.400 191.127,318.400 190.180 C 318.400 187.937,319.155 187.200,321.455 187.200 C 322.444 187.200,323.610 187.009,324.047 186.775 C 324.483 186.541,326.092 186.245,327.620 186.117 L 330.400 185.884 330.400 183.991 C 330.400 181.476,330.992 181.056,334.959 180.752 C 339.593 180.398,349.005 180.667,349.966 181.182 M338.524 201.300 C 337.974 202.149,337.262 210.924,337.678 211.724 C 337.885 212.122,338.177 213.562,338.327 214.924 L 338.600 217.400 340.368 217.526 C 343.443 217.746,343.939 217.454,344.078 215.339 C 344.211 213.318,344.462 213.077,347.000 212.539 C 348.926 212.131,349.010 211.771,348.600 205.700 C 348.307 201.362,348.104 201.033,346.382 202.100 C 345.763 202.484,345.507 202.489,345.280 202.125 C 344.516 200.899,339.203 200.250,338.524 201.300 " stroke="none" fill="#24242b" fill-rule="evenodd"></path><path id="path2" d="M25.433 150.875 C 24.382 152.375,24.477 229.584,25.531 230.538 C 26.931 231.805,78.751 231.302,80.132 230.008 C 80.314 229.837,80.564 228.948,80.686 228.033 C 80.967 225.943,81.967 225.200,84.503 225.200 C 87.269 225.200,88.323 224.375,88.643 221.960 C 88.879 220.180,88.999 219.999,89.952 219.995 C 92.688 219.980,94.000 218.533,94.000 215.527 C 94.000 213.085,94.853 212.000,96.774 212.000 C 98.937 212.000,99.049 211.709,99.553 204.800 C 100.344 193.958,100.080 180.757,98.897 172.000 L 98.600 169.800 96.809 169.600 C 94.680 169.362,94.015 168.402,94.006 165.554 C 93.998 163.034,92.965 161.776,90.618 161.424 L 88.821 161.154 88.559 159.178 C 88.247 156.823,86.697 155.548,84.553 155.881 C 82.291 156.233,80.800 155.087,80.800 152.997 C 80.800 150.308,81.228 150.348,50.733 150.140 L 26.066 149.971 25.433 150.875 M113.062 150.731 C 111.984 151.923,112.052 229.561,113.131 230.538 C 114.216 231.519,173.312 231.557,174.711 230.577 C 175.580 229.969,175.600 229.772,175.600 221.847 C 175.600 210.767,178.013 212.000,156.323 212.000 C 140.605 212.000,138.844 211.935,138.349 211.339 C 137.897 210.795,137.777 205.430,137.671 181.039 C 137.556 154.693,137.471 151.322,136.909 150.700 C 135.918 149.604,114.056 149.633,113.062 150.731 M188.080 150.480 C 187.384 151.176,187.384 230.024,188.080 230.720 C 189.073 231.713,249.023 231.377,250.027 230.373 C 251.207 229.193,251.019 214.147,249.808 212.809 C 249.095 212.020,248.634 212.000,231.587 212.000 C 218.080 212.000,214.005 211.886,213.690 211.500 C 212.878 210.504,212.725 206.137,212.549 178.822 C 212.425 159.717,212.233 150.881,211.935 150.522 C 211.334 149.798,188.802 149.758,188.080 150.480 M72.400 151.147 L 75.000 151.400 75.130 152.995 C 75.304 155.131,75.784 155.600,77.800 155.600 C 78.736 155.600,80.149 155.870,80.938 156.200 C 81.728 156.530,83.244 156.800,84.307 156.800 C 86.665 156.800,87.200 157.279,87.200 159.391 C 87.200 161.890,88.049 162.800,90.380 162.800 C 92.551 162.800,92.800 163.093,92.800 165.646 C 92.800 166.515,93.070 167.872,93.400 168.662 C 93.730 169.451,94.000 170.805,94.000 171.669 C 94.000 174.288,94.900 175.532,96.898 175.677 L 98.600 175.800 98.848 178.800 C 99.178 182.803,99.186 198.140,98.860 202.400 L 98.600 205.800 97.000 205.920 C 95.041 206.068,94.400 206.835,94.400 209.033 C 94.400 209.957,94.044 211.497,93.609 212.456 C 93.174 213.415,92.814 214.860,92.809 215.667 C 92.794 218.056,92.513 218.400,90.573 218.400 C 88.291 218.400,87.200 219.499,87.200 221.795 C 87.200 223.921,86.668 224.400,84.307 224.400 C 83.244 224.400,81.728 224.670,80.938 225.000 C 80.149 225.330,78.906 225.600,78.177 225.600 C 75.659 225.600,74.861 226.173,74.724 228.081 L 74.600 229.800 71.600 230.048 C 64.170 230.661,26.096 230.428,25.843 229.767 C 25.339 228.456,25.571 151.789,26.080 151.280 C 26.598 150.762,67.252 150.645,72.400 151.147 M136.826 181.200 C 136.950 197.810,137.085 211.432,137.126 211.471 C 137.167 211.511,137.483 211.826,137.829 212.171 C 138.381 212.724,140.583 212.800,155.980 212.800 C 170.377 212.800,173.584 212.898,173.959 213.351 C 174.278 213.735,174.384 216.378,174.308 222.051 L 174.200 230.200 143.800 230.200 L 113.400 230.200 113.297 191.000 C 113.240 169.440,113.281 151.572,113.387 151.294 C 113.537 150.898,116.097 150.811,125.090 150.894 L 136.600 151.000 136.826 181.200 M211.600 180.818 C 211.786 208.491,211.851 210.714,212.509 211.718 L 213.218 212.800 230.678 212.800 C 246.362 212.800,248.211 212.867,248.869 213.462 C 250.128 214.601,249.974 229.894,248.700 230.203 C 248.205 230.322,234.480 230.371,218.200 230.310 L 188.600 230.200 188.497 191.000 C 188.440 169.440,188.481 151.572,188.587 151.294 C 188.737 150.898,191.257 150.811,200.090 150.894 L 211.400 151.000 211.600 180.818 M50.182 168.982 L 49.200 169.964 49.200 190.408 C 49.200 210.807,49.274 212.035,50.560 212.894 C 50.802 213.056,54.654 213.191,59.120 213.194 C 69.462 213.202,69.762 213.082,70.092 208.800 C 70.195 207.461,70.270 207.398,71.800 207.349 C 72.680 207.321,73.620 207.276,73.890 207.249 C 75.376 207.101,75.601 205.192,75.575 192.920 C 75.537 174.687,75.398 174.000,71.724 174.000 L 70.000 174.000 70.000 172.244 C 70.000 168.568,68.466 168.075,56.882 168.025 C 51.328 168.001,51.135 168.028,50.182 168.982 M65.296 169.162 C 67.703 169.172,68.400 169.755,68.400 171.760 C 68.400 174.293,69.503 175.524,71.912 175.679 L 73.800 175.800 74.200 178.400 C 74.665 181.419,74.737 203.271,74.288 204.900 C 74.010 205.910,73.824 206.000,72.015 206.000 C 69.630 206.000,68.800 206.897,68.800 209.475 C 68.800 211.984,68.309 212.131,59.284 212.327 C 48.758 212.557,50.000 215.455,50.000 190.670 C 50.000 165.950,49.055 168.652,57.593 168.944 C 61.007 169.060,64.473 169.158,65.296 169.162 M291.212 169.098 C 288.027 169.316,288.000 169.366,288.000 174.973 C 288.000 181.745,287.350 181.340,299.037 181.843 L 304.675 182.086 305.537 180.989 C 306.750 179.447,306.851 170.532,305.669 169.462 C 304.943 168.805,298.025 168.631,291.212 169.098 M305.513 174.744 C 305.591 178.181,305.477 179.866,305.140 180.273 C 304.618 180.902,296.511 180.814,291.400 180.124 L 289.000 179.800 289.000 175.000 L 289.000 170.200 290.400 170.306 C 291.170 170.365,292.340 170.243,293.000 170.035 C 293.660 169.828,296.720 169.690,299.800 169.729 L 305.400 169.800 305.513 174.744 M338.501 182.665 C 338.159 182.802,338.079 183.353,338.247 184.402 L 338.492 185.937 336.546 186.170 C 335.476 186.298,333.599 186.582,332.376 186.801 C 331.153 187.020,329.353 187.201,328.376 187.201 C 325.517 187.204,324.073 188.332,323.923 190.680 L 323.800 192.600 321.880 192.723 C 319.489 192.876,318.404 194.307,318.401 197.313 C 318.401 198.365,318.130 199.872,317.800 200.662 C 317.470 201.451,317.200 203.066,317.200 204.249 L 317.200 206.400 315.650 206.400 L 314.099 206.400 313.905 208.700 C 313.640 211.835,313.801 212.132,315.633 211.886 C 317.421 211.646,317.600 211.928,317.600 214.984 C 317.600 216.149,317.870 217.749,318.200 218.538 C 318.530 219.328,318.800 220.852,318.800 221.925 C 318.800 224.299,319.614 225.200,321.758 225.200 C 324.135 225.200,324.800 225.758,324.800 227.752 C 324.800 230.655,324.839 230.669,335.600 231.594 C 341.300 232.083,354.526 231.410,355.878 230.562 C 356.544 230.143,356.785 229.552,356.878 228.105 L 357.000 226.200 359.148 225.984 C 361.874 225.711,362.800 224.712,362.800 222.045 C 362.800 219.485,363.626 218.400,365.574 218.400 C 368.061 218.400,368.145 218.104,368.166 209.270 C 368.188 200.191,368.035 199.600,365.666 199.600 C 363.703 199.600,363.200 199.034,363.199 196.820 C 363.198 195.755,362.890 194.496,362.457 193.786 C 362.050 193.119,361.592 191.743,361.440 190.729 C 361.167 188.906,361.143 188.882,359.367 188.616 C 358.378 188.468,356.952 188.088,356.198 187.773 C 355.443 187.458,354.039 187.200,353.076 187.200 C 352.114 187.200,350.444 186.932,349.364 186.604 C 348.284 186.277,346.658 186.007,345.751 186.004 C 344.146 186.000,344.096 185.959,343.854 184.447 C 343.668 183.286,343.378 182.834,342.703 182.653 C 341.644 182.369,339.216 182.376,338.501 182.665 M292.200 187.289 C 290.660 187.492,289.130 187.800,288.800 187.973 C 287.903 188.443,287.688 229.643,288.579 230.382 C 289.673 231.290,304.627 231.481,305.601 230.599 C 306.876 229.445,306.847 189.477,305.571 187.854 C 304.651 186.684,298.699 186.433,292.200 187.289 M349.000 187.803 C 355.737 188.114,356.400 188.364,356.400 190.600 C 356.400 192.636,356.962 193.197,359.284 193.483 C 361.421 193.745,362.000 194.451,362.000 196.792 C 362.000 197.841,362.344 199.305,362.800 200.200 C 363.240 201.063,363.602 202.316,363.604 202.985 C 363.614 205.507,364.085 207.253,364.693 207.020 C 367.154 206.075,367.200 206.111,367.200 208.957 L 367.200 211.600 365.590 211.600 C 363.724 211.600,363.200 212.429,363.200 215.380 C 363.200 216.331,362.931 217.624,362.602 218.254 C 362.274 218.884,361.998 220.300,361.990 221.400 C 361.969 224.128,361.376 224.800,358.987 224.800 C 356.472 224.800,355.600 225.576,355.600 227.813 C 355.600 229.845,354.995 230.440,352.937 230.428 C 352.092 230.423,347.610 230.525,342.978 230.654 C 336.233 230.841,333.810 230.760,330.808 230.244 C 328.746 229.890,326.921 229.600,326.751 229.600 C 326.582 229.600,326.389 228.763,326.322 227.740 C 326.168 225.389,324.886 224.312,321.883 224.010 L 319.800 223.800 319.429 220.600 C 318.971 216.654,318.938 201.606,319.379 197.800 C 319.779 194.354,320.046 194.000,322.253 194.000 C 324.456 194.000,325.326 193.089,325.600 190.493 L 325.800 188.600 328.600 188.293 C 333.327 187.775,340.924 187.304,342.400 187.437 C 343.170 187.507,346.140 187.671,349.000 187.803 M305.155 188.545 C 305.482 188.939,305.579 194.799,305.504 209.645 L 305.400 230.200 297.733 230.156 C 293.517 230.131,289.776 230.000,289.420 229.863 C 288.834 229.638,288.785 227.711,288.896 209.307 L 289.018 189.000 291.556 188.719 C 292.953 188.564,294.194 188.339,294.314 188.219 C 294.831 187.703,304.702 188.000,305.155 188.545 M338.080 194.480 C 337.816 194.744,337.600 195.706,337.600 196.618 C 337.600 198.786,336.708 199.600,334.330 199.600 C 331.165 199.600,330.388 202.663,331.013 212.676 C 331.350 218.064,331.759 218.800,334.416 218.800 C 335.305 218.800,336.738 219.160,337.600 219.600 C 339.469 220.554,341.182 220.610,343.836 219.804 C 344.916 219.477,346.537 219.207,347.438 219.204 C 350.239 219.197,350.378 218.809,350.667 210.149 C 351.012 199.843,350.784 199.174,346.800 198.804 L 344.600 198.600 344.470 197.000 C 344.253 194.308,339.949 192.611,338.080 194.480 M343.738 199.400 C 344.528 199.730,345.984 200.000,346.973 200.000 C 348.374 200.000,348.868 200.180,349.209 200.816 C 349.763 201.852,349.878 211.739,349.377 215.200 L 349.000 217.800 346.800 218.053 C 345.590 218.192,344.093 218.507,343.474 218.753 C 339.895 220.173,336.279 218.587,336.079 215.509 L 335.958 213.644 334.279 213.522 C 332.089 213.363,331.788 212.262,332.187 205.874 L 332.479 201.200 334.139 201.189 C 335.351 201.181,336.225 200.856,337.371 199.989 C 339.179 198.621,341.385 198.417,343.738 199.400 M262.700 213.429 C 261.794 213.920,261.600 214.297,261.600 215.563 C 261.600 219.025,261.283 219.600,259.378 219.600 L 257.657 219.600 257.528 223.100 C 257.458 225.025,257.455 227.365,257.523 228.300 L 257.646 230.000 259.323 230.014 C 260.245 230.022,261.450 230.286,262.000 230.600 C 263.493 231.453,273.486 231.436,274.711 230.577 C 276.295 229.468,275.715 214.595,274.037 213.313 C 273.065 212.570,264.115 212.661,262.700 213.429 M272.877 214.500 C 273.796 215.230,274.140 217.864,274.172 224.400 L 274.200 230.200 269.200 230.316 C 261.839 230.486,262.400 230.918,262.400 225.077 C 262.400 220.959,262.529 219.917,263.200 218.600 C 263.640 217.737,264.000 216.349,264.000 215.515 L 264.000 214.000 268.124 214.000 C 270.820 214.000,272.465 214.173,272.877 214.500 " stroke="none" fill="#949494" fill-rule="evenodd"></path><path id="path3" d="M24.900 149.399 L 24.000 150.045 24.000 190.613 L 24.000 231.182 24.978 231.822 C 26.273 232.671,79.980 232.555,81.473 231.700 C 82.531 231.095,82.970 229.889,82.841 227.935 L 82.744 226.471 85.272 226.260 C 93.285 225.590,94.400 225.056,94.400 221.884 C 94.400 218.978,95.109 217.717,96.905 217.430 L 98.478 217.178 96.739 215.605 L 95.000 214.033 96.856 214.016 C 101.046 213.979,101.133 213.507,101.125 191.000 C 101.117 167.758,101.020 167.200,96.991 167.200 L 95.271 167.200 95.087 164.900 C 94.482 157.334,93.567 155.404,90.704 155.650 C 88.155 155.870,86.800 154.950,86.800 153.000 C 86.800 150.970,86.155 150.309,84.498 150.640 C 83.586 150.823,82.962 150.648,82.007 149.942 L 80.734 149.000 53.267 148.876 C 28.485 148.764,25.712 148.815,24.900 149.399 M112.344 149.565 L 111.400 150.329 111.400 190.600 L 111.400 230.871 112.344 231.635 C 113.614 232.664,173.815 232.820,175.600 231.800 C 176.150 231.486,177.355 231.222,178.277 231.214 C 181.053 231.191,181.200 230.711,181.200 221.697 C 181.200 212.576,181.022 212.000,178.203 212.000 C 176.213 212.000,175.788 211.594,175.416 209.336 C 174.912 206.275,175.828 206.421,156.373 206.304 L 139.000 206.200 138.800 178.265 L 138.600 150.329 137.656 149.565 C 136.201 148.387,113.798 148.387,112.344 149.565 M188.000 149.069 C 186.372 149.674,186.400 148.944,186.400 190.676 C 186.400 230.267,186.411 230.811,187.200 231.600 C 188.323 232.723,248.730 232.871,250.886 231.755 C 251.801 231.283,252.674 231.179,254.166 231.368 C 263.523 232.550,273.907 232.757,275.746 231.798 C 276.376 231.469,277.563 231.200,278.384 231.200 C 281.287 231.200,282.021 226.578,280.670 216.800 L 280.200 213.400 278.400 213.273 C 277.268 213.194,276.272 212.840,275.718 212.320 C 274.721 211.386,275.457 211.410,260.923 211.834 C 250.382 212.141,250.400 212.145,250.400 209.173 C 250.400 206.325,251.094 206.427,231.547 206.413 L 214.093 206.400 213.852 205.500 C 213.719 205.005,213.608 192.439,213.605 177.576 C 213.601 154.885,213.509 150.428,213.033 149.776 C 212.471 149.008,189.882 148.369,188.000 149.069 M77.733 149.982 C 80.441 150.038,81.537 150.904,81.678 153.099 L 81.800 155.000 84.316 155.241 C 86.295 155.430,87.069 155.708,87.938 156.541 C 88.775 157.342,89.452 157.600,90.722 157.600 L 92.400 157.600 92.400 159.274 C 92.400 160.430,92.663 161.228,93.249 161.853 C 93.842 162.484,94.178 163.519,94.362 165.278 C 94.700 168.524,94.903 168.800,96.956 168.800 C 99.829 168.800,99.945 169.431,100.259 186.800 C 100.665 209.342,100.192 212.800,96.698 212.800 C 94.882 212.800,94.400 213.412,94.400 215.718 C 94.400 217.561,93.440 220.000,92.714 220.000 C 92.541 220.000,92.400 220.810,92.400 221.800 L 92.400 223.600 90.600 223.600 C 89.610 223.600,88.800 223.775,88.800 223.990 C 88.800 224.666,86.504 225.600,84.839 225.600 C 82.092 225.600,81.200 226.251,81.200 228.255 C 81.200 231.558,82.746 231.381,52.552 231.534 C 26.153 231.668,26.065 231.665,25.234 230.834 C 24.400 230.000,24.400 229.997,24.400 190.974 C 24.400 151.702,24.429 150.811,25.760 149.898 C 26.088 149.672,65.913 149.737,77.733 149.982 M137.024 150.168 C 137.775 150.717,137.809 151.650,138.073 179.068 C 138.223 194.650,138.357 208.154,138.371 209.075 C 138.406 211.440,137.656 211.350,156.407 211.238 L 173.464 211.137 174.732 212.204 L 176.000 213.271 176.000 221.813 C 176.000 230.186,175.982 230.367,175.111 230.977 C 174.325 231.528,170.681 231.600,143.734 231.600 L 113.245 231.600 112.623 230.711 C 111.522 229.140,111.694 151.506,112.800 150.400 C 113.849 149.351,135.621 149.143,137.024 150.168 M212.125 150.317 C 212.706 150.959,212.791 153.894,212.947 178.617 C 213.042 193.788,213.273 207.364,213.460 208.788 L 213.800 211.375 230.848 211.250 C 253.116 211.087,251.200 210.081,251.200 221.945 L 251.200 229.942 250.146 230.771 C 248.666 231.935,189.210 232.095,187.931 230.938 C 186.851 229.961,186.784 151.523,187.862 150.331 C 188.869 149.219,211.119 149.205,212.125 150.317 M287.544 168.365 C 286.271 169.397,286.078 180.240,287.300 182.104 C 288.217 183.503,288.185 184.966,287.190 187.021 C 286.012 189.455,286.125 230.297,287.313 231.486 C 288.057 232.230,302.329 232.800,305.477 232.211 C 307.291 231.872,307.247 232.345,307.395 211.639 C 307.521 194.055,307.361 189.311,306.490 184.719 C 306.201 183.199,306.254 182.717,306.766 182.203 C 307.842 181.123,307.481 169.256,306.344 168.300 C 305.026 167.192,288.924 167.248,287.544 168.365 M306.030 169.230 C 307.242 170.442,307.060 180.204,305.800 181.613 C 304.638 182.912,289.442 182.586,288.351 181.239 C 287.073 179.660,286.916 170.265,288.151 169.241 C 289.476 168.141,304.932 168.132,306.030 169.230 M50.900 169.655 C 50.190 170.372,50.171 210.811,50.880 211.520 C 51.402 212.042,61.560 212.139,65.600 211.660 L 67.800 211.400 68.255 209.095 C 68.852 206.074,69.251 205.664,71.733 205.520 L 73.800 205.400 74.114 202.000 C 74.454 198.322,74.228 181.921,73.791 178.500 L 73.523 176.400 71.778 176.400 C 69.466 176.400,67.800 174.516,67.800 171.900 L 67.800 170.200 65.400 169.874 C 60.778 169.247,51.444 169.106,50.900 169.655 M62.400 171.669 C 62.400 173.919,63.255 174.800,65.439 174.800 C 67.523 174.800,68.400 175.796,68.400 178.163 C 68.400 180.392,69.605 181.600,71.827 181.600 C 72.997 181.600,73.589 181.794,73.757 182.233 C 74.077 183.066,74.063 197.366,73.741 199.316 L 73.490 200.833 71.781 200.576 C 69.838 200.285,69.200 200.927,69.200 203.174 C 69.200 203.858,68.854 204.746,68.416 205.184 C 67.966 205.634,67.522 206.799,67.374 207.914 C 66.984 210.851,66.629 210.977,58.300 211.132 L 51.200 211.265 51.200 190.632 L 51.200 170.000 56.800 170.000 L 62.400 170.000 62.400 171.669 M334.959 180.752 C 330.992 181.056,330.400 181.476,330.400 183.991 L 330.400 185.884 327.620 186.117 C 326.092 186.245,324.483 186.541,324.047 186.775 C 323.610 187.009,322.444 187.200,321.455 187.200 C 319.155 187.200,318.400 187.937,318.400 190.180 C 318.400 191.127,318.104 192.599,317.742 193.451 C 317.380 194.303,317.119 195.855,317.162 196.900 C 317.250 199.045,316.236 199.552,314.923 198.019 C 314.282 197.269,314.238 197.267,313.827 197.966 C 313.592 198.367,313.040 199.209,312.600 199.838 C 311.855 200.903,311.806 201.553,311.884 209.348 C 311.982 219.088,312.112 219.457,315.551 219.680 L 317.400 219.800 317.600 222.733 C 317.748 224.902,317.982 225.799,318.500 226.177 C 318.890 226.462,319.200 227.205,319.200 227.855 C 319.200 229.624,320.213 230.800,321.738 230.800 C 322.449 230.800,323.737 231.160,324.600 231.600 C 325.550 232.085,326.964 232.401,328.185 232.403 C 329.293 232.404,331.396 232.519,332.857 232.657 L 335.514 232.908 334.934 234.297 C 334.614 235.061,334.409 235.725,334.477 235.772 C 336.255 237.008,340.769 237.517,345.400 237.003 C 348.792 236.627,349.200 236.342,349.200 234.351 C 349.200 233.498,349.245 232.786,349.300 232.769 C 349.355 232.751,351.020 232.572,353.000 232.370 C 362.544 231.395,362.800 231.290,362.800 228.356 C 362.800 225.827,363.897 224.406,365.851 224.403 C 367.852 224.399,368.489 223.746,368.149 222.046 C 367.962 221.110,368.092 220.561,368.648 219.947 C 369.342 219.180,369.398 218.363,369.380 209.258 C 369.351 195.041,369.030 193.619,365.844 193.606 C 363.849 193.598,363.229 192.787,363.213 190.162 C 363.193 186.993,363.151 186.974,354.300 186.145 L 351.600 185.893 351.600 184.520 C 351.600 182.866,351.063 181.769,349.966 181.182 C 349.005 180.667,339.593 180.398,334.959 180.752 M349.121 184.068 C 349.259 186.208,350.202 186.800,353.473 186.800 C 354.437 186.800,355.872 187.070,356.662 187.400 C 357.451 187.730,358.760 188.000,359.569 188.000 C 361.426 188.000,362.000 188.576,362.000 190.439 C 362.000 191.282,362.428 192.667,362.995 193.659 C 363.622 194.756,363.992 196.029,363.995 197.100 L 364.000 198.800 365.754 198.800 C 368.669 198.800,368.968 199.909,368.695 209.710 C 368.443 218.743,368.333 219.069,365.457 219.279 L 363.800 219.400 363.588 221.600 C 363.235 225.252,362.192 226.400,359.226 226.400 L 357.600 226.400 357.600 228.206 C 357.600 231.048,356.738 231.382,347.888 231.969 C 340.750 232.443,339.309 232.396,327.920 231.322 C 325.182 231.064,324.501 230.433,324.328 227.999 L 324.200 226.200 322.052 225.984 C 319.361 225.714,318.400 224.703,318.400 222.143 C 318.400 219.029,317.556 217.670,315.531 217.524 L 313.800 217.400 313.720 215.400 C 313.676 214.300,313.531 211.870,313.397 210.000 C 313.263 208.130,313.299 205.340,313.477 203.800 L 313.800 201.000 315.400 200.880 C 317.468 200.724,318.000 199.967,318.000 197.179 C 318.000 195.420,318.224 194.581,319.000 193.438 C 319.650 192.481,320.000 191.410,320.000 190.382 C 320.000 188.800,320.000 188.800,321.616 188.800 C 322.641 188.800,323.657 188.486,324.392 187.943 C 325.218 187.332,326.448 187.001,328.676 186.791 C 332.732 186.409,333.261 186.181,332.951 184.945 C 332.413 182.804,332.512 182.593,334.000 182.706 C 334.770 182.765,335.940 182.642,336.600 182.433 C 337.260 182.224,340.320 182.086,343.400 182.127 L 349.000 182.200 349.121 184.068 M305.838 187.242 C 306.564 188.044,306.605 189.078,306.710 209.031 L 306.821 229.979 305.952 230.848 C 304.799 232.001,289.236 231.807,288.054 230.625 C 287.466 230.037,287.400 227.888,287.400 209.228 C 287.400 185.196,287.095 186.939,291.346 186.695 C 300.065 186.195,305.061 186.383,305.838 187.242 M337.679 200.435 C 336.580 201.243,336.000 201.977,336.000 202.559 C 336.000 203.663,334.621 205.200,333.631 205.200 C 332.746 205.200,332.413 206.252,332.405 209.067 C 332.398 212.027,332.624 212.400,334.429 212.400 C 336.253 212.400,336.800 213.133,336.800 215.580 C 336.800 218.381,339.805 219.539,343.600 218.200 C 344.535 217.870,346.063 217.600,346.996 217.600 L 348.690 217.600 349.028 214.900 C 349.498 211.133,349.309 201.614,348.751 200.941 C 348.489 200.625,347.511 200.400,346.400 200.400 C 345.354 200.400,343.851 200.130,343.062 199.800 C 340.908 198.900,339.547 199.061,337.679 200.435 M343.866 201.225 C 344.481 201.459,345.117 201.864,345.280 202.125 C 345.507 202.489,345.763 202.484,346.382 202.100 C 348.104 201.033,348.307 201.362,348.600 205.700 C 349.010 211.771,348.926 212.131,347.000 212.539 C 344.462 213.077,344.211 213.318,344.078 215.339 C 343.939 217.454,343.443 217.746,340.368 217.526 L 338.600 217.400 338.327 214.924 C 338.177 213.562,337.885 212.122,337.678 211.724 C 337.262 210.924,337.974 202.149,338.524 201.300 C 338.921 200.686,342.321 200.638,343.866 201.225 M274.579 213.015 C 276.303 214.319,276.690 229.929,275.026 231.020 C 273.489 232.027,259.677 231.408,256.700 230.199 C 255.736 229.807,255.660 220.062,256.606 218.247 C 256.937 217.613,257.319 216.398,257.455 215.547 C 257.680 214.138,257.814 213.999,258.951 213.986 C 259.638 213.979,260.920 213.625,261.800 213.200 C 263.896 212.187,273.305 212.051,274.579 213.015 " stroke="none" fill="#5f5f61" fill-rule="evenodd"></path><path id="path4" d="M25.760 149.898 C 24.429 150.811,24.400 151.702,24.400 190.974 C 24.400 229.997,24.400 230.000,25.234 230.834 C 26.065 231.665,26.153 231.668,52.552 231.534 C 82.746 231.381,81.200 231.558,81.200 228.255 C 81.200 226.251,82.092 225.600,84.839 225.600 C 86.504 225.600,88.800 224.666,88.800 223.990 C 88.800 223.775,89.610 223.600,90.600 223.600 L 92.400 223.600 92.400 221.800 C 92.400 220.810,92.541 220.000,92.714 220.000 C 93.440 220.000,94.400 217.561,94.400 215.718 C 94.400 213.412,94.882 212.800,96.698 212.800 C 100.192 212.800,100.665 209.342,100.259 186.800 C 99.945 169.431,99.829 168.800,96.956 168.800 C 94.903 168.800,94.700 168.524,94.362 165.278 C 94.178 163.519,93.842 162.484,93.249 161.853 C 92.663 161.228,92.400 160.430,92.400 159.274 L 92.400 157.600 90.722 157.600 C 89.452 157.600,88.775 157.342,87.938 156.541 C 87.069 155.708,86.295 155.430,84.316 155.241 L 81.800 155.000 81.678 153.099 C 81.537 150.904,80.441 150.038,77.733 149.982 C 65.913 149.737,26.088 149.672,25.760 149.898 M112.800 150.400 C 111.694 151.506,111.522 229.140,112.623 230.711 L 113.245 231.600 143.734 231.600 C 170.681 231.600,174.325 231.528,175.111 230.977 C 175.982 230.367,176.000 230.186,176.000 221.813 L 176.000 213.271 174.732 212.204 L 173.464 211.137 156.407 211.238 C 137.656 211.350,138.406 211.440,138.371 209.075 C 138.357 208.154,138.223 194.650,138.073 179.068 C 137.809 151.650,137.775 150.717,137.024 150.168 C 135.621 149.143,113.849 149.351,112.800 150.400 M187.862 150.331 C 186.784 151.523,186.851 229.961,187.931 230.938 C 189.210 232.095,248.666 231.935,250.146 230.771 L 251.200 229.942 251.200 221.945 C 251.200 210.081,253.116 211.087,230.848 211.250 L 213.800 211.375 213.460 208.788 C 213.273 207.364,213.042 193.788,212.947 178.617 C 212.791 153.894,212.706 150.959,212.125 150.317 C 211.119 149.205,188.869 149.219,187.862 150.331 M77.200 150.572 C 80.906 151.114,80.800 151.043,80.800 152.997 C 80.800 155.087,82.291 156.233,84.553 155.881 C 86.697 155.548,88.247 156.823,88.559 159.178 L 88.821 161.154 90.618 161.424 C 92.965 161.776,93.998 163.034,94.006 165.554 C 94.015 168.402,94.680 169.362,96.809 169.600 L 98.600 169.800 98.897 172.000 C 100.080 180.757,100.344 193.958,99.553 204.800 C 99.049 211.709,98.937 212.000,96.774 212.000 C 94.853 212.000,94.000 213.085,94.000 215.527 C 94.000 218.533,92.688 219.980,89.952 219.995 C 88.999 219.999,88.879 220.180,88.643 221.960 C 88.323 224.375,87.269 225.200,84.503 225.200 C 81.967 225.200,80.967 225.943,80.686 228.033 C 80.564 228.948,80.314 229.837,80.132 230.008 C 78.751 231.302,26.931 231.805,25.531 230.538 C 24.477 229.584,24.382 152.375,25.433 150.875 L 26.066 149.971 50.733 150.140 C 64.300 150.233,76.210 150.427,77.200 150.572 M136.909 150.700 C 137.471 151.322,137.556 154.693,137.671 181.039 C 137.777 205.430,137.897 210.795,138.349 211.339 C 138.844 211.935,140.605 212.000,156.323 212.000 C 178.013 212.000,175.600 210.767,175.600 221.847 C 175.600 229.772,175.580 229.969,174.711 230.577 C 173.312 231.557,114.216 231.519,113.131 230.538 C 112.052 229.561,111.984 151.923,113.062 150.731 C 114.056 149.633,135.918 149.604,136.909 150.700 M211.935 150.522 C 212.233 150.881,212.425 159.717,212.549 178.822 C 212.725 206.137,212.878 210.504,213.690 211.500 C 214.005 211.886,218.080 212.000,231.587 212.000 C 248.634 212.000,249.095 212.020,249.808 212.809 C 251.019 214.147,251.207 229.193,250.027 230.373 C 249.023 231.377,189.073 231.713,188.080 230.720 C 187.384 230.024,187.384 151.176,188.080 150.480 C 188.802 149.758,211.334 149.798,211.935 150.522 M290.812 168.698 C 289.609 168.780,288.411 169.025,288.151 169.241 C 286.916 170.265,287.073 179.660,288.351 181.239 C 289.442 182.586,304.638 182.912,305.800 181.613 C 307.060 180.204,307.242 170.442,306.030 169.230 C 305.194 168.394,298.611 168.163,290.812 168.698 M50.693 169.497 C 49.550 170.761,49.636 210.747,50.784 211.786 C 51.493 212.427,52.314 212.479,59.284 212.327 C 68.309 212.131,68.800 211.984,68.800 209.475 C 68.800 206.897,69.630 206.000,72.015 206.000 C 73.824 206.000,74.010 205.910,74.288 204.900 C 74.737 203.271,74.665 181.419,74.200 178.400 L 73.800 175.800 71.912 175.679 C 69.503 175.524,68.400 174.293,68.400 171.760 C 68.400 169.755,67.703 169.172,65.296 169.162 C 64.473 169.158,61.007 169.060,57.593 168.944 C 51.835 168.747,51.336 168.787,50.693 169.497 M305.669 169.462 C 306.851 170.532,306.750 179.447,305.537 180.989 L 304.675 182.086 299.037 181.843 C 291.091 181.501,289.083 181.244,288.500 180.492 C 287.793 179.580,287.804 170.261,288.512 169.673 C 289.705 168.683,304.606 168.500,305.669 169.462 M65.400 169.874 L 67.800 170.200 67.800 171.900 C 67.800 174.516,69.466 176.400,71.778 176.400 L 73.523 176.400 73.791 178.500 C 74.228 181.921,74.454 198.322,74.114 202.000 L 73.800 205.400 71.733 205.520 C 69.251 205.664,68.852 206.074,68.255 209.095 L 67.800 211.400 65.600 211.660 C 61.560 212.139,51.402 212.042,50.880 211.520 C 50.171 210.811,50.190 170.372,50.900 169.655 C 51.444 169.106,60.778 169.247,65.400 169.874 M336.600 182.433 C 335.940 182.642,334.770 182.765,334.000 182.706 C 332.512 182.593,332.413 182.804,332.951 184.945 C 333.261 186.181,332.732 186.409,328.676 186.791 C 326.448 187.001,325.218 187.332,324.392 187.943 C 323.657 188.486,322.641 188.800,321.616 188.800 C 320.000 188.800,320.000 188.800,320.000 190.382 C 320.000 191.410,319.650 192.481,319.000 193.438 C 318.224 194.581,318.000 195.420,318.000 197.179 C 318.000 199.967,317.468 200.724,315.400 200.880 L 313.800 201.000 313.477 203.800 C 313.299 205.340,313.263 208.130,313.397 210.000 C 313.531 211.870,313.676 214.300,313.720 215.400 L 313.800 217.400 315.531 217.524 C 317.556 217.670,318.400 219.029,318.400 222.143 C 318.400 224.703,319.361 225.714,322.052 225.984 L 324.200 226.200 324.328 227.999 C 324.501 230.433,325.182 231.064,327.920 231.322 C 339.309 232.396,340.750 232.443,347.888 231.969 C 356.738 231.382,357.600 231.048,357.600 228.206 L 357.600 226.400 359.226 226.400 C 362.192 226.400,363.235 225.252,363.588 221.600 L 363.800 219.400 365.457 219.279 C 368.333 219.069,368.443 218.743,368.695 209.710 C 368.968 199.909,368.669 198.800,365.754 198.800 L 364.000 198.800 363.995 197.100 C 363.992 196.029,363.622 194.756,362.995 193.659 C 362.428 192.667,362.000 191.282,362.000 190.439 C 362.000 188.576,361.426 188.000,359.569 188.000 C 358.760 188.000,357.451 187.730,356.662 187.400 C 355.872 187.070,354.437 186.800,353.473 186.800 C 350.202 186.800,349.259 186.208,349.121 184.068 L 349.000 182.200 343.400 182.127 C 340.320 182.086,337.260 182.224,336.600 182.433 M342.703 182.653 C 343.378 182.834,343.668 183.286,343.854 184.447 C 344.096 185.959,344.146 186.000,345.751 186.004 C 346.658 186.007,348.284 186.277,349.364 186.604 C 350.444 186.932,352.114 187.200,353.076 187.200 C 354.039 187.200,355.443 187.458,356.198 187.773 C 356.952 188.088,358.378 188.468,359.367 188.616 C 361.143 188.882,361.167 188.906,361.440 190.729 C 361.592 191.743,362.050 193.119,362.457 193.786 C 362.890 194.496,363.198 195.755,363.199 196.820 C 363.200 199.034,363.703 199.600,365.666 199.600 C 368.035 199.600,368.188 200.191,368.166 209.270 C 368.145 218.104,368.061 218.400,365.574 218.400 C 363.626 218.400,362.800 219.485,362.800 222.045 C 362.800 224.712,361.874 225.711,359.148 225.984 L 357.000 226.200 356.878 228.105 C 356.785 229.552,356.544 230.143,355.878 230.562 C 354.526 231.410,341.300 232.083,335.600 231.594 C 324.839 230.669,324.800 230.655,324.800 227.752 C 324.800 225.758,324.135 225.200,321.758 225.200 C 319.614 225.200,318.800 224.299,318.800 221.925 C 318.800 220.852,318.530 219.328,318.200 218.538 C 317.870 217.749,317.600 216.149,317.600 214.984 C 317.600 211.928,317.421 211.646,315.633 211.886 C 313.801 212.132,313.640 211.835,313.905 208.700 L 314.099 206.400 315.650 206.400 L 317.200 206.400 317.200 204.249 C 317.200 203.066,317.470 201.451,317.800 200.662 C 318.130 199.872,318.401 198.365,318.401 197.313 C 318.404 194.307,319.489 192.876,321.880 192.723 L 323.800 192.600 323.923 190.680 C 324.073 188.332,325.517 187.204,328.376 187.201 C 329.353 187.201,331.153 187.020,332.376 186.801 C 333.599 186.582,335.476 186.298,336.546 186.170 L 338.492 185.937 338.247 184.402 C 338.079 183.353,338.159 182.802,338.501 182.665 C 339.216 182.376,341.644 182.369,342.703 182.653 M291.346 186.695 C 287.095 186.939,287.400 185.196,287.400 209.228 C 287.400 227.888,287.466 230.037,288.054 230.625 C 289.236 231.807,304.799 232.001,305.952 230.848 L 306.821 229.979 306.710 209.031 C 306.605 189.078,306.564 188.044,305.838 187.242 C 305.061 186.383,300.065 186.195,291.346 186.695 M305.571 187.854 C 306.847 189.477,306.876 229.445,305.601 230.599 C 304.627 231.481,289.673 231.290,288.579 230.382 C 287.688 229.643,287.903 188.443,288.800 187.973 C 291.561 186.526,304.455 186.435,305.571 187.854 M337.371 199.989 C 336.225 200.856,335.351 201.181,334.139 201.189 L 332.479 201.200 332.187 205.874 C 331.788 212.262,332.089 213.363,334.279 213.522 L 335.958 213.644 336.079 215.509 C 336.290 218.767,339.726 220.108,344.000 218.600 C 344.935 218.270,346.404 218.000,347.263 218.000 C 348.163 218.000,348.891 217.788,348.981 217.500 C 349.317 216.425,349.547 211.814,349.216 212.800 C 349.031 213.350,348.862 214.655,348.840 215.700 L 348.800 217.600 347.050 217.600 C 346.088 217.600,344.535 217.870,343.600 218.200 C 339.805 219.539,336.800 218.381,336.800 215.580 C 336.800 213.133,336.253 212.400,334.429 212.400 C 332.624 212.400,332.398 212.027,332.405 209.067 C 332.413 206.252,332.746 205.200,333.631 205.200 C 334.621 205.200,336.000 203.663,336.000 202.559 C 336.000 200.276,340.238 198.620,343.062 199.800 C 343.851 200.130,345.365 200.400,346.425 200.400 C 348.899 200.400,348.911 200.424,349.472 206.600 L 349.944 211.800 349.736 206.606 C 349.484 200.315,349.352 200.000,346.973 200.000 C 345.984 200.000,344.528 199.730,343.738 199.400 C 341.385 198.417,339.179 198.621,337.371 199.989 M261.800 213.200 C 260.920 213.625,259.638 213.979,258.951 213.986 C 257.814 213.999,257.680 214.138,257.455 215.547 C 257.319 216.398,256.937 217.613,256.606 218.247 C 255.660 220.062,255.736 229.807,256.700 230.199 C 259.677 231.408,273.489 232.027,275.026 231.020 C 276.690 229.929,276.303 214.319,274.579 213.015 C 273.305 212.051,263.896 212.187,261.800 213.200 M274.037 213.313 C 275.715 214.595,276.295 229.468,274.711 230.577 C 273.486 231.436,263.493 231.453,262.000 230.600 C 261.450 230.286,260.245 230.022,259.323 230.014 L 257.646 230.000 257.523 228.300 C 257.455 227.365,257.458 225.025,257.528 223.100 L 257.657 219.600 259.378 219.600 C 261.283 219.600,261.600 219.025,261.600 215.563 C 261.600 213.252,262.674 212.833,268.600 212.829 C 271.762 212.827,273.617 212.992,274.037 213.313 " stroke="none" fill="#84848c" fill-rule="evenodd"></path></g></svg>