<?xml version="1.0" encoding="UTF-8" standalone="no"?>
<svg
   xmlns:dc="http://purl.org/dc/elements/1.1/"
   xmlns:cc="http://creativecommons.org/ns#"
   xmlns:rdf="http://www.w3.org/1999/02/22-rdf-syntax-ns#"
   xmlns:svg="http://www.w3.org/2000/svg"
   xmlns="http://www.w3.org/2000/svg"
   viewBox="0 0 160 152"
   height="152"
   width="160"
   xml:space="preserve"
   id="svg2"
   version="1.1"><metadata
     id="metadata8"><rdf:RDF><cc:Work
         rdf:about=""><dc:format>image/svg+xml</dc:format><dc:type
           rdf:resource="http://purl.org/dc/dcmitype/StillImage" /></cc:Work></rdf:RDF></metadata><defs
     id="defs6"><clipPath
       id="clipPath18"
       clipPathUnits="userSpaceOnUse"><path
         id="path16"
         d="M 0,114 H 120 V 0 H 0 Z" /></clipPath><linearGradient
       id="linearGradient28"
       spreadMethod="pad"
       gradientTransform="matrix(97.2895,45.5088,51.7882,-85.4932,-38.7205,105.3457)"
       gradientUnits="userSpaceOnUse"
       y2="0"
       x2="1"
       y1="0"
       x1="0"><stop
         id="stop22"
         offset="0"
         style="stop-opacity:1;stop-color:#8468f5" /><stop
         id="stop24"
         offset="0.993819"
         style="stop-opacity:1;stop-color:#eb74e7" /><stop
         id="stop26"
         offset="1"
         style="stop-opacity:1;stop-color:#ec74e7" /></linearGradient><clipPath
       id="clipPath42"
       clipPathUnits="userSpaceOnUse"><path
         id="path40"
         d="M 0,114 H 120 V 0 H 0 Z" /></clipPath></defs><g
     transform="matrix(1.3333333,0,0,-1.3333333,0,152)"
     id="g10"><g
       id="g12"><g
         clip-path="url(#clipPath18)"
         id="g14"><g
           transform="translate(60,108.2227)"
           id="g20"><path
             id="path30"
             style="fill:none;stroke:url(#linearGradient28);stroke-width:5.71400023;stroke-linecap:butt;stroke-linejoin:miter;stroke-miterlimit:4;stroke-dasharray:none;stroke-opacity:1"
             d="M 0,0 -55.087,-96.815 H 55.087 Z" /></g></g></g><g
       transform="translate(83.291,101.4839)"
       id="g32"><path
         id="path34"
         style="fill:#333333;fill-opacity:1;fill-rule:nonzero;stroke:none"
         d="m 0,0 9.18,-44.552 -9.145,16.072 -3.815,18.518 -44.851,-33.603 7.07,12.425 z m -53.015,-39.722 -7.069,-12.425 -13.086,-9.806 -3.432,4.558 z m 56.78,-6.86 9.145,-16.073 7.524,-36.511 -54.513,29.797 2.746,4.999 43.684,-23.878 z" /></g><g
       id="g36"><g
         clip-path="url(#clipPath42)"
         id="g38"><g
           transform="translate(8.5713,49.0146)"
           id="g44"><path
             id="path46"
             style="fill:#ffffff;fill-opacity:1;fill-rule:nonzero;stroke:none"
             d="m 0,0 c 3.472,0 6.286,-2.805 6.286,-6.265 0,-3.46 -2.814,-6.264 -6.286,-6.264 -3.471,0 -6.286,2.804 -6.286,6.264 C -6.286,-2.805 -3.471,0 0,0" /></g><g
           transform="translate(8.5713,49.0146)"
           id="g48"><path
             id="path50"
             style="fill:none;stroke:#333333;stroke-width:4.5710001;stroke-linecap:butt;stroke-linejoin:miter;stroke-miterlimit:4;stroke-dasharray:none;stroke-opacity:1"
             d="m 0,0 c 3.472,0 6.286,-2.805 6.286,-6.265 0,-3.46 -2.814,-6.264 -6.286,-6.264 -3.471,0 -6.286,2.804 -6.286,6.264 C -6.286,-2.805 -3.471,0 0,0 Z" /></g><g
           transform="translate(81.7139,102.8794)"
           id="g52"><path
             id="path54"
             style="fill:#ffffff;fill-opacity:1;fill-rule:nonzero;stroke:none"
             d="m 0,0 c 3.472,0 6.286,-2.805 6.286,-6.264 0,-3.46 -2.814,-6.265 -6.286,-6.265 -3.471,0 -6.285,2.805 -6.285,6.265 C -6.285,-2.805 -3.471,0 0,0" /></g><g
           transform="translate(81.7139,102.8794)"
           id="g56"><path
             id="path58"
             style="fill:none;stroke:#333333;stroke-width:4.5710001;stroke-linecap:butt;stroke-linejoin:miter;stroke-miterlimit:4;stroke-dasharray:none;stroke-opacity:1"
             d="m 0,0 c 3.472,0 6.286,-2.805 6.286,-6.264 0,-3.46 -2.814,-6.265 -6.286,-6.265 -3.471,0 -6.285,2.805 -6.285,6.265 C -6.285,-2.805 -3.471,0 0,0 Z" /></g><g
           transform="translate(98.8574,14.8145)"
           id="g60"><path
             id="path62"
             style="fill:#ffffff;fill-opacity:1;fill-rule:nonzero;stroke:none"
             d="m 0,0 c 3.472,0 6.285,-2.805 6.285,-6.265 0,-3.46 -2.813,-6.263 -6.285,-6.263 -3.472,0 -6.286,2.803 -6.286,6.263 C -6.286,-2.805 -3.472,0 0,0" /></g><g
           transform="translate(98.8574,14.8145)"
           id="g64"><path
             id="path66"
             style="fill:none;stroke:#333333;stroke-width:4.5710001;stroke-linecap:butt;stroke-linejoin:miter;stroke-miterlimit:4;stroke-dasharray:none;stroke-opacity:1"
             d="m 0,0 c 3.472,0 6.285,-2.805 6.285,-6.265 0,-3.46 -2.813,-6.263 -6.285,-6.263 -3.472,0 -6.286,2.803 -6.286,6.263 C -6.286,-2.805 -3.472,0 0,0 Z" /></g><g
           transform="translate(51.4287,40.4639)"
           id="g68"><path
             id="path70"
             style="fill:#ffffff;fill-opacity:1;fill-rule:nonzero;stroke:none"
             d="m 0,0 c 3.471,0 6.286,-2.804 6.286,-6.264 0,-3.46 -2.815,-6.264 -6.286,-6.264 -3.472,0 -6.286,2.804 -6.286,6.264 C -6.286,-2.804 -3.472,0 0,0" /></g><g
           transform="translate(51.4287,40.4639)"
           id="g72"><path
             id="path74"
             style="fill:none;stroke:#333333;stroke-width:4.5710001;stroke-linecap:butt;stroke-linejoin:miter;stroke-miterlimit:4;stroke-dasharray:none;stroke-opacity:1"
             d="m 0,0 c 3.471,0 6.286,-2.804 6.286,-6.264 0,-3.46 -2.815,-6.264 -6.286,-6.264 -3.472,0 -6.286,2.804 -6.286,6.264 C -6.286,-2.804 -3.472,0 0,0 Z" /></g></g></g></g></svg>