<?xml version="1.0" encoding="UTF-8"?>
<svg width="20px" height="20px" viewBox="0 0 20 20" version="1.1" xmlns="http://www.w3.org/2000/svg" xmlns:xlink="http://www.w3.org/1999/xlink">
    <!-- Generator: Sketch 50.2 (55047) - http://www.bohemiancoding.com/sketch -->
    <title>ic_close</title>
    <desc>Created with Sketch.</desc>
    <defs></defs>
    <g id="Page-1" stroke="none" stroke-width="1" fill="none" fill-rule="evenodd">
        <g id="00A_Export" transform="translate(-80.000000, -71.000000)">
            <g id="ic_close" transform="translate(80.000000, 71.000000)">
                <polygon id="Gudie" points="0 0 20 0 20 20 0 20"></polygon>
                <path d="M10.7563752,9.99887522 L16.8323752,3.91887522 C17.0423752,3.70887522 17.0423752,3.36787522 16.8323752,3.15787522 C16.6223752,2.94787522 16.2813752,2.94687522 16.0703752,3.15787522 L9.99537522,9.23787522 L3.91937522,3.15787522 C3.70837522,2.94687522 3.36837522,2.94787522 3.15837522,3.15787522 C2.94737522,3.36787522 2.94737522,3.70887522 3.15737522,3.91887522 L9.23437522,9.99887522 L3.15737522,16.0788752 C2.94737522,16.2888752 2.94737522,16.6298752 3.15837522,16.8398752 C3.26337522,16.9448752 3.40137522,16.9978752 3.53837522,16.9978752 C3.67637522,16.9978752 3.81437522,16.9448752 3.91937522,16.8398752 L9.99537522,10.7598752 L16.0703752,16.8398752 C16.1763752,16.9448752 16.3143752,16.9978752 16.4513752,16.9978752 C16.5893752,16.9978752 16.7273752,16.9448752 16.8323752,16.8398752 C17.0423752,16.6298752 17.0423752,16.2888752 16.8323752,16.0788752 L10.7563752,9.99887522 Z" id="Fill-1" fill="#696B8A"></path>
                <rect id="Overlay" fill="#FFFFFF" opacity="0" x="0" y="0" width="20" height="20"></rect>
            </g>
        </g>
    </g>
</svg>