<?xml version="1.0" encoding="UTF-8"?>
<svg width="10px" height="5px" viewBox="0 0 10 5" version="1.1" xmlns="http://www.w3.org/2000/svg" xmlns:xlink="http://www.w3.org/1999/xlink">
    <!-- Generator: Sketch 50.2 (55047) - http://www.bohemiancoding.com/sketch -->
    <title>ic_arrow_down</title>
    <desc>Created with Sketch.</desc>
    <defs></defs>
    <g id="Page-1" stroke="none" stroke-width="1" fill="none" fill-rule="evenodd">
        <g id="00A_Export" transform="translate(-291.000000, -132.000000)">
            <g id="ic_arrow_down" transform="translate(291.000000, 132.000000)">
                <rect id="Guide" fill-opacity="0" fill="#FFFFFF" x="0" y="0" width="10" height="5"></rect>
                <path d="M5.29731766,4.66964705 L9.19958635,0.333792946 C9.27347815,0.251690942 9.26682247,0.125232975 9.18472047,0.0513411708 C9.14799552,0.0182887235 9.10033587,-9.07616765e-18 9.05092752,0 L0.949072481,0 C0.838615531,2.02906125e-17 0.749072481,0.08954305 0.749072481,0.2 C0.749072481,0.249408355 0.767361204,0.297068005 0.800413652,0.333792946 L4.70268234,4.66964705 C4.85046595,4.83385105 5.10338188,4.84716242 5.26758589,4.69937881 C5.27801088,4.68999633 5.28793517,4.68007203 5.29731766,4.66964705 Z" id="Triangle" fill="#9799AD"></path>
                <rect id="Overlay" fill="#FFFFFF" opacity="0" x="0" y="0" width="10" height="5"></rect>
            </g>
        </g>
    </g>
</svg>