<?xml version="1.0" encoding="UTF-8"?>
<svg width="20px" height="20px" viewBox="0 0 20 20" version="1.1" xmlns="http://www.w3.org/2000/svg" xmlns:xlink="http://www.w3.org/1999/xlink">
    <!-- Generator: Sketch 50.2 (55047) - http://www.bohemiancoding.com/sketch -->
    <title>ic_copy</title>
    <desc>Created with Sketch.</desc>
    <defs></defs>
    <g id="Page-1" stroke="none" stroke-width="1" fill="none" fill-rule="evenodd">
        <g id="00A_Export" transform="translate(-610.000000, -91.000000)">
            <g id="ic_copy" transform="translate(610.000000, 91.000000)">
                <g id="Shape" transform="translate(1.000000, 1.000000)" fill="#FF8737">
                    <path d="M1,0 L11,0 C11.5522847,-1.01453063e-16 12,0.44771525 12,1 L12,11 C12,11.5522847 11.5522847,12 11,12 L1,12 C0.44771525,12 6.76353751e-17,11.5522847 0,11 L0,1 C-6.76353751e-17,0.44771525 0.44771525,1.01453063e-16 1,0 Z M1.5,1 C1.22385763,1 1,1.22385763 1,1.5 L1,10.5 C1,10.7761424 1.22385763,11 1.5,11 L10.5,11 C10.7761424,11 11,10.7761424 11,10.5 L11,1.5 C11,1.22385763 10.7761424,1 10.5,1 L1.5,1 Z" id="Combined-Shape"></path>
                    <path d="M13,5 L16,5 C16.5522847,5 17,5.44771525 17,6 L17,16 C17,16.5522847 16.5522847,17 16,17 L6,17 C5.44771525,17 5,16.5522847 5,16 L5,13 L6,13 L6,15.5 C6,15.7761424 6.22385763,16 6.5,16 L15.5,16 C15.7761424,16 16,15.7761424 16,15.5 L16,6.5 C16,6.22385763 15.7761424,6 15.5,6 L13,6 L13,5 Z" id="Combined-Shape"></path>
                </g>
                <rect id="Overlay" x="0" y="0" width="20" height="20"></rect>
            </g>
        </g>
    </g>
</svg>