<?xml version="1.0" encoding="UTF-8"?>
<svg width="64px" height="64px" viewBox="0 0 64 64" version="1.1" xmlns="http://www.w3.org/2000/svg" xmlns:xlink="http://www.w3.org/1999/xlink">
    <!-- Generator: Sketch 50.2 (55047) - http://www.bohemiancoding.com/sketch -->
    <title>ic_leasing_cancel_big</title>
    <desc>Created with Sketch.</desc>
    <defs></defs>
    <g id="Page-1" stroke="none" stroke-width="1" fill="none" fill-rule="evenodd">
        <g id="00A_Export" transform="translate(-181.000000, -385.000000)">
            <g id="ic_leasing_cancel_big" transform="translate(181.000000, 385.000000)">
                <circle id="Oval-2" fill="#FF94A0" cx="32" cy="32" r="32"></circle>
                <path d="M45.0868271,34 L54,34 C54.5522847,34 55,34.4477153 55,35 C55,35.5522847 54.5522847,36 54,36 L47.0677101,36 M23.2566316,36 L10,36 C9.44771525,36 9,35.5522847 9,35 C9,34.4477153 9.44771525,34 10,34 L22.8067487,34" id="Rectangle-7" fill="#FFFFFF" transform="translate(32.000000, 35.000000) rotate(-45.000000) translate(-32.000000, -35.000000) "></path>
                <g id="shape" transform="translate(18.000000, 16.000000)" fill="#FFFFFF">
                    <path d="M2,10 L2,14 C2,20.618 7.382,26 14,26 C20.618,26 26,20.618 26,14 L26,10 L2,10 Z M14,28 C6.28,28 0,21.72 0,14 L0,9 C0,8.448 0.448,8 1,8 L27,8 C27.552,8 28,8.448 28,9 L28,14 C28,21.72 21.72,28 14,28 Z" id="Fill-1"></path>
                    <path d="M7,0 L7,0 C7.55228475,-1.01453063e-16 8,0.44771525 8,1 L8,8 L6,8 L6,1 C6,0.44771525 6.44771525,1.01453063e-16 7,0 Z" id="Rectangle-8"></path>
                    <path d="M21,0 L21,0 C21.5522847,-1.01453063e-16 22,0.44771525 22,1 L22,8 L20,8 L20,1 C20,0.44771525 20.4477153,1.01453063e-16 21,0 Z" id="Rectangle-8"></path>
                    <path d="M13,28 L15,28 L15,39 C15,39.5522847 14.5522847,40 14,40 L14,40 C13.4477153,40 13,39.5522847 13,39 L13,28 Z" id="Rectangle-8"></path>
                </g>
                <rect id="Overlay" x="0" y="0" width="64" height="64"></rect>
            </g>
        </g>
    </g>
</svg>