<?xml version="1.0" encoding="UTF-8"?>
<svg width="32px" height="32px" viewBox="0 0 32 32" version="1.1" xmlns="http://www.w3.org/2000/svg" xmlns:xlink="http://www.w3.org/1999/xlink">
    <!-- Generator: Sketch 52.5 (67469) - http://www.bohemiancoding.com/sketch -->
    <title>ic_token2</title>
    <desc>Created with Sketch.</desc>
    <g id="Export" stroke="none" stroke-width="1" fill="none" fill-rule="evenodd">
        <g transform="translate(-319.000000, -106.000000)" fill="#FFD18C" id="ic_token2">
            <g transform="translate(319.000000, 106.000000)">
                <path d="M16,32 C7.163444,32 0,24.836556 0,16 C0,7.163444 7.163444,0 16,0 C24.836556,0 32,7.163444 32,16 C32,24.836556 24.836556,32 16,32 Z M16,9.20710678 L22.7928932,16 L16,22.7928932 L9.20710678,16 L16,9.20710678 Z M16.3535534,8.14644661 C16.1582912,7.95118446 15.8417088,7.95118446 15.6464466,8.14644661 L8.14644661,15.6464466 C7.95118446,15.8417088 7.95118446,16.1582912 8.14644661,16.3535534 L15.6464466,23.8535534 C15.8417088,24.0488155 16.1582912,24.0488155 16.3535534,23.8535534 L23.8535534,16.3535534 C24.0488155,16.1582912 24.0488155,15.8417088 23.8535534,15.6464466 L16.3535534,8.14644661 Z"></path>
            </g>
        </g>
    </g>
</svg>