<?xml version="1.0" encoding="UTF-8"?>
<svg width="337px" height="394px" viewBox="0 0 337 394" version="1.1" xmlns="http://www.w3.org/2000/svg" xmlns:xlink="http://www.w3.org/1999/xlink">
    <!-- Generator: Sketch 52.2 (67145) - http://www.bohemiancoding.com/sketch -->
    <title>img_warning</title>
    <desc>Created with Sketch.</desc>
    <defs>
        <linearGradient x1="88.4813274%" y1="76.8149282%" x2="16.7787188%" y2="31.1247614%" id="linearGradient-1">
            <stop stop-color="#DBDEF8" stop-opacity="0" offset="0%"></stop>
            <stop stop-color="#DBDEF8" offset="100%"></stop>
        </linearGradient>
        <rect id="path-2" x="0" y="0" width="91.8507463" height="134.025126" rx="10"></rect>
        <filter x="-9.3%" y="-6.3%" width="127.2%" height="118.7%" filterUnits="objectBoundingBox" id="filter-3">
            <feOffset dx="4" dy="4" in="SourceAlpha" result="shadowOffsetOuter1"></feOffset>
            <feGaussianBlur stdDeviation="3.5" in="shadowOffsetOuter1" result="shadowBlurOuter1"></feGaussianBlur>
            <feColorMatrix values="0 0 0 0 0   0 0 0 0 0   0 0 0 0 0  0 0 0 0.170006793 0" type="matrix" in="shadowBlurOuter1"></feColorMatrix>
        </filter>
        <linearGradient x1="81.1839203%" y1="21.2085671%" x2="68.6650579%" y2="100%" id="linearGradient-4">
            <stop stop-color="#CBD0F4" offset="0%"></stop>
            <stop stop-color="#CBD0F4" offset="81.9973356%"></stop>
            <stop stop-color="#CBD0F4" stop-opacity="0" offset="100%"></stop>
        </linearGradient>
        <linearGradient x1="100%" y1="28.8735101%" x2="73.0076046%" y2="97.3985685%" id="linearGradient-5">
            <stop stop-color="#FFEEAC" offset="0%"></stop>
            <stop stop-color="#FFEEAC" offset="69.3773156%"></stop>
            <stop stop-color="#FFEEAC" stop-opacity="0" offset="100%"></stop>
        </linearGradient>
        <linearGradient x1="-6.28279807%" y1="50%" x2="90.5225602%" y2="50%" id="linearGradient-6">
            <stop stop-color="#DBDEF8" stop-opacity="0" offset="0%"></stop>
            <stop stop-color="#DBDEF8" offset="100%"></stop>
        </linearGradient>
    </defs>
    <g id="Page-1" stroke="none" stroke-width="1" fill="none" fill-rule="evenodd">
        <g id="27A_Warning" transform="translate(-647.000000, -227.000000)">
            <g id="Window" transform="translate(450.000000, 144.000000)">
                <g id="img_warning" transform="translate(200.000000, 86.000000)">
                    <g id="Base">
                        <polygon id="Path-3" fill-opacity="0.6" fill="url(#linearGradient-1)" style="mix-blend-mode: multiply;" points="6.92553548 133.693926 89.3525397 2.94639076 228 90.4471682 228 201 138.683105 206"></polygon>
                        <g id="Shadow">
                            <use fill="black" fill-opacity="1" filter="url(#filter-3)" xlink:href="#path-2"></use>
                            <use fill="#302C48" fill-rule="evenodd" xlink:href="#path-2"></use>
                        </g>
                        <g id="Plug" transform="translate(17.000000, 38.000000)">
                            <path d="M52.3283582,10.6654626 C56.3875126,15.8571158 58.6318408,22.2496159 58.6318408,28.9824121 C58.6318408,35.7152082 56.3875126,42.1077083 52.3283582,47.2993616 L52.3283582,53.4648241 C52.3283582,56.5023902 49.8659243,58.9648241 46.8283582,58.9648241 L11.7039801,58.9648241 C8.66641398,58.9648241 6.2039801,56.5023902 6.2039801,53.4648241 L6.2039801,48.3965713 C1.58684918,43.0359004 -1,36.2084794 -1,28.9824121 C-1,21.7563448 1.58684918,14.9289237 6.2039801,9.56825285 L6.2039801,4.5 C6.2039801,1.46243388 8.66641398,-1 11.7039801,-1 L46.8283582,-1 C49.8659243,-1 52.3283582,1.46243388 52.3283582,4.5 L52.3283582,10.6654626 Z" id="Combined-Shape" stroke-opacity="0.398494112" stroke="#000000" stroke-width="2" fill="#FFFFFF"></path>
                            <rect id="Rectangle-3" fill="#302C48" x="18.119403" y="17.7688442" width="6.30348259" height="22.4874372" rx="3.15174129"></rect>
                            <rect id="Rectangle-3-Copy" fill="#302C48" x="33.4278607" y="17.7688442" width="6.30348259" height="22.4874372" rx="3.15174129"></rect>
                        </g>
                    </g>
                    <g id="Code" transform="translate(98.000000, 50.000000)">
                        <path d="M190.424035,333.767349 C173.678388,324.855112 163.224759,318.397546 153.7022,310.7265 C139.7212,299.4635 131.0332,287.4645 127.6042,273.4775 C124.4642,260.6715 127.0492,248.7795 135.0012,236.5675 C141.7902,226.1415 151.9742,215.9545 168.1122,202.5975 C171.0962,200.1275 174.2502,197.5715 178.3172,194.3135 C179.7002,193.2055 186.8132,187.5285 188.8302,185.9115 C202.1402,175.2365 210.6962,167.9445 218.7562,160.0995 C239.5612,139.8495 240.6602,119.0495 224.2972,101.7995 C210.5162,87.2725 184.9132,76.2765 156.1722,71.7245 C121.0362,66.1595 95.6982,51.2255 76.1022,35.0005 L71.0002,41.1625 C91.8072,58.3895 118.4652,73.8515 154.9202,79.6255 C182.0752,83.9265 206.1062,94.2475 218.4932,107.3055 C231.7592,121.2905 230.9242,137.0915 213.1762,154.3675 C205.3442,161.9905 196.9492,169.1435 183.8252,179.6705 C181.8172,181.2805 174.7072,186.9555 173.3162,188.0695 C169.2172,191.3515 166.0332,193.9325 163.0112,196.4345 C146.2982,210.2665 135.6332,220.9355 128.2972,232.2015 C119.2022,246.1685 116.1332,260.2875 119.8332,275.3825 C123.7282,291.2635 133.4382,304.6755 148.6832,316.9555 C158.878344,325.169228 169.895308,331.939403 187.64296,341.349137" id="Path" fill="url(#linearGradient-4)" opacity="0.2"></path>
                        <path d="M203.0892,331.9925 C201.2192,331.0235 194.0202,327.3125 192.3122,326.4275 C170.1762,314.9665 157.8062,307.6715 146.7022,298.7265 C132.7212,287.4635 124.0332,275.4645 120.6042,261.4775 C117.4642,248.6715 120.0492,236.7795 128.0012,224.5675 C134.7902,214.1415 144.9742,203.9545 161.1122,190.5975 C164.0962,188.1275 167.2502,185.5715 171.3172,182.3135 C172.7002,181.2055 179.8132,175.5285 181.8302,173.9115 C195.1402,163.2365 203.6962,155.9445 211.7562,148.0995 C232.5612,127.8495 233.6602,107.0495 217.2972,89.7995 C203.5162,75.2725 177.9132,64.2765 149.1722,59.7245 C114.0362,54.1595 86.6982,43.2255 67.1022,27.0005 L62.0002,33.1625 C82.8072,50.3895 111.4652,61.8515 147.9202,67.6255 C175.0752,71.9265 199.1062,82.2475 211.4932,95.3055 C224.7592,109.2905 223.9242,125.0915 206.1762,142.3675 C198.3442,149.9905 189.9492,157.1435 176.8252,167.6705 C174.8172,169.2805 167.7072,174.9555 166.3162,176.0695 C162.2172,179.3515 159.0332,181.9325 156.0112,184.4345 C139.2982,198.2665 128.6332,208.9355 121.2972,220.2015 C112.2022,234.1685 109.1332,248.2875 112.8332,263.3825 C116.7282,279.2635 126.4382,292.6755 141.6832,304.9555 C153.3272,314.3365 166.0432,321.8345 188.6342,333.5325 C190.3502,334.4205 197.5482,338.1315 199.4092,339.0955" id="Path" fill="url(#linearGradient-5)"></path>
                        <ellipse id="Oval-3" fill-opacity="0.6" fill="url(#linearGradient-6)" style="mix-blend-mode: multiply;" cx="38.2300034" cy="53.5" rx="25" ry="4.5"></ellipse>
                        <path d="M63.5751,20.5037 L68.7381,22.7627 C69.6201,25.6137 69.8701,28.2397 69.4901,30.6427 C69.1101,33.0447 68.0801,35.3347 66.4021,37.5127 L61.0541,38.5297 C56.2901,47.1427 46.7891,52.2987 36.8621,50.7267 C33.3581,50.1707 28.6911,49.4477 22.8611,48.5567 L29.8201,-0.0003 C35.9041,0.9637 40.8061,1.7397 44.5271,2.3297 C54.1441,3.8527 61.4291,11.2567 63.5751,20.5037" id="Fill-1" fill="#FFFFFF"></path>
                        <path d="M22.6484,48.4749 C28.3764,49.3819 34.7354,39.2839 36.8524,25.9189 C38.9684,12.5549 36.0414,0.9859 30.3144,0.0789 C24.5864,-0.8291 18.2274,9.2699 16.1104,22.6339 C13.9934,35.9979 16.9204,47.5679 22.6484,48.4749" id="Fill-4" fill="#7768D3"></path>
                        <path d="M6.5512,9.4768 L27.2922,12.7618 C29.2012,13.0638 30.5042,14.8568 30.2012,16.7668 C29.8992,18.6758 28.1062,19.9778 26.1972,19.6758 L5.4562,16.3908 C3.5472,16.0878 2.2442,14.2948 2.5462,12.3858 C2.8492,10.4768 4.6422,9.1738 6.5512,9.4768" id="Fill-6" fill="#FFFFFF"></path>
                        <path d="M4.0483,25.2796 L24.7893,28.5646 C26.6983,28.8666 28.0013,30.6596 27.6983,32.5696 C27.3963,34.4786 25.6033,35.7806 23.6943,35.4786 L2.9533,32.1936 C1.0443,31.8906 -0.2587,30.0986 0.0433,28.1896 C0.3463,26.2796 2.1383,24.9776 4.0483,25.2796" id="Fill-8" fill="#FFFFFF"></path>
                    </g>
                </g>
            </g>
        </g>
    </g>
</svg>