<?xml version="1.0" encoding="UTF-8"?>
<svg width="173px" height="28px" viewBox="0 0 173 28" version="1.1" xmlns="http://www.w3.org/2000/svg" xmlns:xlink="http://www.w3.org/1999/xlink">
    <!-- Generator: Sketch 50.2 (55047) - http://www.bohemiancoding.com/sketch -->
    <title>vsys_logo</title>
    <desc>Created with Sketch.</desc>
    <defs></defs>
    <g id="Page-1" stroke="none" stroke-width="1" fill="none" fill-rule="evenodd">
        <g id="00A_Export" transform="translate(-301.000000, -39.000000)">
            <g id="vsys_logo" transform="translate(301.000000, 39.000000)">
                <path d="M3.92,22.4 L0.28,22.4 C0.12544,22.4 0,22.27456 0,22.12 L0,0.28 C0,0.12544 0.12544,0 0.28,0 L3.92,0 C4.07456,0 4.2,0.12544 4.2,0.28 L4.2,22.12 C4.2,22.27456 4.07456,22.4 3.92,22.4 Z M24.92,22.4 L21.28,22.4 C21.12544,22.4 21,22.27456 21,22.12 L21,0.28 C21,0.12544 21.12544,0 21.28,0 L24.92,0 C25.07456,0 25.2,0.12544 25.2,0.28 L25.2,22.12 C25.2,22.27456 25.07456,22.4 24.92,22.4 Z M10.92,16.8 L7.28,16.8 C7.12544,16.8 7,16.67456 7,16.52 L7,4.48 C7,4.32544 7.12544,4.2 7.28,4.2 L10.92,4.2 C11.07456,4.2 11.2,4.32544 11.2,4.48 L11.2,16.52 C11.2,16.67456 11.07456,16.8 10.92,16.8 Z M17.78,11.2 L14.42,11.2 C14.18802,11.2 14,11.01198 14,10.78 L14,7.42 C14,7.18802 14.18802,7 14.42,7 L17.78,7 C18.01198,7 18.2,7.18802 18.2,7.42 L18.2,10.78 C18.2,11.01198 18.01198,11.2 17.78,11.2 Z M10.92,26.6 L7.28,26.6 C7.12544,26.6 7,26.47456 7,26.32 L7,19.88 C7,19.72544 7.12544,19.6 7.28,19.6 L10.92,19.6 C11.07456,19.6 11.2,19.72544 11.2,19.88 L11.2,26.32 C11.2,26.47456 11.07456,26.6 10.92,26.6 Z M17.92,28 L14.28,28 C14.12544,28 14,27.87456 14,27.72 L14,14.28 C14,14.12544 14.12544,14 14.28,14 L17.92,14 C18.07456,14 18.2,14.12544 18.2,14.28 L18.2,27.72 C18.2,27.87456 18.07456,28 17.92,28 Z" fill="#FF8737"></path>
                <path d="M52.79372,6 L47.71772,20.2596 C47.10428,21.50628 46.3634,22.07796 45.00872,22.07796 C43.65404,22.07796 42.86168,21.50628 42.2738,20.2596 L37.19816,6 L35,6 L40.30604,20.83092 C41.27732,22.88292 42.55532,24 45.00872,24 C47.41136,24 48.74012,22.83108 49.68584,20.83092 L54.96596,6 L52.79372,6 Z M74.96504,7.92204 L74.96504,6 L64.78784,6 C58.8842,6 56.55824,8.96136 56.55824,14.88336 C56.55824,20.83092 58.9094,23.76636 64.78784,23.76636 L74.96504,23.76636 L74.96504,21.84432 L64.78784,21.84432 C60.443,21.84432 58.73084,19.84416 58.57712,15.792 L72.7568,15.792 L72.7568,13.974 L58.57712,13.974 C58.70528,9.9222 60.443,7.92204 64.78784,7.92204 L74.96504,7.92204 Z M96.2,7.92204 L96.2,6 L86.02316,6 C80.1188,6 77.7932,8.96136 77.7932,14.88336 C77.7932,20.83092 80.14472,23.76636 86.02316,23.76636 L96.2,23.76636 L96.2,21.84432 L86.02316,21.84432 C81.67796,21.84432 79.9658,19.84416 79.81244,15.792 L93.9914,15.792 L93.9914,13.974 L79.81244,13.974 C79.93988,9.9222 81.67796,7.92204 86.02316,7.92204 L96.2,7.92204 Z" id="VSYS" fill="#181B3A"></path>
                <path d="M110.707785,23.6718093 L107.552791,23.6718093 L102,6 L105.180235,6 L109.092428,18.4460028 L112.701742,6 L115.881977,6 L119.79417,18.4460028 L123.403484,6 L126.558478,6 L121.409527,23.6718093 L118.254533,23.6718093 L114.342339,11.2258065 L110.707785,23.6718093 Z M140.642375,11.0238429 L140.642375,23.6718093 L137.61358,23.6718093 L137.61358,17.3604488 C137.61358,16.3506261 137.260224,15.4922896 136.553502,14.7854137 C135.846779,14.0785378 134.988629,13.7251052 133.979026,13.7251052 C133.491051,13.7251052 133.024116,13.8176709 132.578208,14.002805 C132.1323,14.1879392 131.741085,14.4488062 131.40455,14.7854137 C130.697828,15.4922896 130.344472,16.3506261 130.344472,17.3604488 C130.344472,18.3534412 130.697828,19.2033625 131.40455,19.9102384 C131.741085,20.2636764 132.1323,20.5287509 132.578208,20.7054698 C133.024116,20.8821888 133.491051,20.970547 133.979026,20.970547 C134.483828,20.970547 134.938142,20.8863964 135.341984,20.7180926 L136.427302,23.4193548 C135.653273,23.8064535 134.753056,24 133.726626,24 C132.801157,24 131.947213,23.8274912 131.164771,23.4824684 C130.382328,23.1374457 129.705063,22.6619946 129.132954,22.056101 C128.560846,21.4502073 128.114944,20.743342 127.795236,19.9354839 C127.475529,19.1276257 127.315677,18.2692893 127.315677,17.3604488 C127.315677,16.434778 127.475529,15.5680265 127.795236,14.7601683 C128.114944,13.9523101 128.560846,13.2454448 129.132954,12.6395512 C129.705063,12.0336576 130.382328,11.5582065 131.164771,11.2131837 C131.947213,10.868161 132.801157,10.6956522 133.726626,10.6956522 C134.551136,10.6956522 135.283087,10.8218781 135.922503,11.0743338 C136.561918,11.3267895 137.125605,11.6465619 137.61358,12.0336606 L137.61358,11.0238429 L140.642375,11.0238429 Z M145.437967,23.6718093 L142.409172,23.6718093 L142.409172,6 L145.437967,6 L145.437967,23.6718093 Z M150.233558,23.6718093 L147.204764,23.6718093 L147.204764,6 L150.233558,6 L150.233558,23.6718093 Z M164.771774,18.8751753 L154.97867,18.8751753 C155.146938,19.262274 155.390921,19.6072916 155.710629,19.9102384 C156.06399,20.2636764 156.459412,20.5287509 156.896907,20.7054698 C157.334402,20.8821888 157.79713,20.970547 158.285105,20.970547 C158.975,20.970547 159.589167,20.8106608 160.127622,20.4908836 L163.282616,21.7531557 C162.676854,22.4600316 161.944903,23.0112182 161.08674,23.4067321 C160.228577,23.802246 159.294708,24 158.285105,24 C157.359635,24 156.493072,23.8274912 155.685389,23.4824684 C154.877707,23.1374457 154.170995,22.6619946 153.565233,22.056101 C152.959471,21.4502073 152.484123,20.743342 152.139175,19.9354839 C151.794227,19.1276257 151.621756,18.2692893 151.621756,17.3604488 C151.621756,16.434778 151.794227,15.5680265 152.139175,14.7601683 C152.484123,13.9523101 152.959471,13.2454448 153.565233,12.6395512 C154.170995,12.0336576 154.877707,11.5582065 155.685389,11.2131837 C156.493072,10.868161 157.359635,10.6956522 158.285105,10.6956522 C159.210575,10.6956522 160.077138,10.868161 160.88482,11.2131837 C161.692503,11.5582065 162.399215,12.0336576 163.004977,12.6395512 C163.610739,13.2454448 164.086087,13.9523101 164.431034,14.7601683 C164.775982,15.5680265 164.948454,16.434778 164.948454,17.3604488 C164.948454,17.8990209 164.889561,18.4039247 164.771774,18.8751753 Z M158.285105,13.7251052 C157.309155,13.7251052 156.451005,14.0785378 155.710629,14.7854137 C155.390921,15.1051909 155.146938,15.4586236 154.97867,15.8457223 L161.591539,15.8457223 C161.423272,15.4586236 161.179288,15.1051909 160.859581,14.7854137 C160.152858,14.0785378 159.294708,13.7251052 158.285105,13.7251052 Z M173,23.6718093 L170.223605,23.6718093 C169.651496,23.6718093 169.113049,23.5624134 168.608247,23.3436185 C168.103446,23.1248236 167.665958,22.8260888 167.29577,22.4474053 C166.925582,22.0687218 166.631119,21.626931 166.412371,21.1220196 C166.193624,20.6171083 166.084252,20.0785442 166.084252,19.5063114 L166.084252,8.49929874 L169.113047,7.74193548 L169.113047,12.5638149 L170.879844,12.5638149 L171.637042,15.5932679 L169.113047,15.5932679 L169.113047,19.5063114 C169.113047,19.8260886 169.222419,20.0953706 169.441166,20.3141655 C169.659913,20.5329604 169.920724,20.6423562 170.223605,20.6423562 L172.242801,20.6423562 L173,23.6718093 Z" id="Wallet" fill="#181B3A"></path>
            </g>
        </g>
    </g>
</svg>
