<?xml version="1.0" encoding="UTF-8"?>
<svg width="182px" height="32px" viewBox="0 0 182 32" version="1.1" xmlns="http://www.w3.org/2000/svg" xmlns:xlink="http://www.w3.org/1999/xlink">
    <!-- Generator: Sketch 52.2 (67145) - http://www.bohemiancoding.com/sketch -->
    <title>VSYS_Wallet_Logo</title>
    <desc>Created with Sketch.</desc>
    <g id="Page-1" stroke="none" stroke-width="1" fill="none" fill-rule="evenodd">
        <g id="31A_Sign_up_Logo" transform="translate(-634.000000, -50.000000)">
            <g id="VSYS_Wallet_Logo" transform="translate(634.000000, 50.000000)">
                <path d="M0,-4e-05 L11.9561243,-4e-05 L25.904936,22.40016 L19.9268739,31.99996 L0,-4e-05 Z M37.8610603,6 C37.8610603,9.3136 35.1844826,12 31.8829982,12 C28.5815137,12 25.904936,9.3136 25.904936,6 C25.904936,2.6864 28.5815137,2.66453526e-15 31.8829982,2.66453526e-15 C35.1844826,2.66453526e-15 37.8610603,2.6864 37.8610603,6 Z" id="Shape" fill="#FF8837"></path>
                <path d="M56.6082832,24.62714 L49.8172046,7.39794 L53.2615647,7.39794 L58.1785208,20.92274 L63.0709669,7.39794 L66.4160912,7.39794 L59.6038901,24.62714 L56.6082832,24.62714 Z M73.0510627,22.29004 C74.173942,22.29004 74.9913424,22.09964 75.5034631,21.71824 C76.0149859,21.33724 76.2714448,20.79824 76.2714448,20.10244 C76.2714448,19.68804 76.1845636,19.33164 76.0110005,19.03324 C75.8376367,18.73484 75.5899457,18.46564 75.2681267,18.22504 C74.9461084,17.98524 74.5537483,17.76124 74.0914448,17.55384 C73.628942,17.34684 73.1006806,17.14364 72.506262,16.94464 C71.9116441,16.72944 71.3375508,16.49344 70.7845801,16.23604 C70.2312108,15.97944 69.744198,15.66064 69.3231431,15.27904 C68.9020883,14.89804 68.5633314,14.44224 68.3074704,13.91164 C68.0514101,13.38144 67.9236788,12.74304 67.9236788,11.99724 C67.9236788,10.43964 68.459911,9.21724 69.5337702,8.33004 C70.6068324,7.44384 72.0682693,7.00004 73.9182803,7.00004 C74.9913424,7.00004 75.9450426,7.12024 76.7791815,7.36064 C77.6129219,7.60104 78.2693132,7.86204 78.7485545,8.14384 L77.7823004,10.67944 C77.2207611,10.36484 76.6056185,10.12464 75.9368726,9.95864 C75.2681267,9.79324 74.5782583,9.71004 73.8686623,9.71004 C73.0263534,9.71004 72.3699622,9.88404 71.8992894,10.23204 C71.4284174,10.58004 71.1932803,11.06924 71.1932803,11.69884 C71.1932803,12.08044 71.2713936,12.40744 71.4284174,12.68084 C71.5854411,12.95444 71.8084229,13.19904 72.0973625,13.41444 C72.3863022,13.63004 72.7248598,13.82884 73.1130353,14.01084 C73.5008122,14.19384 73.926251,14.36784 74.3887537,14.53324 C75.1973863,14.83144 75.920134,15.13424 76.5561998,15.44064 C77.1916678,15.74764 77.7284978,16.11184 78.1662912,16.53464 C78.6034868,16.95724 78.938059,17.45444 79.1694101,18.02624 C79.4005618,18.59824 79.5163369,19.29044 79.5163369,20.10244 C79.5163369,21.66044 78.966953,22.86624 77.8689823,23.71964 C76.770613,24.57344 75.1647062,25.00004 73.0510627,25.00004 C72.3410682,25.00004 71.6926477,24.95424 71.1065984,24.86324 C70.5201505,24.77204 70.000059,24.66024 69.5461249,24.52764 C69.0917921,24.39524 68.6996313,24.25844 68.369443,24.11744 C68.0388561,23.97684 67.774825,23.84824 67.5767519,23.73204 L68.4931888,21.17124 C68.9391523,21.41984 69.541741,21.66864 70.3013534,21.91724 C71.0609658,22.16584 71.9774027,22.29004 73.0510627,22.29004 Z M88.4842671,15.03028 L92.5961775,7.39788 L96.0642506,7.39788 L89.9704133,17.86468 L89.9704133,24.62708 L86.8492671,24.62708 L86.8492671,17.91428 L80.731119,7.39788 L84.397066,7.39788 L88.4842671,15.03028 Z M102.534666,22.29004 C103.657545,22.29004 104.474946,22.09964 104.987066,21.71824 C105.498589,21.33724 105.755048,20.79824 105.755048,20.10244 C105.755048,19.68804 105.668167,19.33164 105.494604,19.03324 C105.32124,18.73484 105.073549,18.46564 104.75173,18.22504 C104.429712,17.98524 104.037352,17.76124 103.575048,17.55384 C103.112545,17.34684 102.584284,17.14364 101.989865,16.94464 C101.395247,16.72944 100.821154,16.49344 100.268183,16.23604 C99.7148141,15.97944 99.2278013,15.66064 98.8067464,15.27904 C98.3856916,14.89804 98.0469347,14.44224 97.7910737,13.91164 C97.5348141,13.38144 97.4072821,12.74304 97.4072821,11.99724 C97.4072821,10.43964 97.9435143,9.21724 99.0171742,8.33004 C100.090436,7.44384 101.551873,7.00004 103.401684,7.00004 C104.474946,7.00004 105.428447,7.12024 106.262785,7.36064 C107.096525,7.60104 107.752916,7.86204 108.232158,8.14384 L107.265904,10.67944 C106.704364,10.36484 106.089222,10.12464 105.420476,9.95864 C104.75173,9.79324 104.061862,9.71004 103.352266,9.71004 C102.509957,9.71004 101.853565,9.88404 101.382893,10.23204 C100.912021,10.58004 100.676884,11.06924 100.676884,11.69884 C100.676884,12.08044 100.754997,12.40744 100.912021,12.68084 C101.069044,12.95444 101.292026,13.19904 101.580966,13.41444 C101.869905,13.63004 102.208463,13.82884 102.596639,14.01084 C102.984416,14.19384 103.409854,14.36784 103.872357,14.53324 C104.68099,14.83144 105.403737,15.13424 106.039803,15.44064 C106.675271,15.74764 107.212101,16.11184 107.649895,16.53464 C108.08709,16.95724 108.421662,17.45444 108.653013,18.02624 C108.884165,18.59824 108.99994,19.29044 108.99994,20.10244 C108.99994,21.66044 108.450556,22.86624 107.352586,23.71964 C106.254216,24.57344 104.64811,25.00004 102.534666,25.00004 C101.824472,25.00004 101.176251,24.95424 100.590202,24.86324 C100.003754,24.77204 99.4834631,24.66024 99.0297282,24.52764 C98.5753954,24.39524 98.1832346,24.25844 97.8530463,24.11744 C97.5224594,23.97684 97.2584283,23.84824 97.0603552,23.73204 L97.9767921,21.17124 C98.4227556,21.41984 99.0253442,21.66864 99.7849567,21.91724 C100.54437,22.16584 101.461006,22.29004 102.534666,22.29004 Z" id="VSYS" fill="#323233"></path>
                <path d="M128.812371,10.1721649 L124.358763,24.1268041 L123.121649,24.1268041 L118,8.21752577 L119.31134,8.21752577 C120.771134,12.943299 122.25567,17.6690722 123.740206,22.3948454 C125.224742,17.6690722 126.709278,12.943299 128.218557,8.21752577 L129.430928,8.21752577 L133.884536,22.3948454 L138.313402,8.21752577 L139.624742,8.21752577 L134.503093,24.1268041 L133.290722,24.1268041 C131.806186,19.4752577 130.296907,14.8484536 128.812371,10.1721649 Z M145.305773,11.928866 C148.86866,11.928866 150.427423,13.685567 150.427423,16.9515464 L150.427423,20.6134021 C150.427423,23.8793814 147.087216,24.3 145.577938,24.3 C144.019175,24.3 140.58,23.8051546 140.58,20.5639175 C140.58,16.8278351 145.206804,16.6793814 146.320206,16.6793814 C147.928454,16.6793814 148.794433,16.8525773 149.190309,16.9268041 C149.190309,14.4030928 147.953196,13.1412371 145.231546,13.1412371 C143.672784,13.1412371 142.386186,13.5123711 141.817113,13.685567 L141.817113,12.4979381 C142.707835,12.2010309 143.944948,11.928866 145.305773,11.928866 Z M149.215052,20.6134021 L149.215052,18.0402062 C148.893402,17.9907216 147.804742,17.8175258 146.171753,17.8175258 C144.662474,17.8175258 141.792371,18.1639175 141.792371,20.5639175 C141.792371,22.7659794 144.093402,23.1865979 145.577938,23.1865979 C147.037732,23.1865979 149.215052,22.7907216 149.215052,20.6134021 Z M155.024742,24.1268041 L153.787629,24.1268041 L153.787629,7.5 L155.024742,7.5 L155.024742,24.1268041 Z M160.217113,24.1268041 L158.98,24.1268041 L158.98,7.5 L160.217113,7.5 L160.217113,24.1268041 Z M168.79433,11.928866 C173.915979,11.928866 173.965464,17.3969072 173.965464,18.1886598 C173.965464,18.7329897 173.940722,18.8072165 173.940722,18.8319588 L164.711856,18.8319588 C164.736598,19.2525773 164.810825,19.5989691 164.934536,19.8958763 C165.280928,22.2216495 166.913918,23.1123711 169.239691,23.1123711 C170.699485,23.1123711 172.159278,22.8154639 173.148969,22.271134 L173.148969,23.5329897 C172.035567,24.0525773 170.501546,24.3 169.140722,24.3 C166.419072,24.3 163.45,23.1371134 163.45,18.3618557 C163.45,16.456701 164.043814,11.928866 168.79433,11.928866 Z M168.720103,13.0917526 C166.122165,13.0917526 164.835567,14.8237113 164.711856,17.743299 L172.703608,17.743299 C172.703608,17.1494845 172.555155,13.0917526 168.720103,13.0917526 Z M180.540722,23.1618557 C181.109794,23.1618557 181.579897,23.0628866 182.000515,22.914433 L182.000515,24.0773196 C181.530412,24.2010309 180.986082,24.3 180.392268,24.3 C179.476804,24.3 177.25,24.2010309 177.25,21.2072165 L177.25,13.2154639 L177.25,12.1268041 L177.25,8.7371134 L178.487113,8.7371134 L178.487113,12.1268041 L181.951031,12.1268041 L181.951031,13.2154639 L178.487113,13.2154639 L178.487113,21.157732 C178.487113,22.7907216 179.42732,23.1618557 180.540722,23.1618557 Z" id="Wallet" fill="#323233"></path>
            </g>
        </g>
    </g>
</svg>