<?xml version="1.0" encoding="UTF-8"?>
<svg width="142px" height="32px" viewBox="0 0 142 32" version="1.1" xmlns="http://www.w3.org/2000/svg" xmlns:xlink="http://www.w3.org/1999/xlink">
    <!-- Generator: Sketch 52.2 (67145) - http://www.bohemiancoding.com/sketch -->
    <title>V_Wallet_Logo</title>
    <desc>Created with Sketch.</desc>
    <g id="Page-1" stroke="none" stroke-width="1" fill="none" fill-rule="evenodd">
        <g id="31A_Sign_up_Logo" transform="translate(-649.000000, -50.000000)">
            <g id="V_Wallet_Logo" transform="translate(649.000000, 50.000000)">
                <path d="M12.0602293,0.380209852 L25.7313483,22.2220524 C25.8954906,22.4843736 25.8954906,22.8172258 25.7313483,23.079547 L20.2645205,31.8102168 C20.1904812,31.9282948 20.0608127,32 19.9213252,32 C19.7818377,32 19.6521692,31.9282948 19.5781299,31.8102168 L0.0615547092,0.618852206 C-0.0163522155,0.494348118 -0.0205949965,0.337452607 0.0504695435,0.208929397 C0.121534084,0.0804061888 0.256745339,0.00043970746 0.403737634,0 L11.3738387,0 C11.6529406,0.000138752517 11.9123053,0.143807713 12.0602293,0.380209852 Z M39.4389128,0 C39.585905,0.00043970746 39.7211163,0.0804061888 39.7921808,0.208929397 C39.8632453,0.337452607 39.8590026,0.494348118 39.7810957,0.618852206 L32.4130267,12.3952457 C32.3389874,12.5133236 32.2093189,12.5850289 32.0698314,12.5850289 C31.9303439,12.5850289 31.8006754,12.5133236 31.7266361,12.3952457 L24.3585671,0.618852206 C24.2806601,0.494348118 24.2764175,0.337452607 24.347482,0.208929397 C24.4185465,0.0804061888 24.5537577,0.00043970746 24.70075,0 L39.4389128,0 Z" id="Shape" fill="#FF8837" fill-rule="nonzero"></path>
                <path d="M55.6878818,26.3074498 C54.4674593,23.6692602 53.2918033,20.9089735 52.1608784,18.0265071 C51.0299536,15.1440407 49.976338,12.0207007 49,9.13823427 L52.3927576,9.13823427 C52.7832928,10.2781927 53.1819581,11.6834782 53.5887656,12.8722921 C53.9955731,14.0611059 54.4023745,15.2295458 54.809182,16.3776469 C55.2159895,17.5257479 55.6227909,18.6371907 56.0295984,19.7120087 C56.4364059,20.7868267 56.8350713,21.7720618 57.2256064,22.6677434 C57.5998693,21.7720618 57.9903987,20.7908979 58.3972062,19.7242225 C58.8040137,18.6575471 59.2148831,17.5461042 59.6298267,16.3898606 C60.0447704,15.233617 60.4556398,14.0611059 60.8624473,12.8722921 C61.2692548,11.6834782 61.6597841,10.2781927 62.034047,9.13823427 L65.3291713,9.13823427 C64.336561,12.0207007 63.2788773,15.1440407 62.1560887,18.0265071 C61.0333,20.9089735 59.8617119,23.6692602 58.6412895,26.3074498 L55.6878818,26.3074498 Z M84.3231217,11.2363174 C84.5834785,12.1157139 84.8601034,13.0317382 85.1530048,13.9844178 C85.4459062,14.9370974 85.7510072,15.8897627 86.0683171,16.8424422 C86.3856269,17.7951218 86.702932,18.7315022 87.0202419,19.6516116 C87.3375517,20.5717209 87.6426528,21.4388906 87.9355542,22.2531467 C88.1796387,21.3737501 88.4155835,20.4170136 88.6433957,19.3829084 C88.8712079,18.3488032 89.0990166,17.2740014 89.3268288,16.1584706 C89.554641,15.0429398 89.7783818,13.9070696 89.9980579,12.750826 C90.2177339,11.5945824 90.4252026,10.2619076 90.6204702,9.13823427 L93.7935528,9.13823427 C93.2240223,12.199837 92.5894122,15.3360619 91.8897033,18.1615305 C91.1899944,20.986999 90.4089357,23.6862173 89.5465038,26.2592664 L86.6175045,26.2592664 C85.3482651,22.969672 84.1197249,19.3788566 82.931847,15.4867127 C82.3297719,17.4572123 81.7195698,19.3299732 81.1012224,21.1050514 C80.482875,22.8801296 79.8645369,24.5981841 79.2461895,26.2592664 L76.3171902,26.2592664 C75.438486,23.6862173 74.6533593,20.986999 73.9617865,18.1615305 C73.2702138,15.3360619 72.6396716,12.199837 72.0701411,9.13823427 L75.3652654,9.13823427 C75.560533,10.2456225 75.7680017,11.5701549 75.9876777,12.7263985 C76.2073538,13.8826421 76.4351626,15.0185122 76.6711109,16.134043 C76.9070593,17.2495738 77.1470721,18.3284469 77.3911566,19.3706946 C77.6352411,20.4129424 77.8793219,21.3737501 78.1234064,22.2531467 C78.4325801,21.4226055 78.7458172,20.5472934 79.063127,19.627184 C79.3804369,18.7070747 79.6936739,17.7706943 80.0028476,16.8180147 C80.3120213,15.8653351 80.6089864,14.916741 80.8937516,13.972204 C81.1785169,13.027667 81.4429378,12.1157139 81.6870223,11.2363174 L84.3231217,11.2363174 Z M99.2610182,13.0892699 C100.237356,13.0892699 101.059095,13.2114064 101.726259,13.4556833 C102.393424,13.6999601 102.926333,14.0419425 103.325005,14.4816408 C103.723676,14.921339 104.008437,15.4546687 104.179296,16.0816459 C104.350155,16.7086231 104.435584,17.3966591 104.435584,18.1457747 L104.435584,25.889311 C103.979959,25.9870217 103.292465,26.1050871 102.37308,26.2435106 C101.453695,26.3819342 100.416352,26.4511449 99.2610182,26.4511449 C98.4962201,26.4511449 97.7965217,26.3778629 97.161902,26.2312968 C96.5272823,26.0847308 95.9862365,25.8486 95.5387482,25.5228976 C95.09126,25.1971952 94.7414108,24.7737884 94.4891901,24.2526645 C94.2369695,23.7315407 94.1108611,23.088288 94.1108611,22.3228873 C94.1108611,21.5900569 94.2532415,20.9712316 94.5380068,20.4663928 C94.822772,19.9615541 95.2092334,19.5503609 95.6974024,19.2328011 C96.1855714,18.9152412 96.7510253,18.6872529 97.3937811,18.5488294 C98.036537,18.4104059 98.7077593,18.3411952 99.4074682,18.3411952 C99.7329142,18.3411952 100.074627,18.3615512 100.432618,18.402264 C100.790609,18.4429769 101.173002,18.5121876 101.579809,18.6098983 L101.579809,18.1213471 C101.579809,17.7793596 101.539129,17.453662 101.457768,17.1442447 C101.376406,16.8348274 101.234026,16.5620558 101.030622,16.3259215 C100.827218,16.0897872 100.558729,15.9065824 100.225147,15.7763014 C99.891565,15.6460204 99.4725596,15.5808809 98.9681183,15.5808809 C98.2846817,15.5808809 97.6582075,15.6297356 97.088677,15.7274463 C96.5191465,15.825157 96.055393,15.9391512 95.6974024,16.0694321 L95.3312774,13.6755313 C95.7055403,13.5452503 96.2506542,13.4149713 96.9666354,13.2846903 C97.6826166,13.1544094 98.4474032,13.0892699 99.2610182,13.0892699 Z M99.5051015,24.1060992 C100.41635,24.1060992 101.107913,24.0572445 101.579809,23.9595338 L101.579809,20.6862409 C101.417086,20.6373855 101.181142,20.5885309 100.871968,20.5396755 C100.562794,20.4908201 100.221081,20.4663928 99.8468181,20.4663928 C99.5213721,20.4663928 99.191863,20.4908201 98.8582808,20.5396755 C98.5246987,20.5885309 98.2236656,20.6780977 97.9551727,20.8083787 C97.6866797,20.9386596 97.471075,21.1218645 97.308352,21.3579987 C97.145629,21.594133 97.0642687,21.891332 97.0642687,22.2496047 C97.0642687,22.9498649 97.2839415,23.4343399 97.7232936,23.7030444 C98.1626457,23.9717489 98.7565757,24.1060992 99.5051015,24.1060992 Z M111.904532,26.4109615 C111.025828,26.3946764 110.297653,26.2969672 109.719987,26.1178308 C109.14232,25.9386945 108.682634,25.6822077 108.340916,25.3483627 C107.999198,25.0145177 107.759185,24.5992534 107.62087,24.1025572 C107.482556,23.605861 107.4134,23.0399615 107.4134,22.4048418 L107.4134,8.17456705 L110.366807,7.5 L110.366807,21.8430079 C110.366807,22.2012806 110.395283,22.5025508 110.452236,22.7468276 C110.50919,22.9911044 110.61089,23.1987366 110.757341,23.3697304 C110.903791,23.5407242 111.103124,23.6710032 111.355345,23.7605713 C111.607565,23.8501395 111.928938,23.9193502 112.319474,23.9682056 L111.904532,26.4109615 Z M118.568005,26.4109615 C117.689301,26.3946764 116.961127,26.2969672 116.38346,26.1178308 C115.805793,25.9386945 115.346108,25.6822077 115.00439,25.3483627 C114.662671,25.0145177 114.422658,24.5992534 114.284344,24.1025572 C114.146029,23.605861 114.076873,23.0399615 114.076873,22.4048418 L114.076873,8.17456705 L117.030281,7.5 L117.030281,21.8430079 C117.030281,22.2012806 117.058757,22.5025508 117.11571,22.7468276 C117.172663,22.9911044 117.274363,23.1987366 117.420814,23.3697304 C117.567265,23.5407242 117.766597,23.6710032 118.018818,23.7605713 C118.271039,23.8501395 118.592412,23.9193502 118.982947,23.9682056 L118.568005,26.4109615 Z M120.081322,19.8557038 C120.081322,18.7320305 120.24811,17.7467954 120.581692,16.8999691 C120.915275,16.0531428 121.358688,15.3488219 121.911946,14.7869853 C122.465204,14.2251486 123.099815,13.8017418 123.815796,13.5167522 C124.531777,13.2317625 125.26402,13.0892699 126.012545,13.0892699 C127.769954,13.0892699 129.140874,13.6348132 130.125349,14.7259164 C131.109823,15.8170195 131.602052,17.4455071 131.602052,19.6114282 C131.602052,19.7742795 131.597984,19.9574843 131.589848,20.1610483 C131.581712,20.3646123 131.569508,20.5478172 131.553236,20.7106684 L123.132363,20.7106684 C123.213724,21.736631 123.575777,22.5305188 124.218533,23.0923555 C124.861289,23.6541921 125.792864,23.9351063 127.013287,23.9351063 C127.729268,23.9351063 128.384218,23.8699668 128.978157,23.7396858 C129.572096,23.6094048 130.039918,23.4709834 130.381636,23.3244173 L130.772169,25.7427457 C130.609446,25.8241713 130.385705,25.9096669 130.10094,25.999235 C129.816175,26.0888032 129.490734,26.1702276 129.124607,26.2435106 C128.75848,26.3167937 128.363883,26.377862 127.940803,26.4267173 C127.517723,26.4755727 127.086514,26.5 126.647162,26.5 C125.524373,26.5 124.54805,26.33308 123.718163,25.999235 C122.888275,25.6653901 122.204849,25.2012711 121.667863,24.6068641 C121.130877,24.0124572 120.732212,23.3122075 120.471855,22.506094 C120.211498,21.6999805 120.081322,20.816526 120.081322,19.8557038 Z M128.648645,18.5366156 C128.648645,18.1294876 128.591693,17.7427218 128.477786,17.3763066 C128.36388,17.0098913 128.197092,16.6923362 127.977416,16.4236317 C127.75774,16.1549272 127.489251,15.9432238 127.171941,15.7885152 C126.854631,15.6338065 126.476306,15.5564534 126.036954,15.5564534 C125.581329,15.5564534 125.182664,15.641949 124.840946,15.8129427 C124.499227,15.9839365 124.210398,16.2078536 123.97445,16.4847006 C123.738502,16.7615477 123.555441,17.0791028 123.425263,17.4373755 C123.295084,17.7956481 123.205588,18.1620578 123.156771,18.5366156 L128.648645,18.5366156 Z M133.994068,10.0200692 L136.947476,9.53151798 L136.947476,13.3910724 L141.487425,13.3910724 L141.487425,15.8582559 L136.947476,15.8582559 L136.947476,21.061326 C136.947476,22.0872887 137.110197,22.8201081 137.435643,23.2598064 C137.761089,23.6995046 138.314339,23.9193505 139.095409,23.9193505 C139.632395,23.9193505 140.108353,23.8623534 140.523296,23.7483576 C140.93824,23.6343617 141.267749,23.52851 141.511833,23.4307993 L142,25.775845 C141.658282,25.9224111 141.2108,26.0730462 140.657542,26.2277549 C140.104284,26.3824635 139.453402,26.4598167 138.704876,26.4598167 C137.793627,26.4598167 137.032908,26.3376801 136.422697,26.0934033 C135.812486,25.8491265 135.328392,25.4949304 134.970402,25.0308044 C134.612411,24.5666785 134.360194,24.0048502 134.213743,23.3453028 C134.067293,22.6857554 133.994068,21.9325799 133.994068,21.0857536 L133.994068,10.0200692 Z" id="V-Wallet" fill="#323233"></path>
            </g>
        </g>
    </g>
</svg>