<?xml version="1.0" encoding="UTF-8"?>
<svg width="24px" height="24px" viewBox="0 0 24 24" version="1.1" xmlns="http://www.w3.org/2000/svg" xmlns:xlink="http://www.w3.org/1999/xlink">
    <!-- Generator: Sketch 50.2 (55047) - http://www.bohemiancoding.com/sketch -->
    <title>ic_wallet_line</title>
    <desc>Created with Sketch.</desc>
    <defs></defs>
    <g id="Page-1" stroke="none" stroke-width="1" fill="none" fill-rule="evenodd">
        <g id="00A_Export" transform="translate(-80.000000, -84.000000)">
            <g id="ic_wallet_line" transform="translate(80.000000, 84.000000)">
                <rect id="Guide" x="0" y="0" width="24" height="24"></rect>
                <g id="Sahpe" transform="translate(1.000000, 3.000000)" fill="#010102">
                    <path d="M18,3 C18.552,3 19,3.448 19,4 L19,6 L21,6 L21,1 L3.5,1 C2.11928813,1 1,2.11928813 1,3.5 C1,4.88071187 2.11928813,6 3.5,6 L15,6 L15,7 L3.5,7 C2.52065591,7 1.63525852,6.59776639 1,5.94949137 L1,15 C1,16.1045695 1.8954305,17 3,17 L15,17 L15,6 L15.5,6 L15,6 C15.552,6 16,6.448 16,7 L16,17 C16,17.552 15.552,18 15,18 L3,18 C1.34314575,18 -8.67887807e-15,16.6568542 -8.8817842e-15,15 L-8.8817842e-15,4.5 C-8.90381081e-15,4.32013908 0.010552051,4.14274273 0.0310708579,3.96839623 C0.0105790221,3.81517916 1.9450454e-17,3.65882501 0,3.5 C-2.36723813e-16,1.56700338 1.56700338,3.55085719e-16 3.5,0 L4.5,0 L21,0 C21.5522847,-1.01453063e-16 22,0.44771525 22,1 L22,6 L22,13.5 C22,13.7761424 21.7761424,14 21.5,14 C21.2238576,14 21,13.7761424 21,13.5 L21,6 L19,6 L19,16.5 C19,16.7761424 18.7761424,17 18.5,17 C18.2238576,17 18,16.7761424 18,16.5 L18,6 L16,6 L18,6 L18,4 L4.5,4 C4.22385763,4 4,3.77614237 4,3.5 C4,3.22385763 4.22385763,3 4.5,3 L18,3 Z" id="Combined-Shape"></path>
                </g>
                <rect id="Overlay" fill="#FFFFFF" opacity="0" x="0" y="0" width="24" height="24"></rect>
            </g>
        </g>
    </g>
</svg>